<svg width="144" height="36" fill="none" xmlns="http://www.w3.org/2000/svg"><path fill-rule="evenodd" clip-rule="evenodd" d="M29.874 19.047a10.692 10.692 0 0 1-3.731.667c-5.918 0-10.715-4.797-10.715-10.714 0-1.033.147-2.031.42-2.976C15.566 6.008 15.283 6 15 6 6.716 6 0 12.716 0 21c0 8.284 6.716 15 15 15 8.284 0 15-6.716 15-15 0-.662-.043-1.314-.126-1.953Z" fill="#283635"/><circle cx="26.5" cy="8.5" r="8.5" fill="url(#a)"/><path d="M47.62 5.396h6.336v11.088a7.584 7.584 0 0 1 2.628-1.728 8.824 8.824 0 0 1 3.168-.576c2.424 0 4.212.636 5.364 1.908 1.176 1.248 1.764 2.952 1.764 5.112V32h-6.336v-9.972c0-1.944-.888-2.916-2.664-2.916-.816 0-1.56.192-2.232.576-.672.36-1.236.924-1.692 1.692V32H47.62V5.396ZM75.933 32.54c-2.16 0-3.912-.516-5.256-1.548-1.32-1.056-1.98-2.52-1.98-4.392 0-1.944.636-3.432 1.908-4.464 1.296-1.056 3.144-1.584 5.544-1.584.936 0 1.872.108 2.808.324.936.192 1.74.456 2.412.792v-.36c0-1.848-1.512-2.772-4.536-2.772-2.112 0-4.044.408-5.796 1.224v-4.356c.768-.36 1.776-.648 3.024-.864 1.248-.24 2.544-.36 3.888-.36 3.216 0 5.64.648 7.272 1.944 1.656 1.272 2.484 3.06 2.484 5.364V32h-5.94v-1.476c-.648.624-1.464 1.116-2.448 1.476-.984.36-2.112.54-3.384.54Zm1.872-3.888c.744 0 1.44-.144 2.088-.432.648-.312 1.14-.708 1.476-1.188V25.52c-1.032-.696-2.208-1.044-3.528-1.044-.84 0-1.488.18-1.944.54-.456.36-.684.888-.684 1.584 0 .648.216 1.152.648 1.512.456.36 1.104.54 1.944.54ZM102.997 32.54c-2.472 0-4.512-.756-6.12-2.268V32h-6.12V5.396h6.336v10.728c.696-.6 1.56-1.068 2.592-1.404 1.056-.36 2.16-.54 3.312-.54 1.824 0 3.42.384 4.788 1.152a8.037 8.037 0 0 1 3.24 3.276c.768 1.392 1.152 2.988 1.152 4.788 0 1.824-.384 3.432-1.152 4.824a8.16 8.16 0 0 1-3.24 3.204c-1.392.744-2.988 1.116-4.788 1.116Zm-1.656-4.896c1.296 0 2.34-.372 3.132-1.116.792-.768 1.188-1.812 1.188-3.132s-.396-2.364-1.188-3.132c-.792-.768-1.836-1.152-3.132-1.152-.96 0-1.824.252-2.592.756a4.055 4.055 0 0 0-1.656 1.98v3.06a4.25 4.25 0 0 0 1.656 2.016c.768.48 1.632.72 2.592.72ZM114.698 5.396h6.336V32h-6.336V5.396ZM134.413 32.54c-3.384 0-6.048-.792-7.992-2.376-1.92-1.584-2.88-3.828-2.88-6.732 0-2.856.852-5.112 2.556-6.768 1.728-1.656 4.212-2.484 7.452-2.484 2.064 0 3.828.396 5.292 1.188 1.488.768 2.604 1.836 3.348 3.204.768 1.344 1.152 2.868 1.152 4.572v2.34h-13.788c.24.96.84 1.656 1.8 2.088.96.432 2.268.648 3.924.648 1.128 0 2.28-.096 3.456-.288 1.2-.192 2.232-.456 3.096-.792v4.176c-.888.36-2.004.648-3.348.864-1.32.24-2.676.36-4.068.36Zm2.952-11.016c-.096-.936-.48-1.668-1.152-2.196-.672-.528-1.596-.792-2.772-.792-1.152 0-2.064.276-2.736.828-.672.528-1.056 1.248-1.152 2.16h7.812Z" fill="#283635"/><defs><linearGradient id="a" x1="34.339" y1="2.243" x2="17.301" y2="3.665" gradientUnits="userSpaceOnUse"><stop stop-color="#7CFABD"/><stop offset=".404" stop-color="#95F3AA"/><stop offset="1" stop-color="#BBE98E"/></linearGradient></defs></svg>