<svg width="210" height="152" fill="none" xmlns="http://www.w3.org/2000/svg"><g clip-path="url(#a)"><path d="m209.241 107.715-82.856-94.516-50.482 44.289 82.856 94.515 50.482-44.288Z" fill="#283635"/><path d="m126.334 13.466 11.353 73.645 71.501 20.869-82.854-94.514Z" fill="#283635"/><path d="M209.243 108.472a.732.732 0 0 1-.213-.031l-71.505-20.87a.761.761 0 0 1-.537-.612L125.64 13.314a.745.745 0 0 1 .115-.592.765.765 0 0 1 .819-.306.76.76 0 0 1 .565.668l11.273 73.167 71.027 20.745a.754.754 0 0 1 .548.835.763.763 0 0 1-.256.469.762.762 0 0 1-.501.182l.013-.01ZM130.153 63.197 34.203.957.96 52.245l95.95 62.239 33.243-51.287Z" fill="#EAF4F2"/><path d="m97.106 115.442-.582-.375L0 52.442l.375-.578L33.999 0 131.1 63l-.375.578-33.62 51.864ZM1.909 52.036l94.787 61.497 32.496-50.127L34.391 1.91 1.909 52.036Z" fill="#486260"/><path d="m96.266 114.754-26.625-63.34L.97 52.93l-.031-1.38 69.61-1.54 26.99 64.211-1.273.533Z" fill="#486260"/><path d="m34.222 1.204 28.166 61.68 67.781.567L34.222 1.204Z" fill="#EAF4F2"/><path d="M62.935 49.294a.75.75 0 1 1 1.292.76.75.75 0 0 1-1.292-.76ZM64.999 52.862a.75.75 0 1 1 1.294.757.75.75 0 0 1-1.294-.757ZM66.405 48.895a.747.747 0 1 1 1.284.764.747.747 0 0 1-1.284-.764ZM60.325 53.835a.749.749 0 1 1 1.293.756.749.749 0 0 1-1.293-.756ZM70.095 51.881a.75.75 0 1 1 1.292.76.75.75 0 0 1-1.292-.76ZM63.568 56.832a.75.75 0 1 1 1.294.762.75.75 0 0 1-1.294-.762ZM68.826 57.11a.747.747 0 1 1 1.284.764.747.747 0 0 1-1.284-.764ZM74.473 50.281a.75.75 0 1 1 1.293.76.75.75 0 0 1-1.293-.76ZM76.52 53.852a.75.75 0 1 1 1.294.758.75.75 0 0 1-1.295-.758ZM77.94 49.886a.746.746 0 1 1 1.283.763.746.746 0 0 1-1.283-.763ZM71.877 54.823a.75.75 0 1 1 1.293.76.75.75 0 0 1-1.293-.76ZM81.63 52.872a.746.746 0 1 1 1.282.762.746.746 0 0 1-1.282-.762ZM75.102 57.82a.75.75 0 1 1 1.293.76.75.75 0 0 1-1.293-.76ZM80.36 58.084a.747.747 0 1 1 1.284.763.747.747 0 0 1-1.283-.763ZM68.314 60.606a.75.75 0 1 1 1.293.761.75.75 0 0 1-1.293-.761ZM70.363 64.177a.746.746 0 1 1 1.282.762.746.746 0 0 1-1.282-.762ZM71.78 60.207a.75.75 0 1 1 1.294.76.75.75 0 0 1-1.294-.76ZM65.703 65.147a.75.75 0 1 1 1.293.76.75.75 0 0 1-1.293-.76ZM75.47 63.197a.75.75 0 0 1 1.3.746.75.75 0 0 1-1.3-.746ZM73.668 69.338a.746.746 0 1 1 1.283.763.746.746 0 0 1-1.283-.763ZM77.936 66.805a.75.75 0 1 1 1.295.759.75.75 0 0 1-1.295-.758ZM55.854 58.222a.75.75 0 1 1 1.293.76.75.75 0 0 1-1.293-.76ZM57.9 61.79a.75.75 0 1 1 1.294.756.75.75 0 0 1-1.294-.757ZM59.32 57.823a.746.746 0 1 1 1.283.762.746.746 0 0 1-1.282-.762ZM53.244 62.763a.746.746 0 1 1 1.282.762.746.746 0 0 1-1.282-.762ZM63.01 60.809a.75.75 0 1 1 1.294.76.75.75 0 0 1-1.293-.76ZM64.82 69.692a.747.747 0 1 1 1.284.764.747.747 0 0 1-1.284-.764ZM61.742 66.025a.746.746 0 1 1 1.282.761.746.746 0 0 1-1.282-.761ZM69.782 40.015a.747.747 0 1 1 1.284.764.747.747 0 0 1-1.284-.764ZM71.828 43.583a.75.75 0 1 1 1.293.76.75.75 0 0 1-1.293-.76ZM74.084 37.043a.75.75 0 1 1 1.293.76.75.75 0 0 1-1.293-.76ZM67.168 44.556a.75.75 0 1 1 1.295.759.75.75 0 0 1-1.294-.758ZM76.936 42.602a.75.75 0 1 1 1.294.757.75.75 0 0 1-1.294-.757ZM70.412 47.553a.75.75 0 1 1 1.292.76.75.75 0 0 1-1.292-.76ZM75.66 47.822a.75.75 0 1 1 1.294.757.75.75 0 0 1-1.294-.758ZM83.944 60.517a.75.75 0 1 1 1.292.759.75.75 0 0 1-1.292-.76ZM85.977 64.088a.75.75 0 1 1 1.293.76.75.75 0 0 1-1.293-.76ZM87.407 60.117a.75.75 0 1 1 1.296.76.75.75 0 0 1-1.296-.76ZM79.068 61.834a.75.75 0 1 1 1.294.757.75.75 0 0 1-1.294-.757ZM90.08 56.976a.75.75 0 1 1 1.293.762.75.75 0 0 1-1.293-.762ZM84.574 68.054a.75.75 0 1 1 1.293.761.75.75 0 0 1-1.293-.76ZM89.829 68.32a.75.75 0 1 1 1.294.756.75.75 0 0 1-1.294-.757ZM79.897 44.973a.75.75 0 1 1 1.293.757.75.75 0 0 1-1.293-.757ZM86.403 47.185a.75.75 0 1 1 1.295.758.75.75 0 0 1-1.295-.758ZM93.12 50.185a.75.75 0 1 1 1.292.76.75.75 0 0 1-1.292-.76ZM81.747 48.166a.747.747 0 1 1 1.284.763.747.747 0 0 1-1.284-.764ZM85.392 41.818a.75.75 0 1 1 1.293.76.75.75 0 0 1-1.293-.76ZM84.986 51.155a.75.75 0 1 1 1.295.759.75.75 0 0 1-1.295-.759ZM84.866 56.264a.746.746 0 1 1 1.282.762.746.746 0 0 1-1.282-.762ZM58.63 36.853a.749.749 0 1 1 1.293.757.749.749 0 0 1-1.294-.757ZM54.041 44.835a.75.75 0 1 1 1.293.76.75.75 0 0 1-1.293-.76ZM64.517 40.535a.75.75 0 1 1 1.293.76.75.75 0 0 1-1.293-.76ZM54.83 54.358a.75.75 0 1 1 1.292.76.75.75 0 0 1-1.293-.76ZM59.152 43.855a.75.75 0 1 1 1.292.76.75.75 0 0 1-1.292-.76ZM50.118 51.66a.747.747 0 1 1 1.283.764.747.747 0 0 1-1.283-.763ZM57.88 49.067a.75.75 0 1 1 1.291.76.75.75 0 0 1-1.291-.76Z" fill="#81F8BA"/><path d="M77.93 50.16a.75.75 0 1 1 1.294.76.75.75 0 0 1-1.295-.76ZM79.982 53.729a.751.751 0 0 1 1.358.617.75.75 0 1 1-1.358-.617ZM81.396 49.758a.75.75 0 1 1 1.294.757.75.75 0 0 1-1.294-.757ZM75.316 54.702a.75.75 0 1 1 1.292.76.75.75 0 0 1-1.292-.76ZM85.09 52.741a.75.75 0 1 1 1.293.757.75.75 0 0 1-1.293-.757ZM78.569 57.699a.75.75 0 1 1 1.295.758.75.75 0 0 1-1.295-.758ZM83.827 57.957a.75.75 0 1 1 1.294.761.75.75 0 0 1-1.294-.761ZM89.467 51.138a.75.75 0 1 1 1.293.76.75.75 0 0 1-1.293-.76ZM91.52 54.702a.75.75 0 1 1 1.294.761.75.75 0 0 1-1.293-.76ZM92.93 50.732a.75.75 0 1 1 1.295.758.75.75 0 0 1-1.294-.758ZM86.86 55.68a.75.75 0 1 1 1.296.757.75.75 0 0 1-1.295-.758ZM96.638 53.715a.75.75 0 1 1 1.294.757.75.75 0 0 1-1.294-.757ZM90.104 58.672a.75.75 0 1 1 1.293.762.75.75 0 0 1-1.293-.762ZM95.362 58.93a.75.75 0 1 1 1.295.758.75.75 0 0 1-1.295-.758ZM83.318 61.47a.75.75 0 1 1 1.295.756.75.75 0 0 1-1.295-.757ZM85.371 65.023a.751.751 0 0 1 1.142-.184.75.75 0 1 1-1.142.184ZM86.785 61.063a.75.75 0 1 1 1.294.757.75.75 0 0 1-1.294-.757ZM80.715 66.01a.75.75 0 1 1 1.292.76.75.75 0 0 1-1.292-.76ZM90.478 64.05a.75.75 0 1 1 1.296.758.75.75 0 0 1-1.296-.758ZM88.683 70.184a.75.75 0 1 1 1.294.757.75.75 0 0 1-1.294-.757ZM92.951 67.655a.75.75 0 1 1 1.295.759.75.75 0 0 1-1.295-.759ZM70.845 59.1a.75.75 0 1 1 1.294.757.75.75 0 0 1-1.294-.758ZM72.908 62.663a.75.75 0 1 1 1.294.757.75.75 0 0 1-1.294-.757ZM74.322 58.693a.75.75 0 1 1 .278 1.032.757.757 0 0 1-.278-1.032ZM68.252 63.647a.75.75 0 1 1 1.293.761.75.75 0 0 1-1.293-.76ZM78.015 61.676a.75.75 0 1 1 1.296.759.75.75 0 0 1-1.296-.76ZM79.835 70.556a.75.75 0 1 1 1.294.757.75.75 0 0 1-1.294-.757ZM76.753 66.891a.75.75 0 1 1 1.294.757.75.75 0 0 1-1.294-.757ZM84.763 40.875a.75.75 0 1 1 1.292.76.75.75 0 0 1-1.292-.76ZM86.816 44.44a.75.75 0 1 1 1.293.76.75.75 0 0 1-1.293-.76ZM89.072 37.896a.75.75 0 1 1 1.295.758.75.75 0 0 1-1.295-.758ZM82.156 45.413a.75.75 0 1 1 1.295.759.75.75 0 0 1-1.295-.759ZM91.923 43.452a.75.75 0 1 1 1.293.761.75.75 0 0 1-1.293-.76ZM85.403 48.41a.749.749 0 1 1 1.29.758.749.749 0 0 1-1.29-.758ZM90.657 48.668a.75.75 0 1 1 1.295.758.75.75 0 0 1-1.295-.758ZM98.949 61.36a.75.75 0 1 1 1.294.756.75.75 0 0 1-1.294-.757ZM101.002 64.927a.75.75 0 1 1 1.292.76.75.75 0 0 1-1.292-.76ZM102.416 60.957a.747.747 0 0 1 1.142-.182.747.747 0 0 1 .214.803.749.749 0 0 1-1.081.411.744.744 0 0 1-.275-1.032ZM94.076 62.68a.75.75 0 1 1 1.295.758.75.75 0 0 1-1.295-.758ZM105.081 57.799a.745.745 0 0 1 .746-.365.747.747 0 0 1 .625.548.754.754 0 0 1-.264.788.751.751 0 0 1-1.203-.692.752.752 0 0 1 .096-.28ZM99.589 68.897a.75.75 0 1 1 .278 1.032.757.757 0 0 1-.278-1.032ZM104.847 69.152a.75.75 0 1 1 1.292.76.75.75 0 0 1-1.292-.76ZM94.884 45.82a.75.75 0 1 1 .279 1.031.757.757 0 0 1-.279-1.032ZM101.394 48.028a.75.75 0 1 1 1.295.758.75.75 0 0 1-1.295-.758ZM108.114 51.018a.75.75 0 1 1 1.295.758.75.75 0 0 1-1.295-.758ZM96.738 49.005a.75.75 0 1 1 1.293.761.75.75 0 0 1-1.293-.761ZM100.376 42.66a.75.75 0 1 1 1.292.76.75.75 0 0 1-1.292-.76ZM99.98 51.998a.747.747 0 0 1 1.142-.185.746.746 0 0 1 .217.802.755.755 0 0 1-.656.51.75.75 0 0 1-.702-1.127ZM99.867 57.11a.75.75 0 1 1 1.293.76.75.75 0 0 1-1.293-.76ZM73.596 37.727a.75.75 0 1 1 1.294.762.75.75 0 0 1-1.294-.762ZM69.03 45.712a.749.749 0 1 1 1.29.76.749.749 0 0 1-1.29-.76ZM79.498 41.398a.75.75 0 1 1 1.293.757.75.75 0 0 1-1.293-.757ZM69.813 55.25a.75.75 0 1 1 1.295.757.75.75 0 0 1-1.295-.758ZM74.136 44.725a.749.749 0 1 1 1.291.759.749.749 0 0 1-1.29-.759ZM65.112 52.542a.75.75 0 1 1 1.294.757.75.75 0 0 1-1.294-.757ZM72.874 49.94a.75.75 0 1 1 1.293.762.75.75 0 0 1-1.293-.761ZM115.367 53.422a.75.75 0 1 1-1.448.39.75.75 0 0 1 1.448-.39ZM111.398 52.335a.752.752 0 0 1-.267.79.751.751 0 0 1-1.129-.264.744.744 0 0 1 .111-.827.747.747 0 0 1 1.285.301ZM113.19 56.15a.75.75 0 1 1-1.448.39.75.75 0 0 1 1.448-.39ZM114.019 48.362a.748.748 0 0 1-1.399.521.751.751 0 1 1 1.399-.521ZM108.468 56.632a.742.742 0 0 1-.014.436.743.743 0 0 1-.66.507.75.75 0 1 1 .674-.943ZM109.61 48.51a.75.75 0 1 1-1.448.39.75.75 0 0 1 1.448-.39ZM105.693 52.04a.75.75 0 1 1-1.45.392.75.75 0 0 1 1.45-.393ZM106.487 60.857a.75.75 0 1 1-.918-.533.748.748 0 0 1 .918.533ZM102.519 59.767a.753.753 0 0 1-.675.943.752.752 0 0 1-.792-.848.754.754 0 0 1 .552-.625.75.75 0 0 1 .915.53ZM104.31 63.582a.743.743 0 0 1-.014.435.743.743 0 0 1-.66.508.75.75 0 1 1 .674-.943ZM105.139 55.793a.753.753 0 0 1-.267.79.751.751 0 0 1-1.2-.695.748.748 0 0 1 .553-.625.748.748 0 0 1 .914.53ZM99.589 64.064a.75.75 0 1 1-1.449.389.75.75 0 0 1 1.449-.39Z" fill="#81F8BA"/><path d="M100.73 55.951a.743.743 0 0 1-.014.435.743.743 0 0 1-.66.508.75.75 0 1 1 .674-.943ZM96.813 59.47a.75.75 0 1 1-1.448.391.75.75 0 0 1 1.448-.39ZM103.581 49.198a.753.753 0 0 1-.267.79.752.752 0 0 1-.832.054.743.743 0 0 1-.367-.749.747.747 0 0 1 1.118-.55c.172.1.297.263.348.455ZM99.616 48.1a.75.75 0 1 1-1.45.39.75.75 0 0 1 1.45-.39ZM101.404 51.916a.753.753 0 0 1-.267.79.751.751 0 0 1-1.129-.265.747.747 0 0 1 .482-1.055.748.748 0 0 1 .914.53ZM102.237 44.127a.75.75 0 1 1-1.45.382.75.75 0 0 1 1.45-.383ZM96.683 52.397a.75.75 0 1 1-1.449.39.75.75 0 0 1 1.449-.39ZM93.636 46.769a.75.75 0 1 1-1.45.389.75.75 0 0 1 1.45-.39ZM92.387 51.578a.75.75 0 1 1-1.45.385.75.75 0 0 1 1.45-.385ZM114.105 42.097a.75.75 0 1 1-1.45.382.75.75 0 0 1 1.45-.382ZM110.136 41.01a.747.747 0 0 1-1.101.84.756.756 0 0 1-.367-.748.752.752 0 0 1 1.12-.551.731.731 0 0 1 .348.459ZM111.928 44.825a.75.75 0 1 1-1.45.382.75.75 0 0 1 1.45-.382ZM112.757 37.032a.756.756 0 0 1-.675.943.75.75 0 1 1 .675-.943ZM107.203 45.306a.75.75 0 1 1-1.45.383.75.75 0 0 1 1.45-.383ZM99.664 40.28a.75.75 0 1 1-1.45.39.75.75 0 0 1 1.45-.39ZM104.431 40.714a.75.75 0 1 1-1.45.382.75.75 0 0 1 1.45-.382ZM117.049 64.83a.752.752 0 0 1-.675.945.75.75 0 1 1 .675-.944ZM113.084 63.744a.751.751 0 1 1-1.468.097.747.747 0 0 1 .549-.627.75.75 0 0 1 .919.53ZM116.093 69.974a.752.752 0 0 1-1.397.527.754.754 0 0 1 .478-1.056.75.75 0 0 1 .919.53ZM115.704 59.77a.75.75 0 1 1-1.45.382.75.75 0 0 1 1.45-.382ZM110.15 68.04a.756.756 0 0 1-.267.79.753.753 0 0 1-.832.055.747.747 0 0 1-.368-.747.745.745 0 0 1 .549-.627.75.75 0 0 1 .918.53ZM111.292 59.928a.752.752 0 0 1-1.397.527.754.754 0 0 1 .479-1.056.747.747 0 0 1 .918.53ZM107.378 63.448a.75.75 0 1 1-1.448.39.75.75 0 0 1 1.448-.39ZM92.56 60.272a.75.75 0 1 1-1.452.383.75.75 0 0 1 1.451-.383ZM88.59 59.175a.75.75 0 1 1-1.45.382.75.75 0 0 1 1.45-.382ZM90.382 63a.75.75 0 1 1-1.451.383.75.75 0 0 1 1.451-.383ZM95.09 55.903a.749.749 0 1 1-1.447.383.749.749 0 0 1 1.447-.383ZM90.699 67.112a.75.75 0 1 1-1.449.39.75.75 0 0 1 1.449-.39ZM86.799 55.37a.75.75 0 1 1-1.45.384.75.75 0 0 1 1.45-.384ZM82.882 58.89a.75.75 0 1 1-1.452.382.75.75 0 0 1 1.452-.383ZM106.381 68.464a.75.75 0 1 1-1.45.382.75.75 0 0 1 1.45-.382ZM100.204 71.464a.743.743 0 0 1-.014.435.742.742 0 0 1-.66.508.75.75 0 1 1 .674-.943ZM93.326 74.072a.75.75 0 1 1-1.451.384.75.75 0 0 1 1.451-.384ZM102.828 67.49a.742.742 0 0 1-.014.435.742.742 0 0 1-.66.508.749.749 0 0 1-.793-.846.753.753 0 0 1 .549-.627.75.75 0 0 1 .918.53ZM104.706 74.56a.75.75 0 1 1-1.45.382.75.75 0 0 1 1.45-.382ZM98.412 67.648a.75.75 0 1 1-1.447.391.75.75 0 0 1 1.447-.39ZM94.918 63.94a.75.75 0 1 1-1.45.389.75.75 0 0 1 1.45-.39ZM127.187 59.213a.75.75 0 1 1-1.448.391.75.75 0 0 1 1.448-.391ZM124.838 50.316a.746.746 0 0 1-1.101.84.757.757 0 0 1-.367-.748.751.751 0 0 1 1.468-.092ZM120.419 60.75a.75.75 0 1 1-1.448.39.75.75 0 0 1 1.448-.39ZM117.541 44.106a.752.752 0 0 1-1.103.84.75.75 0 1 1 1.103-.84ZM121.888 54.613a.75.75 0 1 1-1.45.383.75.75 0 0 1 1.45-.383ZM122.795 42.706a.751.751 0 0 1-.678.94.75.75 0 1 1 .678-.94ZM119.116 50.02a.75.75 0 1 1-1.45.383.75.75 0 0 1 1.45-.383ZM110.711 47.601a.748.748 0 0 1 1.135.234.754.754 0 0 1-.087.828.747.747 0 0 1-1.158-.005.751.751 0 0 1 .11-1.057ZM111.34 51.668a.747.747 0 0 1 .829-.076.752.752 0 0 1 .219 1.138.742.742 0 0 1-.798.238.749.749 0 0 1-.25-1.3ZM114.088 48.475a.747.747 0 0 1 1.136.232.755.755 0 0 1-.45 1.07.75.75 0 0 1-.686-1.302ZM106.642 50.918a.75.75 0 1 1 .943 1.166.75.75 0 0 1-.943-1.166ZM116.461 52.586a.748.748 0 0 1 1.135.234.754.754 0 0 1-.087.828.747.747 0 0 1-1.158-.005.735.735 0 0 1-.164-.551.745.745 0 0 1 .274-.506ZM108.596 54.864a.748.748 0 0 1 1.134.233.746.746 0 0 1-.086.829.747.747 0 0 1-1.158-.006.751.751 0 0 1 .11-1.056ZM113.407 56.997a.748.748 0 0 1 1.135.233.754.754 0 0 1-.087.829.747.747 0 0 1-1.158-.006.752.752 0 0 1 .11-1.056ZM121.121 52.666a.747.747 0 0 1 1.135.233.753.753 0 0 1-.45 1.068.75.75 0 0 1-.685-1.301ZM121.743 56.732a.75.75 0 1 1 .944 1.167.75.75 0 0 1-.944-1.167ZM124.494 53.536a.755.755 0 0 1 .83-.076.75.75 0 1 1-.83.076ZM117.056 55.968a.748.748 0 0 1 1.049 1.061.744.744 0 0 1-.799.237.747.747 0 0 1-.521-.794.751.751 0 0 1 .271-.504Z" fill="#81F8BA"/><path d="M126.874 57.65a.75.75 0 1 1 .948 1.165.75.75 0 0 1-.948-1.164ZM118.992 59.928a.748.748 0 0 1 1.219.66.752.752 0 0 1-1.329.393.747.747 0 0 1-.162-.55.746.746 0 0 1 .272-.503ZM123.807 62.061a.748.748 0 0 1 1.217.661.753.753 0 0 1-.967.639.75.75 0 0 1-.25-1.3ZM111.67 60.093a.748.748 0 0 1 1.219.66.746.746 0 0 1-.533.641.75.75 0 0 1-.686-1.3ZM112.303 64.16a.748.748 0 0 1 1.136.232.756.756 0 0 1-.086.83.752.752 0 0 1-1.324-.559.743.743 0 0 1 .274-.503ZM115.047 60.964a.75.75 0 1 1 .951 1.16.75.75 0 0 1-.951-1.16ZM107.605 63.393a.75.75 0 1 1 .944 1.167.75.75 0 0 1-.944-1.167ZM117.42 65.079a.75.75 0 1 1 .948 1.164.75.75 0 0 1-.948-1.164ZM113.534 70.163a.75.75 0 1 1 .951 1.16.75.75 0 0 1-.951-1.16ZM118.431 69.33a.754.754 0 0 1 .829-.075.745.745 0 0 1 .389.737.751.751 0 0 1-1.328.395.75.75 0 0 1-.162-.55.75.75 0 0 1 .272-.506ZM100.895 53.391a.754.754 0 0 1 .83-.076.75.75 0 1 1-.94 1.133.755.755 0 0 1 .11-1.057ZM101.528 57.455a.75.75 0 1 1 .944 1.167.75.75 0 0 1-.944-1.167ZM104.273 54.262a.748.748 0 0 1 1.135.233.754.754 0 0 1-.087.829.747.747 0 0 1-1.32-.557.756.756 0 0 1 .272-.505ZM96.83 56.694a.75.75 0 1 1 .944 1.166.75.75 0 0 1-.944-1.166ZM106.646 58.377a.748.748 0 0 1 1.135.233.754.754 0 0 1-.087.828.747.747 0 0 1-1.158-.005.751.751 0 0 1 .11-1.056ZM105.15 67.315a.747.747 0 0 1 1.134.233.746.746 0 0 1-.086.829.747.747 0 0 1-1.32-.557.757.757 0 0 1 .272-.505ZM103.592 62.787a.748.748 0 0 1 1.135.234.754.754 0 0 1-.087.828.747.747 0 0 1-1.32-.556.756.756 0 0 1 .272-.506ZM120.426 41.398a.748.748 0 0 1 1.219.66.754.754 0 0 1-.533.641.75.75 0 0 1-.686-1.3ZM121.055 45.465a.75.75 0 1 1 .951 1.16.75.75 0 0 1-.951-1.16ZM125.526 40.167a.75.75 0 1 1 .944 1.167.75.75 0 0 1-.944-1.167ZM116.358 44.698a.745.745 0 0 1 .828-.069.747.747 0 0 1 .382.739.748.748 0 0 1-1.463.128.764.764 0 0 1 .063-.573.748.748 0 0 1 .19-.225ZM126.176 46.38a.751.751 0 0 1 1.135.233.751.751 0 0 1-.449 1.068.75.75 0 0 1-.686-1.301ZM118.304 48.657a.75.75 0 1 1 .944 1.168.75.75 0 0 1-.944-1.168ZM123.119 50.794a.748.748 0 0 1 1.136.232c.069.131.098.28.083.428a.755.755 0 0 1-.533.64.751.751 0 0 1-.873-1.076.74.74 0 0 1 .187-.224ZM126.29 65.619a.748.748 0 0 1 1.049 1.06.747.747 0 0 1-1.16-.008.752.752 0 0 1 .111-1.053ZM126.922 69.685a.75.75 0 1 1 .947 1.165.75.75 0 0 1-.947-1.165ZM129.67 66.489a.751.751 0 0 1 1.219.66.746.746 0 0 1-.533.64.75.75 0 0 1-.686-1.3ZM121.269 65.096a.748.748 0 0 1 1.134.233.746.746 0 0 1-.086.829.751.751 0 0 1-1.159-.006.755.755 0 0 1 .111-1.056ZM133.292 64.514a.748.748 0 0 1 1.217.661.753.753 0 0 1-.967.639.75.75 0 0 1-.25-1.3ZM124.175 72.881a.744.744 0 0 1 .829-.08.752.752 0 0 1 .224 1.138.752.752 0 0 1-1.16-.005.75.75 0 0 1 .107-1.053ZM128.989 75a.75.75 0 1 1 .948 1.165.75.75 0 0 1-.948-1.164ZM128.092 49.655a.748.748 0 0 1 1.135.234.754.754 0 0 1-.087.828.747.747 0 0 1-1.158-.006.735.735 0 0 1-.166-.55.748.748 0 0 1 .276-.506ZM133.371 54.059a.748.748 0 0 1 1.049 1.061.747.747 0 0 1-1.159-.008.732.732 0 0 1-.164-.55.742.742 0 0 1 .274-.503ZM138.564 59.268a.748.748 0 0 1 1.135.233.754.754 0 0 1-.087.829.747.747 0 0 1-1.158-.006.735.735 0 0 1-.164-.551.745.745 0 0 1 .274-.505ZM128.673 53.292a.748.748 0 0 1 1.135.233.746.746 0 0 1-.087.829.742.742 0 0 1-.798.237.75.75 0 0 1-.25-1.3ZM134.347 48.685a.75.75 0 1 1 .951 1.16.75.75 0 0 1-.951-1.16ZM130.623 57.255a.747.747 0 0 1 1.136.232.756.756 0 0 1-.086.83.752.752 0 0 1-1.16-.01.752.752 0 0 1 .11-1.052ZM128.676 61.979a.75.75 0 1 1 .948 1.164.75.75 0 0 1-.948-1.164ZM111.151 34.445a.748.748 0 0 1 1.049 1.061.744.744 0 0 1-.799.237.747.747 0 0 1-.521-.794.751.751 0 0 1 .271-.504ZM104.004 40.253a.754.754 0 0 1 .83-.077.75.75 0 1 1-.83.077ZM115.326 39.991a.747.747 0 0 1 .829-.076.752.752 0 0 1 .219 1.138.747.747 0 0 1-1.158-.006.756.756 0 0 1 .11-1.056ZM101.318 49.432a.754.754 0 0 1 .83-.077.749.749 0 1 1-.83.077ZM109.122 41.164a.75.75 0 1 1 .948 1.163.75.75 0 0 1-.948-1.163ZM97.893 45.21a.75.75 0 1 1 .947 1.163.75.75 0 0 1-.947-1.163ZM106.068 45.575a.75.75 0 1 1 .948 1.163.75.75 0 0 1-.948-1.163Z" fill="#81F8BA"/><path d="m130.148 63.892-67.78-.568a.688.688 0 0 1-.623-.403L33.572 1.242a.689.689 0 0 1 1.004-.867l95.947 62.24a.693.693 0 0 1 .292.776.688.688 0 0 1-.667.494v.007Zm-67.337-1.944 64.975.543L35.815 2.825 62.81 61.948Z" fill="#486260"/></g><defs><clipPath id="a"><path fill="#fff" d="M0 0h210v152H0z"/></clipPath></defs></svg>