<svg width="375" height="329" viewBox="0 0 375 329" fill="none" xmlns="http://www.w3.org/2000/svg">
  <path d="M359.749 250.902C351.972 249.625 335.973 238.131 321.364 225.082L333.418 200.316C345.75 207.923 355.749 215.364 355.749 215.364L359.749 250.902Z" fill="#9BBCB6"/>
  <path d="M307.143 104.086C307.143 104.086 309.81 91.5919 334.696 89.1487C353.861 87.2607 368.803 92.2027 374.081 108.25C378.691 122.243 378.913 134.404 377.414 167.999C377.414 167.999 324.364 159.614 308.199 171.164C308.199 171.164 313.698 142.234 306.866 112.026C306.199 108.917 306.477 106.529 307.143 104.086Z" fill="#6F4975"/>
  <path d="M281.534 45.8381C287.145 63.0518 320.419 89.0391 330.751 89.3167C332.973 89.3722 307.976 116.414 307.587 115.248C305.699 109.584 303.921 107.141 300.032 103.032C287.312 89.6499 269.925 71.7143 266.758 55.0003L281.534 45.8381Z" fill="#6F4975"/>
  <path d="M339.196 88.0937C339.196 88.0937 375.692 72.9345 379.913 34.8977C380.191 32.5655 382.358 30.9552 384.635 31.4549L391.857 32.8987C393.19 33.1763 394.134 34.2869 394.19 35.6195C394.467 42.7827 393.912 65.8824 378.025 95.8121C376.414 98.8662 373.136 103.642 375.636 113.47L339.196 88.0937Z" fill="#6F4975"/>
  <path d="M308.254 171.109C308.365 174.44 323.863 175.884 343.028 175.218C362.192 174.607 377.524 171.275 377.413 167.943C377.302 164.612 361.304 159.281 342.139 159.892C322.974 160.558 308.143 167.777 308.254 171.109Z" fill="#2F1A31"/>
  <path d="M341.806 227.47C349.972 210.867 339.306 189.599 341.472 177.883C341.472 177.883 343.028 166.777 348.083 166.999C364.637 167.721 376.524 169.443 376.524 169.443C376.802 169.942 392.578 207.868 371.525 244.961C360.304 264.674 339.417 232.301 341.806 227.47Z" fill="#9BBCB6"/>
  <path d="M305.144 219.863C317.42 206.036 306.477 184.158 311.588 173.441C311.588 173.441 317.976 167.61 338.418 165.889C365.36 163.612 376.525 169.443 376.525 169.443C376.636 169.998 361.749 207.48 335.752 237.021C333.585 239.464 331.474 242.296 329.197 244.573C313.087 260.62 301.589 223.861 305.144 219.863Z" fill="#9BBCB6"/>
  <path d="M334.529 84.6501L335.029 78.2088L335.195 76.3208L336.028 65.2707L338.806 75.4324L340.472 81.5405L341.028 83.484C341.361 84.8167 342.25 86.2049 343.472 87.1489C343.972 87.5376 347.194 88.426 344.583 90.3695C341.361 92.8128 334.084 91.9243 330.751 89.37C330.751 89.3145 334.362 86.7046 334.529 84.6501Z" fill="#F7B686"/>
  <path d="M343.306 59.4965C343.306 59.4965 344.528 61.8287 344.583 65.1049C344.639 68.3811 339.695 61.44 339.695 61.44L343.306 59.4965Z" fill="#56335B"/>
  <path d="M340.319 79.8707C345.177 78.0604 347.343 71.8407 345.157 65.9787C342.971 60.1167 337.261 56.8322 332.402 58.6425C327.544 60.4529 325.378 66.6725 327.564 72.5345C329.75 78.3966 335.461 81.6811 340.319 79.8707Z" fill="#F7B686"/>
  <path d="M326.585 69.3794L330.918 67.8801C331.863 67.5469 332.64 66.8251 332.974 65.8811C333.529 64.2708 334.473 63.2713 338.64 62.4939C343.917 61.4944 346.694 57.5519 346.583 54.6644C346.528 51.7214 343.417 50.4443 341.084 52.3878C338.751 54.3313 339.14 50.7774 336.529 51.0551C331.64 51.4993 331.585 55.3307 327.696 56.1081C322.586 57.1076 314.364 63.1047 320.753 71.0452L326.585 69.3794Z" fill="#2F1A31"/>
  <path d="M336.751 68.6582C336.806 68.6026 336.806 68.5471 336.806 68.4915C336.806 68.3804 336.695 68.3249 336.584 68.3249C336.528 68.3249 335.084 68.3804 334.695 70.0469C334.695 70.158 334.751 70.2691 334.862 70.2691C334.973 70.2691 335.029 70.2136 335.084 70.1025C335.529 69.1581 336.584 68.6582 336.64 68.6582C336.695 68.6582 336.695 68.6582 336.751 68.6582Z" fill="#060633"/>
  <path d="M336.474 71.2132C336.696 71.6021 337.085 71.8243 337.418 71.6576C337.696 71.491 337.751 71.0466 337.529 70.6577C337.307 70.2689 336.918 70.0467 336.585 70.2133C336.307 70.3244 336.251 70.8244 336.474 71.2132Z" fill="#060633"/>
  <path d="M343.473 66.4926C343.528 66.4926 343.528 66.437 343.528 66.3814C343.528 66.2704 343.473 66.1593 343.417 66.1593C343.362 66.1593 342.251 65.5482 341.584 66.8259C341.528 66.8814 341.584 66.9925 341.64 67.1036C341.695 67.1592 341.806 67.1592 341.862 67.1036C342.417 66.4926 343.362 66.5481 343.417 66.5481C343.417 66.4926 343.473 66.4926 343.473 66.4926Z" fill="#060633"/>
  <path d="M342.25 68.77C342.306 69.2144 342.584 69.5477 342.917 69.5477C343.25 69.4921 343.472 69.1033 343.417 68.6589C343.361 68.2145 343.083 67.8812 342.75 67.8812C342.417 67.9368 342.195 68.3256 342.25 68.77Z" fill="#060633"/>
  <path d="M320.753 71.0458C320.753 71.0458 325.363 76.9319 329.807 76.4321C329.807 76.4321 325.141 72.2119 331.807 67.4365C331.863 67.4365 324.808 67.9362 320.753 71.0458Z" fill="#56335B"/>
  <path d="M327.752 73.2673C328.807 73.6562 329.974 73.1563 330.307 72.2119C330.64 71.2676 330.029 70.1566 328.974 69.8233C327.918 69.4344 326.752 69.9344 326.419 70.8787C326.085 71.8231 326.696 72.8785 327.752 73.2673Z" fill="#F7B686"/>
  <path d="M343.583 72.8234C343.583 72.8234 340.916 74.2677 337.695 74.6566C337.695 74.6566 338.806 77.434 341.861 76.1564C343.638 75.4343 343.583 72.8234 343.583 72.8234Z" fill="white"/>
  <path d="M340.028 52.1676C339.028 52.1676 338.695 51.2788 338.695 51.2788L338.917 51.2233C338.917 51.2788 339.25 52.2232 340.472 51.8899L340.528 52.1121C340.361 52.1121 340.139 52.1676 340.028 52.1676Z" fill="#2F1A31"/>
  <path d="M339.806 60.6628L339.751 60.5518C339.806 60.4962 345.028 57.6087 344.584 54.6657C344.472 53.8327 344.195 53.333 343.806 53.1109C343.139 52.7777 342.195 53.2219 341.362 53.6662C341.251 53.7217 341.084 53.7772 340.973 53.8327L340.917 53.7217C341.028 53.6662 341.139 53.6106 341.306 53.5551C342.195 53.1109 343.139 52.6666 343.861 52.9998C344.306 53.2219 344.584 53.7772 344.75 54.6657C344.917 55.9428 344.139 57.3311 342.473 58.8304C341.139 59.9409 339.806 60.6628 339.806 60.6628Z" fill="white"/>
  <path d="M276.369 54.4428C271.425 58.3853 267.87 57.0526 266.703 55.0536C265.592 53.0545 268.092 49.5007 272.258 47.1685C276.48 44.8364 280.313 43.8924 281.48 45.8914C282.646 47.8904 280.146 51.4442 276.369 54.4428Z" fill="#2F1A31"/>
  <path d="M282.424 37.6189L281.924 37.3968C280.979 36.9526 279.813 37.3968 279.368 38.3963L278.646 40.0066L275.869 29.3452C275.646 28.4012 274.647 27.5128 273.702 27.4017C272.869 27.2907 272.202 28.0125 272.425 28.7899L274.313 35.9531C274.036 35.9531 273.702 35.9531 273.425 36.0086L270.98 26.7354C270.758 25.958 269.98 25.3472 269.203 25.5137C268.258 25.6803 267.647 26.5688 267.925 27.4572L270.258 36.4528C269.98 36.5083 269.703 36.5639 269.369 36.6194L267.425 29.2897C267.203 28.5123 266.425 27.9015 265.648 28.068C264.703 28.2346 264.092 29.1231 264.37 30.0115L266.314 37.5078C266.036 37.6189 265.759 37.73 265.481 37.841L263.87 31.6218C263.648 30.7889 262.759 30.2892 261.926 30.5113C261.092 30.7334 260.593 31.6218 260.815 32.4548L263.426 42.5054C264.092 46.2258 266.536 49.6685 267.981 51.3344C268.647 52.1673 269.703 52.556 270.758 52.4449C272.647 52.2228 275.869 51.3344 279.146 48.0582C279.591 47.614 279.924 47.1697 280.146 46.6145L283.312 40.2287C283.812 39.1737 283.368 38.0076 282.424 37.6189Z" fill="#F7B686"/>
  <path d="M134.606 62.7749C139.217 56.1115 141.605 47.2825 141.605 36.4545C141.605 28.2918 140.272 21.9061 140.216 21.6284L125.274 24.5159L132.773 23.0722L125.274 24.5159C126.44 30.0132 128.051 46.1164 121.441 54.6677C118.441 58.5547 113.886 60.6093 107.609 60.8869L108.609 76.0461C119.33 75.5464 127.996 71.4373 133.662 64.052C133.995 63.6633 134.328 63.2191 134.606 62.7749Z" fill="#EAA97D"/>
  <path d="M137.884 16.6305C138.717 16.464 139.328 15.631 139.162 14.7981L137.051 2.8596C136.884 2.02668 136.051 1.41587 135.218 1.58246C134.384 1.74904 133.773 2.58196 133.94 3.41488L136.051 15.3534C136.217 16.1863 137.051 16.7416 137.884 16.6305Z" fill="#EAA97D"/>
  <path d="M133.94 17.2966C134.773 17.13 135.384 16.2971 135.218 15.4642L132.884 2.13737C132.718 1.30445 131.885 0.693633 131.051 0.860218C130.218 1.0268 129.607 1.85973 129.774 2.69265L132.107 16.0194C132.273 16.8524 133.107 17.4632 133.94 17.2966Z" fill="#EAA97D"/>
  <path d="M129.941 18.0187C130.774 17.8522 131.385 17.0192 131.218 16.1863L128.607 1.30466C128.441 0.471728 127.608 -0.139088 126.774 0.0274981C125.941 0.194084 125.33 1.02701 125.497 1.85994L128.108 16.7416C128.274 17.5745 129.107 18.1298 129.941 18.0187Z" fill="#EAA97D"/>
  <path d="M130.218 25.9584L130.607 25.5141C131.329 24.7367 131.218 23.5151 130.44 22.7933L122.719 16.0189C121.941 15.297 120.719 15.4081 119.997 16.1855L119.608 16.6297C118.886 17.4071 118.997 18.6287 119.775 19.3505L127.496 26.1249C128.329 26.7913 129.551 26.7357 130.218 25.9584Z" fill="#EAA97D"/>
  <path d="M125.941 18.6849C126.774 18.5183 127.385 17.6854 127.218 16.8525L125.107 4.91398C124.941 4.08106 124.107 3.47025 123.274 3.63683C122.441 3.80341 121.83 4.63634 121.997 5.46926L124.107 17.4078C124.274 18.2962 125.107 18.8515 125.941 18.6849Z" fill="#EAA97D"/>
  <path d="M140.272 21.6831C140.272 21.6831 139.383 11.9657 137.772 10.4665C136.161 8.9117 124.885 10.9662 124.218 13.3539C123.552 15.7416 125.274 24.5706 125.274 24.5706L140.272 21.6831Z" fill="#EAA97D"/>
  <path d="M133.162 23.9605C133.051 23.9605 132.94 23.8495 132.94 23.7384C132.94 23.6274 132.662 21.5173 130.662 21.0731C128.44 20.5733 125.941 18.963 125.83 18.9075C125.718 18.852 125.718 18.6854 125.774 18.5743C125.83 18.4633 125.996 18.4633 126.107 18.5188C126.107 18.5188 128.663 20.1291 130.774 20.6289C133.107 21.1286 133.44 23.6829 133.44 23.6829C133.44 23.794 133.329 23.905 133.162 23.9605C133.218 23.9605 133.218 23.9605 133.162 23.9605Z" fill="#E08B65"/>
  <path d="M113.053 262.343C113.053 262.343 113.942 267.341 117.552 268.229C121.163 269.118 131.218 268.896 128.051 272.672C126.218 274.837 116.108 275.226 113.275 275.615C110.442 276.059 107.998 277.669 105.665 276.114C103.054 274.393 103.721 263.732 103.721 263.732C103.721 263.732 106.332 264.62 108.498 264.231C111.664 263.732 113.053 262.343 113.053 262.343Z" fill="#2F1A31"/>
  <path d="M74.0015 268.395C74.0015 268.395 74.8903 273.393 78.501 274.281C82.1118 275.17 92.1662 274.947 88.9999 278.723C87.1668 280.889 77.0567 281.278 74.2237 281.666C71.3907 282.111 68.9465 283.721 66.6134 282.166C64.0026 280.445 64.6692 269.783 64.6692 269.783C64.6692 269.783 67.28 270.672 69.4464 270.283C72.6128 269.783 74.0015 268.395 74.0015 268.395Z" fill="#2F1A31"/>
  <path d="M119.496 145.067C120.108 154.84 120.552 167.501 120.385 183.104C120.052 212.979 118.885 243.186 118.274 257.679C118.052 262.843 114.386 267.174 109.386 268.174L106.72 268.673C101.332 269.728 96.2213 265.786 95.7213 260.178L87.7777 164.003L86.0557 146.844C86.0557 146.789 118.441 128.909 119.496 145.067Z" fill="#9BBCB6"/>
  <path d="M57.0586 144.791C58.0029 148.734 72.668 152.898 90.2217 148.734C107.775 144.514 121.496 140.071 120.607 136.129C119.663 132.186 104.498 130.187 86.8887 134.407C69.335 138.516 56.1698 140.793 57.0586 144.791Z" fill="#2F1A31"/>
  <path d="M105.721 140.846L80.001 266.229C79.2234 271.559 75.1682 275.779 69.9466 276.668L67.6691 277.057C62.3363 278.001 57.4479 273.669 57.559 268.117L62.3363 147.01C62.4474 145.621 67.1136 144.233 68.4468 143.9C79.5567 141.29 105.609 135.737 105.721 140.846Z" fill="#9BBCB6"/>
  <path d="M68.4464 76.6558C68.4464 76.6558 74.6124 62.7737 92.666 64.7727C101.165 65.7167 111.275 63.8288 114.386 79.2101C117.163 92.9811 120.941 109.029 120.663 136.071C120.663 136.071 90.9995 129.519 57.1142 144.789C57.0031 143.234 52.6703 103.809 57.6697 81.3757C59.114 74.8789 66.3355 81.0981 68.4464 76.6558Z" fill="#E28569"/>
  <path d="M48.5046 78.8205L65.725 90.759C65.725 90.759 112.164 89.0376 114.775 80.5418C119.108 66.4932 111.553 59.219 111.553 59.219C111.553 59.219 97.6661 62.9949 85.9451 64.3831C83.2787 64.7163 78.2792 65.6047 75.724 66.16C57.5037 69.6583 48.5046 78.8205 48.5046 78.8205Z" fill="#E28569"/>
  <path d="M91.6107 211.034L90.9441 210.979L94.0549 169.777C95.0548 163.724 98.1655 158.394 102.832 154.673L103.221 155.173C98.6655 158.838 95.6102 164.058 94.6659 169.888L91.6107 211.034Z" fill="#020202"/>
  <path d="M48.5043 78.8235C47.3933 80.4893 48.5043 85.3758 54.2815 88.8741C60.0586 92.3724 64.447 93.1498 65.7802 90.762C66.7245 88.9296 64.2248 82.6549 58.7254 79.4343C53.0038 76.0471 49.282 77.6019 48.5043 78.8235Z" fill="#2F1A31"/>
  <path d="M69.1128 143.79C69.1128 143.79 92.6658 136.017 117.108 137.571C118.219 137.627 119.107 138.515 119.218 139.681L119.774 148.621L94.1101 146.289L69.1128 143.79Z" fill="#9BBCB6"/>
  <path d="M25.8401 163.059C24.9513 163.115 24.3403 163.892 24.3958 164.781L25.5068 178.219C25.5624 179.107 26.3401 179.718 27.2288 179.662C28.1176 179.607 28.7287 178.829 28.6731 177.941L27.5621 164.503C27.451 163.67 26.7289 163.004 25.8401 163.059Z" fill="#F7B686"/>
  <path d="M29.895 162.727C29.0062 162.782 28.3952 163.56 28.4508 164.448L29.6728 179.441C29.7284 180.329 30.5061 180.94 31.3949 180.885C32.2837 180.829 32.8947 180.052 32.8391 179.163L31.6171 164.171C31.506 163.338 30.7283 162.671 29.895 162.727Z" fill="#F7B686"/>
  <path d="M30.3395 154.841L29.9507 155.23C29.173 155.952 29.1731 157.174 29.8397 157.951L36.8389 165.392C37.561 166.169 38.7831 166.169 39.5608 165.503L39.9496 165.114C40.7273 164.392 40.7273 163.171 40.0607 162.393L33.0615 154.952C32.2838 154.175 31.0617 154.12 30.3395 154.841Z" fill="#F7B686"/>
  <path d="M33.8953 162.448C33.0065 162.503 32.3955 163.281 32.451 164.169L33.4509 176.219C33.5065 177.107 34.2842 177.718 35.1729 177.662C36.0617 177.607 36.6728 176.829 36.6172 175.941L35.6173 163.891C35.5062 163.003 34.7841 162.337 33.8953 162.448Z" fill="#F7B686"/>
  <path d="M22.5073 155.674C22.5073 155.674 18.5633 163.781 21.3963 169.556C22.3962 171.555 34.1728 170.278 35.1171 167.946C36.0615 165.614 34.5616 157.562 34.5616 157.562L22.5073 155.674Z" fill="#F7B686"/>
  <path d="M21.8404 163.392C20.9516 163.447 20.3405 164.225 20.3961 165.113L21.3959 177.107C21.4515 177.996 22.2292 178.607 23.118 178.551C24.0068 178.496 24.6179 177.718 24.5623 176.83L23.5624 164.836C23.4513 163.947 22.7292 163.336 21.8404 163.392Z" fill="#F7B686"/>
  <path d="M36.8391 158.895C40.1721 141.626 61.5586 94.4267 63.3362 92.0945C64.725 90.2065 61.5031 83.321 58.2812 80.8222C55.2815 78.5456 51.0598 78.5456 48.9489 80.4891C47.3379 81.9328 46.1159 83.7652 43.3384 88.5962C33.7838 105.421 26.8957 127.632 22.0073 156.729L36.8391 158.895Z" fill="#F7B686"/>
  <g opacity="0.5">
    <path opacity="0.5" d="M36.2282 122.801C36.0615 122.801 35.8949 122.801 35.6727 122.746C35.1172 122.579 34.6172 122.19 34.284 121.635C33.7285 120.691 33.6729 119.303 34.0617 117.97C34.7283 115.694 36.4504 114.25 38.0057 114.694C38.5612 114.861 39.0612 115.249 39.3945 115.805C39.95 116.749 40.0055 118.137 39.6167 119.469C39.0612 121.413 37.6169 122.801 36.2282 122.801ZM34.7838 118.192C34.4505 119.358 34.5061 120.469 34.9505 121.246C35.1172 121.524 35.3949 121.857 35.8393 122.024C36.9503 122.301 38.339 121.024 38.839 119.247C39.1723 118.081 39.1167 116.971 38.6723 116.193C38.5057 115.916 38.2279 115.582 37.7835 115.416C36.6725 115.138 35.3393 116.36 34.7838 118.192Z" fill="#E08B65"/>
  </g>
  <path d="M79.0007 65.4401C81.9449 68.8828 89.1107 71.104 92.9992 69.1605C96.3322 67.4946 93.1659 63.219 93.1659 63.219C91.5549 63.1634 90.6661 62.386 90.555 60.7757L90.3884 58.7767L90.3328 57.7772L90.055 54.6676L89.8329 51.8357L88.8885 40.2858L85.8333 52.0578L85.3333 54.0568L83.5558 60.9423C82.9447 63.1634 81.2227 64.8293 79.0007 65.4401Z" fill="#F7B686"/>
  <path d="M85.2778 54.0565C85.2778 54.0565 87.2221 57.445 90.2773 57.7783L89.9995 54.6676C88.1109 54.2787 85.2778 54.0565 85.2778 54.0565Z" fill="#2F1A31"/>
  <path d="M75.6125 40.4538C75.6125 40.4538 76.3347 42.2862 75.8903 46.2842C75.1682 52.1702 82.0007 53.5029 83.3895 51.6149C83.5561 51.3928 81.8341 41.842 81.8341 41.842L79.6122 40.9535L75.6125 40.4538Z" fill="#436E8E"/>
  <path d="M91.7464 55.2838C97.6886 54.3617 101.586 47.6935 100.452 40.3898C99.3178 33.0862 93.5813 27.9129 87.6391 28.835C81.697 29.757 77.7993 36.4253 78.9335 43.7289C80.0677 51.0325 85.8042 56.2058 91.7464 55.2838Z" fill="#F7B686"/>
  <path d="M92.3328 31.2354C92.1106 31.6797 94.8325 38.232 82.5005 41.8413C70.1129 45.4507 75.3346 28.9588 84.6114 27.1263C97.9989 24.5165 101.332 33.29 100.554 36.7327C99.7209 40.1755 92.3328 31.2354 92.3328 31.2354Z" fill="#436E8E"/>
  <path d="M83.5004 39.4513C83.5004 39.4513 79.1675 45.6705 81.8339 50.9457C81.8339 50.9457 78.3342 48.1693 78.0565 46.9477C77.7787 45.726 77.8899 41.2282 77.8899 41.2282L83.5004 39.4513Z" fill="#436E8E"/>
  <path d="M80.668 45.5054C82.0567 46.5049 83.7787 46.3383 84.5009 45.1722C85.223 44.0061 84.6675 42.2847 83.2788 41.3408C81.8901 40.3413 80.168 40.5078 79.4459 41.6739C78.7237 42.7845 79.2793 44.5059 80.668 45.5054Z" fill="#F7B686"/>
  <path d="M90.7218 42.0071C90.7774 41.9515 90.8329 41.896 90.8884 41.8404C90.944 41.7294 90.8329 41.5627 90.7218 41.5627C90.6663 41.5627 88.8887 40.9516 87.6666 42.7848C87.6111 42.8959 87.6111 43.0625 87.7222 43.1181C87.8333 43.1736 87.9443 43.1736 88.0554 43.0625C89.0553 42.1182 90.4996 42.0626 90.6107 42.0626C90.6107 42.0626 90.6663 42.0626 90.7218 42.0071Z" fill="#060633"/>
  <path d="M89.1672 45.005C89.2228 45.6161 89.6672 46.0049 90.056 45.9494C90.4449 45.8938 90.7782 45.3939 90.6671 44.7828C90.556 44.1718 90.1671 43.7829 89.7783 43.8385C89.3894 43.894 89.1117 44.394 89.1672 45.005Z" fill="#060633"/>
  <path d="M99.61 41.9501C99.6655 41.9501 99.7766 41.8946 99.8322 41.839C99.8877 41.7279 99.8877 41.5613 99.7766 41.5057C99.721 41.4502 98.2768 40.228 96.4992 41.4502C96.3881 41.5057 96.3325 41.6724 96.4436 41.7835C96.4991 41.8946 96.6659 41.8946 96.777 41.839C98.0546 41.3391 99.4433 41.839 99.4988 41.8946C99.4988 41.9501 99.5544 41.9501 99.61 41.9501Z" fill="#060633"/>
  <path d="M97.055 44.118C96.8884 44.6735 97.1105 45.229 97.4994 45.3401C97.8882 45.4512 98.3882 45.0623 98.5548 44.5068C98.7215 43.9513 98.4993 43.3958 98.1104 43.2847C97.7216 43.1736 97.2217 43.5625 97.055 44.118Z" fill="#060633"/>
  <path d="M94.2215 51.447C93.4438 51.447 92.555 51.2247 91.6662 50.5026C91.6106 50.447 91.6106 50.3915 91.6662 50.336C91.7217 50.2804 91.7773 50.2804 91.8329 50.336C94.1104 52.2247 96.7212 50.5026 96.7212 50.4471C96.7767 50.3915 96.8323 50.447 96.8879 50.5026C96.9434 50.5581 96.8879 50.6137 96.8323 50.6693C96.8323 50.6693 95.6657 51.447 94.2215 51.447Z" fill="#020202"/>
  <path d="M91.5555 51.0017C91.4999 51.0017 91.4443 50.9462 91.4443 50.8906C91.4443 50.5573 91.611 50.1685 91.9443 49.7796C91.9999 49.7241 92.0554 49.7241 92.111 49.7241C92.1665 49.7796 92.1665 49.8352 92.1665 49.8907C92.1665 49.8907 92.1665 49.8907 92.1665 49.9463C91.7777 50.3907 91.7221 50.6684 91.7221 50.8906C91.6665 50.9462 91.611 51.0017 91.5555 51.0017Z" fill="#020202"/>
  <path d="M77.945 50.3905C77.945 50.3905 69.2792 53.6112 69.7792 59.6637C70.2791 65.7719 72.5012 67.2156 67.6128 72.2687C62.6689 77.3217 75.3897 78.3768 76.834 82.2082C78.2783 86.0397 82.0002 93.9802 89.2772 91.4259C96.4986 88.8716 97.1652 80.709 91.8324 76.1001C86.4997 71.4913 84.722 69.7144 85.3331 66.2161C85.9441 62.7178 80.9447 62.6067 80.778 59.6637C80.6114 56.7207 83.3889 52.223 81.889 50.9458C80.3892 49.6687 77.945 50.3905 77.945 50.3905Z" fill="#436E8E"/>
  <path d="M109.109 89.3168C109.109 89.3168 116.886 87.2068 117.497 80.8766C118.108 74.5463 112.275 74.6019 111.331 69.4933C110.386 64.3292 110.664 59.1651 105.165 58.5543C99.6653 57.9434 99.1654 53.5567 97.4433 54.112C95.7768 54.6673 92.2216 57.2771 95.2769 60.1646C98.3321 63.052 99.8875 66.2171 98.4988 71.1036C97.11 75.9901 103.443 77.9891 105.831 79.7105C108.22 81.3208 105.387 89.5945 109.109 89.3168Z" fill="#436E8E"/>
  <path d="M68.1687 196.652C69.0575 196.819 69.6684 197.652 69.5018 198.54L66.9465 212.311C66.7799 213.2 65.9466 213.81 65.0578 213.644C64.169 213.477 63.5581 212.644 63.7247 211.756L66.28 197.985C66.4466 197.041 67.2799 196.486 68.1687 196.652Z" fill="#F7B686"/>
  <path d="M64.058 195.875C64.9468 196.042 65.5579 196.874 65.3912 197.763L62.5581 213.144C62.3915 214.033 61.5583 214.643 60.6695 214.477C59.7807 214.31 59.1696 213.477 59.3363 212.589L62.1693 197.208C62.2804 196.319 63.1692 195.708 64.058 195.875Z" fill="#F7B686"/>
  <path d="M64.391 187.656L64.7799 188.1C65.502 188.933 65.391 190.155 64.6133 190.876L56.6141 197.817C55.7809 198.539 54.5588 198.428 53.8366 197.651L53.4478 197.207C52.7257 196.374 52.8367 195.152 53.6144 194.43L61.6136 187.489C62.4468 186.767 63.6689 186.823 64.391 187.656Z" fill="#F7B686"/>
  <path d="M59.9478 195.098C60.8366 195.265 61.4476 196.097 61.281 196.986L59.0035 209.313C58.8368 210.202 58.0036 210.812 57.1148 210.646C56.226 210.479 55.6149 209.646 55.7816 208.758L58.0591 196.431C58.1702 195.542 59.059 194.931 59.9478 195.098Z" fill="#F7B686"/>
  <path d="M72.3906 189.323C72.3906 189.323 75.6125 198.096 72.0573 203.76C70.8352 205.704 58.7809 203.149 58.0587 200.651C57.3921 198.152 59.7252 189.989 59.7252 189.989L72.3906 189.323Z" fill="#F7B686"/>
  <path d="M72.2786 197.373C73.1674 197.54 73.7785 198.373 73.6118 199.261L71.3343 211.589C71.1676 212.477 70.3344 213.088 69.4456 212.921C68.5568 212.755 67.9457 211.922 68.1124 211.033L70.39 198.706C70.5011 197.818 71.3898 197.207 72.2786 197.373Z" fill="#F7B686"/>
  <path d="M57.2811 191.157C55.6146 172.944 51.8372 146.957 43.1715 126.356C41.1717 121.58 40.3385 119.803 38.7275 117.193C37.4499 115.083 39.7274 110.474 43.2826 108.309C46.6155 106.254 42.7826 100.979 43.9491 101.534C48.3931 103.478 54.7258 106.921 57.0589 112.196C65.1692 130.576 70.8352 160.006 72.7794 190.602L57.2811 191.157Z" fill="#96A7E2"/>
  <path d="M61.3363 165.168C61.3363 165.168 62.0029 187.268 54.9481 229.636C49.8376 260.232 43.8382 291.05 40.894 305.821C39.8386 311.096 35.3947 314.983 30.1175 315.205L27.2844 315.316C21.5628 315.538 16.9522 310.652 17.3966 304.821L24.5625 204.815L26.3401 171.887L61.3363 165.168Z" fill="#6F4975"/>
  <path d="M-3.21247 184.603C-2.87917 187.269 12.3414 186.991 30.9505 184.603C49.5597 182.271 64.0581 178.218 63.7248 175.552C63.3915 172.887 48.3931 172.554 29.7839 174.886C11.1748 177.218 -3.54577 181.882 -3.21247 184.603Z" fill="#2F1A31"/>
  <path d="M39.949 180.938L4.67502 308.153C3.00853 313.484 -6.32379 317.593 -11.7676 317.704L-14.1563 317.759C-19.8224 317.87 -24.0997 312.651 -23.0998 306.987L-1.3799 187.046C-1.0466 185.602 0.00885169 184.492 1.34204 184.103C8.84124 181.882 40.6712 175.663 39.949 180.938Z" fill="#6F4975"/>
  <path d="M3.00904 111.084C3.00904 111.084 8.28627 96.2029 27.1176 96.8692C45.9489 97.5356 60.1696 122.301 63.7248 175.497C63.7248 175.497 32.8947 168.723 -3.26809 184.493C-3.26809 184.548 -18.0443 134.184 3.00904 111.084Z" fill="#96A7E2"/>
  <path d="M-13.1555 105.031L3.12047 118.746C3.12047 118.746 37.4502 122.189 46.5603 120.523C55.6704 118.858 57.0592 112.194 57.0592 112.194C57.0592 112.194 48.3934 100.311 31.8952 97.3681C30.3398 97.0904 28.7844 97.0349 27.1179 96.9239C24.3405 96.7017 22.4518 96.9794 19.6743 96.9794C-5.93408 96.7573 -13.1555 105.031 -13.1555 105.031Z" fill="#96A7E2"/>
  <path d="M40.1168 93.7043L40.0057 93.2601C40.0057 93.2601 42.3943 92.7048 43.0609 91.0945C43.3942 90.2616 43.2276 89.3176 42.561 88.2625C42.2277 87.7628 41.9499 87.263 41.6722 86.8188C39.7835 83.8203 39.0614 82.7097 39.6169 80.2109L40.0612 80.322C39.5613 82.6542 40.2279 83.6537 42.0611 86.5967C42.3388 87.0409 42.6165 87.4851 42.9498 88.0404C43.672 89.2621 43.8942 90.3171 43.4498 91.3166C42.6721 93.038 40.2279 93.6488 40.1168 93.7043Z" fill="#2F1A31"/>
  <path d="M39.783 80.2658C39.783 80.2658 38.9497 84.0417 41.4495 87.9841C43.9492 91.9266 41.2273 94.8141 37.8387 93.3148C34.4502 91.8156 33.1726 96.0912 28.8397 93.7035C24.5069 91.3158 39.783 80.2658 39.783 80.2658Z" fill="#2F1A31"/>
  <path d="M19.729 96.979C21.6177 96.7568 23.2286 95.5908 23.9508 93.8694L26.2839 88.4276L26.9505 86.8729L30.9501 77.5997L30.2834 87.206L29.8946 92.9809L29.7835 94.6468C29.6724 95.9794 30.6167 97.1455 31.9499 97.4232C32.6721 98.5893 33.6164 100.921 30.7279 101.865C27.2838 102.865 21.7288 100.144 19.729 96.979Z" fill="#F7B686"/>
  <path d="M26.3398 88.2616C26.3398 88.3172 26.3398 88.3727 26.3398 88.4282C26.562 91.5378 29.895 92.9815 29.895 92.9815L30.2838 87.2066C29.2839 86.8179 27.8396 86.4292 27.0064 86.8734C26.562 87.0955 26.2843 87.4842 26.3398 88.2616Z" fill="#DD9666"/>
  <path d="M31.4499 90.2613C36.42 90.2613 40.449 85.2891 40.449 79.1556C40.449 73.0221 36.42 68.05 31.4499 68.05C26.4799 68.05 22.4509 73.0221 22.4509 79.1556C22.4509 85.2891 26.4799 90.2613 31.4499 90.2613Z" fill="#F7B686"/>
  <path d="M23.6185 80.8241C24.6184 81.8242 26.0628 81.8798 26.7849 81.0464C27.507 80.213 27.2848 78.7128 26.2849 77.7127C25.285 76.7126 23.8407 76.6571 23.1186 77.4905C22.3964 78.3795 22.6186 79.824 23.6185 80.8241Z" fill="#F7B686"/>
  <path d="M36.2827 86.3185C36.2827 86.3185 33.2275 86.374 30.1168 85.3186C30.1168 85.3186 29.839 88.3738 33.172 88.5404C35.1162 88.6515 36.2827 86.3185 36.2827 86.3185Z" fill="#DB6B49"/>
  <path d="M36.2837 86.3193C36.2837 86.3193 35.5615 86.9304 33.7839 86.9304C32.0619 86.9304 30.1177 85.3195 30.1177 85.3195C30.1177 85.3195 33.8395 86.3193 36.2837 86.3193Z" fill="white"/>
  <path d="M31.3958 79.1579C31.4513 79.1579 31.5069 79.1024 31.5069 79.0468C31.5624 78.9357 31.5069 78.8246 31.3958 78.7691C31.3402 78.7691 29.9515 78.0469 28.7294 79.3801C28.6739 79.4912 28.6739 79.6023 28.7294 79.6579C28.785 79.7134 28.9516 79.7134 29.0072 79.6579C29.9515 79.0468 31.1736 79.1579 31.2291 79.1579C31.2847 79.1579 31.3402 79.1579 31.3958 79.1579Z" fill="#060633"/>
  <path d="M39.5615 80.2102C39.617 80.2102 39.6725 80.2102 39.7281 80.1547C39.8392 80.0991 39.8392 79.9325 39.7281 79.8769C39.6725 79.8214 38.7838 78.5992 37.1173 79.2103C37.0062 79.2658 36.9506 79.3769 37.0062 79.488C37.0617 79.5991 37.1728 79.5991 37.2839 79.5991C38.3949 79.4325 39.4503 80.0991 39.4503 80.1547C39.5059 80.1547 39.5059 80.2102 39.5615 80.2102Z" fill="#060633"/>
  <path d="M35.2275 70.049C35.2275 70.049 35.0608 73.8805 30.228 74.5468C25.3952 75.2132 22.0622 77.2677 22.7288 80.7105C23.3954 84.1532 31.1168 91.3718 25.4508 94.1483C19.7292 96.9247 20.9512 91.7606 14.7852 92.9266C8.61921 94.1483 7.50821 85.8746 11.73 81.0991C16.0073 76.3237 14.2853 63.6078 30.228 64.1631C46.1708 64.7183 40.338 77.4898 40.338 77.4898C40.338 77.4898 35.2275 74.3247 35.2275 70.049Z" fill="#2F1A31"/>
  <path d="M23.8402 94.8692L23.7847 94.7581C24.9512 94.2584 25.6733 93.592 25.8955 92.7036C26.5621 90.2048 23.5625 86.3179 20.9517 82.8752C20.2295 81.9867 19.5629 81.0983 19.0074 80.2653C17.3965 77.9887 17.2298 75.2678 18.6185 73.1578C20.1739 70.8256 23.1181 69.8261 26.3399 70.6035C32.2837 71.9917 34.7279 68.3824 34.7835 68.3824L34.8946 68.4379C34.8946 68.4934 32.3393 72.1028 26.3399 70.7146C23.1736 69.9927 20.2851 70.9367 18.7297 73.2133C17.3409 75.3234 17.452 77.8777 19.1185 80.1543C19.7295 80.9872 20.3406 81.8201 21.0627 82.7086C23.7291 86.1513 26.7288 90.0383 26.0622 92.6481C25.7289 93.6476 25.0068 94.3694 23.8402 94.8692Z" fill="white"/>
  <path d="M39.0049 87.5962C38.5049 87.5962 38.0605 87.4852 37.6161 87.2075C35.6719 85.9859 34.9497 82.3766 36.0052 79.1004C36.6162 77.1014 37.8383 75.6021 39.1715 75.1024C40.0047 74.8247 40.7825 74.8803 41.5046 75.3245C43.4488 76.5461 44.1709 80.1554 43.1155 83.4316C42.5044 85.4306 41.2824 86.9299 39.9492 87.4296C39.6159 87.5407 39.2826 87.5962 39.0049 87.5962ZM36.3385 79.2115C35.3386 82.321 36.0052 85.7083 37.7827 86.8744C38.3938 87.2631 39.0604 87.3186 39.7825 87.041C41.0046 86.5967 42.1156 85.2085 42.7267 83.3205C43.7266 80.211 43.06 76.7682 41.2824 75.6577C40.6713 75.269 40.0048 75.2134 39.2826 75.4911C38.0605 75.9353 36.9495 77.3235 36.3385 79.2115Z" fill="#6F4975"/>
  <g opacity="0.3">
    <path opacity="0.3" d="M25.5624 76.9895C24.8402 80.1547 26.0067 83.5419 28.1176 84.5969C30.2841 85.6519 32.6172 83.875 33.3393 80.7099C34.0614 77.5448 32.8949 74.1576 30.784 73.1026C28.6176 72.0475 26.2845 73.7689 25.5624 76.9895Z" fill="white"/>
  </g>
  <g opacity="0.3">
    <path opacity="0.3" d="M43.1019 81.4502C43.2196 78.0788 41.6497 75.2877 39.5954 75.216C37.5411 75.1444 35.7804 77.8193 35.6628 81.1907C35.5451 84.5621 37.115 87.3533 39.1693 87.4249C41.2236 87.4966 42.9843 84.8216 43.1019 81.4502Z" fill="white"/>
  </g>
  <path d="M29.6727 84.9852C29.1728 84.9852 28.7284 84.8742 28.2285 84.6521C25.8398 83.5415 24.5622 79.8766 25.3398 76.4894C25.7842 74.5459 26.8397 72.9911 28.2285 72.3248C29.1728 71.8805 30.2282 71.8805 31.1726 72.3248C33.5612 73.4353 34.8389 77.1002 34.0612 80.4874C33.6168 82.4864 32.5613 83.9857 31.1726 84.6521C30.6726 84.8742 30.1727 84.9852 29.6727 84.9852ZM29.7283 72.3803C29.2839 72.3803 28.8395 72.4913 28.3951 72.7135C27.1174 73.3243 26.1176 74.768 25.7287 76.6004C25.0066 79.8211 26.1731 83.2639 28.3951 84.3189C29.2283 84.7076 30.1172 84.7076 30.9504 84.3189C32.2281 83.7081 33.2279 82.2643 33.6168 80.4319C34.3389 77.2113 33.1724 73.7685 30.9504 72.7135C30.6171 72.4358 30.1727 72.3803 29.7283 72.3803Z" fill="#6F4975"/>
  <path d="M36.3387 80.5439C36.2276 80.5439 36.1721 80.4884 36.1165 80.4329C36.061 80.3773 35.1167 79.6552 33.4502 79.9329C33.228 79.9885 33.0613 79.8218 33.0058 79.6552C32.9502 79.433 33.1169 79.2663 33.2835 79.2108C35.2833 78.7664 36.5609 79.8218 36.6165 79.8218C36.7831 79.9329 36.7831 80.2107 36.672 80.3218C36.5609 80.4884 36.4498 80.5439 36.3387 80.5439Z" fill="#6F4975"/>
  <path d="M36.617 82.4317C36.5615 82.4317 36.5059 82.4317 36.4504 82.3761C36.3948 82.3206 36.3948 82.1539 36.4504 82.0984C36.5059 82.0428 37.5614 80.9874 39.0612 81.8206C39.1723 81.8762 39.1723 81.9873 39.1168 82.0984C39.0612 82.2095 38.9501 82.2095 38.839 82.1539C37.7836 81.8762 36.7281 82.3206 36.6726 82.3761C36.7281 82.4317 36.6726 82.4317 36.617 82.4317Z" fill="#060633"/>
  <path d="M31.672 81.9878C31.7275 81.9878 31.7831 81.9878 31.8387 81.9323C31.8942 81.8767 31.8942 81.7101 31.8387 81.6545C31.7831 81.599 30.7276 80.5436 29.2278 81.3768C29.1167 81.4324 29.1167 81.5435 29.1722 81.6545C29.2278 81.7656 29.3389 81.7656 29.45 81.7101C30.5054 81.4324 31.5609 81.8767 31.6164 81.9323C31.5609 81.9323 31.6164 81.9323 31.672 81.9878Z" fill="#060633"/>
  <path d="M1.84257 172.165L6.84203 161.115C7.50863 159.616 6.9531 157.783 5.56436 157.006C-1.54599 152.952 -5.65666 148.066 -6.65655 142.513C-8.04529 134.795 -1.71261 126.799 2.12031 121.024C4.06455 118.081 2.28692 114.416 -0.768306 110.806C-2.04595 109.307 -3.32353 108.252 -7.37865 106.586C-9.37844 105.753 -11.9338 103.643 -13.0448 105.087C-14.7668 107.308 -17.7109 110.917 -20.0995 115.36C-25.8211 125.91 -25.6545 136.516 -23.988 145.9C-21.9327 157.395 -14.6557 166.723 -2.21258 173.664C-0.823842 174.442 1.06487 173.775 1.84257 172.165Z" fill="#96A7E2"/>
  <path d="M11.7861 181.66C11.7861 181.66 48.9488 174.553 61.0031 177.885L55.2259 186.436L33.7282 187.657L11.7861 181.66Z" fill="#6F4975"/>
  <path d="M158.66 76.2109C158.66 76.2109 160.327 82.9298 151.772 85.9284C143.218 88.9269 145.773 93.5912 147.939 95.979C150.106 98.3667 137.551 94.9794 128.219 106.474C118.887 117.913 136.496 124.965 145.106 122.41C153.716 119.856 185.88 107.307 187.102 104.53C188.324 101.754 189.49 94.4797 184.935 94.2576C176.714 93.8134 185.491 86.1505 179.88 84.1515C174.27 82.0969 158.66 76.2109 158.66 76.2109Z" fill="#E28569"/>
  <path d="M217.653 98.5329C222.264 91.8695 224.652 83.0405 224.652 72.2125C224.652 64.0498 223.319 57.6641 223.264 57.3865L208.321 60.2739L215.82 58.8302L208.321 60.2739C209.487 65.7712 211.098 81.8744 204.488 90.4258C201.488 94.3127 196.933 96.3673 190.656 96.6449L191.656 111.804C202.377 111.304 211.043 107.195 216.709 99.81C217.042 99.4213 217.32 98.9771 217.653 98.5329Z" fill="#EAA97D"/>
  <path d="M220.931 52.3895C221.764 52.2229 222.375 51.39 222.208 50.5571L220.098 38.6184C219.931 37.7855 219.098 37.1747 218.264 37.3413C217.431 37.5078 216.82 38.3408 216.987 39.1737L219.098 51.1123C219.264 51.9453 220.098 52.5006 220.931 52.3895Z" fill="#EAA97D"/>
  <path d="M216.986 53.0556C217.819 52.889 218.431 52.0561 218.264 51.2232L215.931 37.8963C215.764 37.0634 214.931 36.4525 214.098 36.6191C213.264 36.7857 212.653 37.6187 212.82 38.4516L215.153 51.7785C215.264 52.6114 216.097 53.2222 216.986 53.0556Z" fill="#EAA97D"/>
  <path d="M212.987 53.7767C213.82 53.6101 214.431 52.7772 214.265 51.9443L211.654 37.0627C211.487 36.2298 210.654 35.6189 209.821 35.7855C208.988 35.9521 208.376 36.785 208.543 37.618L211.154 52.4995C211.265 53.3325 212.098 53.9433 212.987 53.7767Z" fill="#EAA97D"/>
  <path d="M213.265 61.7182L213.654 61.2739C214.376 60.4965 214.265 59.2749 213.487 58.5531L205.766 51.7787C204.988 51.0568 203.766 51.1679 203.044 51.9452L202.655 52.3895C201.933 53.1669 202.044 54.3885 202.822 55.1103L210.543 61.8847C211.376 62.5511 212.543 62.4955 213.265 61.7182Z" fill="#EAA97D"/>
  <path d="M208.987 54.4995C209.82 54.3329 210.431 53.5 210.265 52.6671L208.154 40.7286C207.987 39.8957 207.154 39.2848 206.321 39.4514C205.488 39.618 204.876 40.4509 205.043 41.2839L207.154 53.2224C207.265 54.0553 208.098 54.6106 208.987 54.4995Z" fill="#EAA97D"/>
  <path d="M223.264 57.442C223.264 57.442 222.375 47.7246 220.764 46.2254C219.153 44.6706 207.877 46.7251 207.21 49.1128C206.544 51.5005 208.266 60.3295 208.266 60.3295L223.264 57.442Z" fill="#EAA97D"/>
  <path d="M216.21 59.7195C216.098 59.7195 215.987 59.6084 215.987 59.4973C215.987 59.3863 215.71 57.2762 213.71 56.832C211.488 56.3322 208.988 54.7219 208.877 54.6663C208.766 54.6108 208.766 54.4442 208.821 54.3332C208.877 54.2221 209.044 54.2221 209.155 54.2777C209.155 54.2777 211.71 55.888 213.821 56.3877C216.154 56.8875 216.487 59.4418 216.487 59.4418C216.432 59.5529 216.376 59.6639 216.21 59.7195Z" fill="#E08B65"/>
  <path d="M196.1 298.102C196.1 298.102 196.989 303.099 200.6 303.987C204.21 304.876 214.265 304.654 211.098 308.43C209.265 310.595 199.155 310.984 196.322 311.373C193.489 311.817 191.045 313.427 188.712 311.873C186.101 310.151 186.768 299.49 186.768 299.49C186.768 299.49 189.379 300.378 191.545 299.989C194.711 299.49 196.1 298.102 196.1 298.102Z" fill="#2F1A31"/>
  <path d="M157.049 304.154C157.049 304.154 157.938 309.152 161.548 310.04C165.159 310.929 175.214 310.706 172.047 314.482C170.214 316.648 160.104 317.037 157.271 317.425C154.438 317.87 151.994 319.48 149.661 317.925C147.05 316.204 147.717 305.542 147.717 305.542C147.717 305.542 150.327 306.431 152.494 306.042C155.66 305.542 157.049 304.154 157.049 304.154Z" fill="#2F1A31"/>
  <path d="M202.488 180.827C203.099 190.6 203.543 203.261 203.377 218.864C203.043 248.738 201.877 278.946 201.266 293.439C201.044 298.603 197.377 302.934 192.378 303.933L189.712 304.433C184.323 305.488 179.213 301.546 178.713 295.937L170.769 199.762L169.047 182.604C169.103 182.549 201.488 164.669 202.488 180.827Z" fill="#9BBCB6"/>
  <path d="M140.106 180.549C141.051 184.492 155.716 188.656 173.269 184.492C190.823 180.272 204.544 175.829 203.655 171.887C202.711 167.944 187.546 165.945 169.936 170.165C152.383 174.33 139.162 176.551 140.106 180.549Z" fill="#2F1A31"/>
  <path d="M188.712 176.661L162.993 302.043C162.215 307.374 158.16 311.594 152.939 312.483L150.661 312.871C145.328 313.815 140.44 309.484 140.551 303.931L145.328 182.824C145.439 181.436 150.105 180.048 151.439 179.715C162.604 177.049 188.657 171.497 188.712 176.661Z" fill="#9BBCB6"/>
  <path d="M151.438 112.416C151.438 112.416 157.604 98.5336 175.658 100.533C184.157 101.477 194.267 99.5887 197.378 114.97C200.155 128.741 203.932 144.789 203.655 171.831C203.655 171.831 173.991 165.279 140.106 180.549C139.995 178.994 135.662 139.569 140.661 117.136C142.161 110.639 149.383 116.858 151.438 112.416Z" fill="#96A7E2"/>
  <path d="M131.496 114.579L148.716 126.518C148.716 126.518 195.156 124.796 197.767 116.301C202.1 102.252 194.545 94.9779 194.545 94.9779C194.545 94.9779 180.657 98.7538 168.936 100.142C166.27 100.475 161.271 101.364 158.715 101.919C140.551 105.417 131.496 114.579 131.496 114.579Z" fill="#96A7E2"/>
  <path d="M174.658 246.794L173.991 246.738L177.102 205.536C178.102 199.483 181.213 194.153 185.879 190.432L186.268 190.932C181.713 194.597 178.657 199.817 177.713 205.647L174.658 246.794Z" fill="#020202"/>
  <path d="M131.496 114.582C130.385 116.247 131.496 121.134 137.273 124.632C143.05 128.13 147.439 128.908 148.772 126.52C149.716 124.688 147.216 118.413 141.717 115.192C136.051 111.805 132.274 113.36 131.496 114.582Z" fill="#2F1A31"/>
  <path d="M152.161 179.604C152.161 179.604 175.714 171.83 200.155 173.385C201.266 173.441 202.155 174.329 202.266 175.495L202.822 184.435L177.158 182.103L152.161 179.604Z" fill="#9BBCB6"/>
  <path d="M108.888 198.816C107.999 198.871 107.388 199.649 107.443 200.537L108.554 213.975C108.61 214.863 109.388 215.474 110.276 215.419C111.165 215.363 111.776 214.586 111.721 213.697L110.61 200.259C110.499 199.426 109.721 198.76 108.888 198.816Z" fill="#F7B686"/>
  <path d="M112.887 198.539C111.998 198.594 111.387 199.372 111.443 200.26L112.665 215.253C112.72 216.141 113.498 216.752 114.387 216.697C115.276 216.641 115.887 215.864 115.831 214.975L114.609 199.983C114.554 199.094 113.776 198.428 112.887 198.539Z" fill="#F7B686"/>
  <path d="M113.332 190.597L112.943 190.985C112.165 191.707 112.165 192.929 112.832 193.706L119.831 201.147C120.553 201.925 121.775 201.925 122.553 201.258L122.942 200.87C123.719 200.148 123.719 198.926 123.053 198.149L116.053 190.708C115.331 189.93 114.109 189.875 113.332 190.597Z" fill="#F7B686"/>
  <path d="M116.943 198.205C116.054 198.26 115.443 199.038 115.499 199.926L116.499 211.976C116.554 212.864 117.332 213.475 118.221 213.42C119.109 213.364 119.72 212.587 119.665 211.698L118.665 199.649C118.554 198.76 117.776 198.094 116.943 198.205Z" fill="#F7B686"/>
  <path d="M105.499 191.43C105.499 191.43 101.555 199.537 104.388 205.312C105.388 207.311 117.164 206.034 118.109 203.702C119.053 201.37 117.553 193.318 117.553 193.318L105.499 191.43Z" fill="#F7B686"/>
  <path d="M104.888 199.15C103.999 199.205 103.388 199.983 103.443 200.871L104.443 212.865C104.499 213.754 105.277 214.364 106.165 214.309C107.054 214.253 107.665 213.476 107.61 212.588L106.61 200.593C106.499 199.761 105.721 199.094 104.888 199.15Z" fill="#F7B686"/>
  <path d="M119.831 194.651C123.164 177.382 144.55 130.183 146.328 127.851C147.717 125.963 144.495 119.077 141.273 116.578C138.273 114.302 134.051 114.302 131.941 116.245C130.33 117.689 129.108 119.521 126.33 124.352C116.776 141.177 109.887 163.389 104.999 192.485L119.831 194.651Z" fill="#F7B686"/>
  <g opacity="0.5">
    <path opacity="0.5" d="M119.275 158.557C119.108 158.557 118.942 158.557 118.72 158.502C118.164 158.335 117.664 157.947 117.331 157.391C116.775 156.447 116.72 155.059 117.109 153.726C117.775 151.45 119.497 150.006 121.053 150.45C121.608 150.617 122.108 151.006 122.441 151.561C122.997 152.505 123.052 153.893 122.664 155.226C122.053 157.169 120.664 158.557 119.275 158.557ZM120.497 151.117C119.442 151.117 118.275 152.283 117.831 153.949C117.497 155.115 117.553 156.225 117.997 157.003C118.164 157.28 118.442 157.613 118.886 157.78C119.997 158.058 121.386 156.781 121.886 155.004C122.219 153.838 122.164 152.727 121.719 151.95C121.553 151.672 121.275 151.339 120.83 151.172C120.719 151.117 120.608 151.117 120.497 151.117Z" fill="#E08B65"/>
  </g>
  <path d="M162.049 101.198C164.993 104.641 172.159 106.862 176.047 104.919C179.38 103.253 176.214 98.977 176.214 98.977C174.603 98.9215 173.714 98.1441 173.603 96.5338L173.436 94.5348L173.381 93.5353L173.103 90.4257L172.881 87.5937L171.936 76.0438L168.881 87.8158L168.381 89.8149L166.604 96.7004C165.993 98.9215 164.271 100.587 162.049 101.198Z" fill="#F7B686"/>
  <path d="M168.325 89.8154C168.325 89.8154 170.269 93.2039 173.324 93.5372L173.047 90.4265C171.158 90.0376 168.325 89.8154 168.325 89.8154Z" fill="#2F1A31"/>
  <path d="M158.66 76.2109C158.66 76.2109 159.382 78.0434 158.937 82.0414C158.215 87.9274 165.048 89.2601 166.437 87.3722C166.603 87.15 164.881 77.5991 164.881 77.5991L162.659 76.7107L158.66 76.2109Z" fill="#E28569"/>
  <path d="M174.741 91.056C180.683 90.134 184.58 83.4657 183.446 76.162C182.312 68.8584 176.575 63.6851 170.633 64.6071C164.691 65.5292 160.793 72.1975 161.928 79.5011C163.062 86.8048 168.798 91.9781 174.741 91.056Z" fill="#F7B686"/>
  <path d="M175.325 66.9926C175.103 67.4368 177.824 73.9891 165.492 77.5984C153.105 81.2077 158.327 64.716 167.603 62.8835C180.991 60.2737 184.324 69.0471 183.546 72.4899C182.713 75.9326 175.325 66.9926 175.325 66.9926Z" fill="#E28569"/>
  <path d="M166.548 75.2102C166.548 75.2102 162.216 81.4294 164.882 86.7046C164.882 86.7046 161.382 83.9282 161.105 82.7065C160.827 81.4849 160.938 76.9871 160.938 76.9871L166.548 75.2102Z" fill="#E28569"/>
  <path d="M163.659 81.2643C165.047 82.2638 166.769 82.0972 167.492 80.9311C168.214 79.7651 167.658 78.0437 166.27 77.0997C164.881 76.1002 163.159 76.2668 162.437 77.4329C161.77 78.5434 162.27 80.2648 163.659 81.2643Z" fill="#F7B686"/>
  <path d="M173.713 77.7643C173.769 77.7087 173.824 77.6532 173.88 77.5976C173.935 77.4865 173.824 77.3199 173.713 77.3199C173.657 77.3199 171.88 76.7088 170.658 78.542C170.602 78.6531 170.602 78.8197 170.713 78.8753C170.824 78.9308 170.936 78.9308 171.047 78.8197C172.047 77.8754 173.491 77.8198 173.602 77.8198C173.602 77.8198 173.657 77.8198 173.713 77.7643Z" fill="#060633"/>
  <path d="M172.213 80.7648C172.269 81.3759 172.713 81.7647 173.102 81.7092C173.491 81.6536 173.824 81.1537 173.713 80.5426C173.658 79.9316 173.213 79.5427 172.824 79.5983C172.436 79.6538 172.158 80.1538 172.213 80.7648Z" fill="#060633"/>
  <path d="M182.657 77.7099C182.713 77.7099 182.824 77.6543 182.879 77.5988C182.935 77.4877 182.935 77.321 182.824 77.2655C182.768 77.2099 181.324 75.9878 179.546 77.2099C179.435 77.2655 179.38 77.4321 179.491 77.5432C179.546 77.6543 179.713 77.6543 179.824 77.5988C181.102 77.0988 182.49 77.5988 182.546 77.6543C182.546 77.7099 182.602 77.7099 182.657 77.7099Z" fill="#060633"/>
  <path d="M180.101 79.876C179.935 80.4315 180.157 80.9869 180.546 81.098C180.935 81.2091 181.435 80.8203 181.601 80.2648C181.768 79.7093 181.546 79.1538 181.157 79.0427C180.712 78.9316 180.268 79.3205 180.101 79.876Z" fill="#060633"/>
  <g opacity="0.3">
    <path opacity="0.3" d="M172.1 85.9171C174.427 85.7733 176.143 82.9024 175.933 79.5047C175.723 76.1071 173.666 73.4694 171.339 73.6132C169.012 73.757 167.295 76.6279 167.505 80.0255C167.716 83.4232 169.772 86.0609 172.1 85.9171Z" fill="white"/>
  </g>
  <g opacity="0.3">
    <path opacity="0.3" d="M178.602 78.4298C178.491 81.7059 180.047 84.9266 182.102 85.6484C184.157 86.3703 185.879 84.3157 186.046 81.0396C186.157 77.7634 184.602 74.5428 182.546 73.8209C180.491 73.0991 178.713 75.1536 178.602 78.4298Z" fill="white"/>
  </g>
  <path d="M167.382 80.4854C167.382 80.652 167.437 80.8186 167.493 80.9851C167.826 82.5955 168.604 83.9837 169.604 84.9276C169.993 85.3163 170.437 85.594 170.937 85.7606C171.381 85.9272 171.881 86.0382 172.326 85.9827C172.437 85.9827 172.604 85.9827 172.715 85.9272C173.103 85.8716 173.548 85.705 173.937 85.4829C174.881 84.9276 175.659 83.9281 176.159 82.7065C176.381 82.2068 176.492 81.6515 176.603 81.0407C176.714 80.4298 176.714 79.819 176.714 79.2082C176.714 78.9306 176.659 78.7085 176.659 78.4308C176.381 76.1542 175.27 74.1551 173.659 73.2667C173.492 73.1556 173.27 73.0446 173.048 72.989C172.048 72.6003 170.993 72.7114 170.048 73.2667C168.882 73.933 167.993 75.2657 167.549 76.9871C167.493 77.2092 167.437 77.4868 167.382 77.709C167.382 77.8755 167.326 77.9866 167.326 78.1532C167.271 78.5974 167.271 79.0416 167.271 79.4859C167.271 79.819 167.326 80.1522 167.382 80.4854ZM174.714 84.2613C174.381 84.65 174.048 84.9277 173.659 85.1498C173.326 85.3719 172.992 85.4829 172.604 85.5385C172.104 85.6495 171.548 85.594 170.993 85.3719C170.493 85.2053 170.048 84.8721 169.604 84.4834C168.604 83.5394 167.937 82.0402 167.66 80.3743C167.604 80.0967 167.604 79.8746 167.604 79.5969C167.604 79.3748 167.604 79.0972 167.604 78.8751C167.604 78.4864 167.66 78.1532 167.715 77.7645C167.771 77.4313 167.826 77.0982 167.937 76.765C167.993 76.5984 168.048 76.4318 168.104 76.2652C168.104 76.2652 168.104 76.2652 168.104 76.2097V76.1542C168.215 75.821 168.382 75.4878 168.548 75.2102C168.937 74.4883 169.493 73.933 170.104 73.5443C170.548 73.2667 171.048 73.1556 171.493 73.1001C171.881 73.1001 172.326 73.1556 172.715 73.3222C172.881 73.3777 173.048 73.4333 173.159 73.5443C174.659 74.3772 175.77 76.3207 176.048 78.5419C176.103 78.8195 176.103 79.0416 176.103 79.3193C176.103 79.8746 176.103 80.4299 175.992 80.9851C175.881 81.5404 175.77 82.0957 175.548 82.5955C175.437 83.2063 175.159 83.8171 174.714 84.2613Z" fill="#2F1A31"/>
  <path d="M177.213 87.2058C176.436 87.2058 175.547 86.9836 174.658 86.2615C174.603 86.2059 174.603 86.1504 174.658 86.0948C174.714 86.0393 174.769 86.0393 174.825 86.0948C177.047 87.9835 179.602 86.317 179.713 86.2059C179.769 86.1504 179.824 86.2059 179.88 86.2615C179.935 86.317 179.88 86.3726 179.824 86.4281C179.88 86.4281 178.713 87.2058 177.213 87.2058Z" fill="#020202"/>
  <path d="M174.547 86.7606C174.492 86.7606 174.436 86.705 174.436 86.6495C174.436 86.3162 174.603 85.9274 174.936 85.5385C174.992 85.483 175.047 85.483 175.103 85.483C175.158 85.5385 175.158 85.5941 175.158 85.6496V85.7052C174.77 86.1496 174.714 86.4273 174.714 86.6495C174.714 86.705 174.659 86.7606 174.547 86.7606Z" fill="#020202"/>
  <path d="M147.383 95.091C146.605 94.8134 145.161 91.8704 145.327 89.205C145.494 87.2615 146.549 84.7628 150.66 84.1519C158.437 82.9303 158.715 76.6556 158.715 76.378H159.381C159.381 76.4335 159.104 83.4856 150.771 84.8183C147.938 85.2625 146.383 86.6507 146.049 88.8719C145.661 91.4262 147.105 94.2026 147.549 94.4247L147.383 95.091Z" fill="#E28569"/>
  <path d="M178.713 80.3205C178.768 80.487 178.768 80.6536 178.824 80.8202C178.879 80.9868 178.879 81.1534 178.935 81.32C178.935 81.431 178.99 81.5421 179.046 81.6531V81.7087C179.102 81.8197 179.102 81.8753 179.157 81.9863C178.935 81.1534 178.768 80.2649 178.768 79.321C178.768 79.321 178.713 79.2654 178.602 79.2654C178.602 79.432 178.602 79.5986 178.657 79.7652C178.657 79.9873 178.713 80.1539 178.713 80.3205ZM178.713 80.3205C178.768 80.487 178.768 80.6536 178.824 80.8202C178.879 80.9868 178.879 81.1534 178.935 81.32C178.935 81.431 178.99 81.5421 179.046 81.6531V81.7087C179.102 81.8197 179.102 81.8753 179.157 81.9863C178.935 81.1534 178.768 80.2649 178.768 79.321C178.768 79.321 178.713 79.2654 178.602 79.2654C178.602 79.432 178.602 79.5986 178.657 79.7652C178.657 79.9873 178.713 80.1539 178.713 80.3205ZM178.713 80.3205C178.768 80.487 178.768 80.6536 178.824 80.8202C178.879 80.9868 178.879 81.1534 178.935 81.32C178.935 81.431 178.99 81.5421 179.046 81.6531V81.7087C179.102 81.8197 179.102 81.8753 179.157 81.9863C178.935 81.1534 178.768 80.2649 178.768 79.321C178.768 79.321 178.713 79.2654 178.602 79.2654C178.602 79.432 178.602 79.5986 178.657 79.7652C178.657 79.9873 178.713 80.1539 178.713 80.3205ZM178.713 80.3205C178.768 80.487 178.768 80.6536 178.824 80.8202C178.879 80.9868 178.879 81.1534 178.935 81.32C178.935 81.431 178.99 81.5421 179.046 81.6531V81.7087C179.102 81.8197 179.102 81.8753 179.157 81.9863C178.935 81.1534 178.768 80.2649 178.768 79.321C178.768 79.321 178.713 79.2654 178.602 79.2654C178.602 79.432 178.602 79.5986 178.657 79.7652C178.657 79.9873 178.713 80.1539 178.713 80.3205ZM178.713 80.3205C178.768 80.487 178.768 80.6536 178.824 80.8202C178.879 80.9868 178.879 81.1534 178.935 81.32C178.935 81.431 178.99 81.5421 179.046 81.6531V81.7087C179.102 81.8197 179.102 81.8753 179.157 81.9863C178.935 81.1534 178.768 80.2649 178.768 79.321C178.768 79.321 178.713 79.2654 178.602 79.2654C178.602 79.432 178.602 79.5986 178.657 79.7652C178.657 79.9873 178.713 80.1539 178.713 80.3205ZM178.713 80.3205C178.768 80.487 178.768 80.6536 178.824 80.8202C178.879 80.9868 178.879 81.1534 178.935 81.32C178.935 81.431 178.99 81.5421 179.046 81.6531V81.7087C179.102 81.8197 179.102 81.8753 179.157 81.9863C178.935 81.1534 178.768 80.2649 178.768 79.321C178.768 79.321 178.713 79.2654 178.602 79.2654C178.602 79.432 178.602 79.5986 178.657 79.7652C178.657 79.9873 178.713 80.1539 178.713 80.3205ZM178.713 80.3205C178.768 80.487 178.768 80.6536 178.824 80.8202C178.879 80.9868 178.879 81.1534 178.935 81.32C178.935 81.431 178.99 81.5421 179.046 81.6531V81.7087C179.102 81.8197 179.102 81.8753 179.157 81.9863C178.935 81.1534 178.768 80.2649 178.768 79.321C178.768 79.321 178.713 79.2654 178.602 79.2654C178.602 79.432 178.602 79.5986 178.657 79.7652C178.657 79.9873 178.713 80.1539 178.713 80.3205ZM178.713 80.3205C178.768 80.487 178.768 80.6536 178.824 80.8202C178.879 80.9868 178.879 81.1534 178.935 81.32C178.935 81.431 178.99 81.5421 179.046 81.6531V81.7087C179.102 81.8197 179.102 81.8753 179.157 81.9863C178.935 81.1534 178.768 80.2649 178.768 79.321C178.768 79.321 178.713 79.2654 178.602 79.2654C178.602 79.432 178.602 79.5986 178.657 79.7652C178.657 79.9873 178.713 80.1539 178.713 80.3205ZM178.491 80.8757C178.657 82.0418 179.046 83.1524 179.602 84.0409C180.157 84.9293 180.824 85.5957 181.601 85.8733C181.657 85.8733 181.712 85.9288 181.768 85.9288C182.157 86.0399 182.601 86.0954 182.99 86.0399C183.323 85.9843 183.657 85.8733 183.99 85.6512C185.268 84.8738 186.156 83.1524 186.434 81.0423C186.878 77.544 185.434 74.0458 183.268 73.2128C183.212 73.2128 183.157 73.1573 183.101 73.1573C182.934 73.1018 182.712 73.0462 182.546 73.0462C182.268 72.9907 182.046 73.0462 181.768 73.1018C181.435 73.1573 181.157 73.2684 180.824 73.4349C179.546 74.2123 178.657 75.9337 178.379 78.0438C178.379 78.1548 178.324 78.3214 178.324 78.4325C178.324 78.7101 178.268 78.9322 178.268 79.2099C178.379 79.7652 178.379 80.3205 178.491 80.8757ZM179.157 82.0418C178.935 81.2089 178.768 80.3205 178.768 79.3765C178.768 79.0988 178.768 78.8212 178.824 78.5435C178.824 78.377 178.879 78.2104 178.879 78.0438C178.99 77.0443 179.268 76.1558 179.657 75.3784C180.046 74.6566 180.49 74.1013 181.046 73.7681L181.101 73.7126C181.379 73.546 181.657 73.4349 181.935 73.3794C182.212 73.3239 182.435 73.3239 182.712 73.3794C182.823 73.3794 182.99 73.4349 183.101 73.4905C185.101 74.2679 186.434 77.5996 185.99 80.8757V80.9313C185.712 82.9303 184.879 84.4851 183.768 85.1514C183.212 85.4846 182.546 85.5957 181.935 85.3735C181.879 85.3735 181.768 85.318 181.712 85.318C181.657 85.318 181.601 85.2625 181.546 85.2625H181.49C181.046 85.0404 180.601 84.6517 180.213 84.1519C179.768 83.5966 179.435 82.8748 179.157 82.0418C179.157 82.0974 179.157 82.0974 179.157 82.0418ZM178.713 80.3205C178.768 80.487 178.768 80.6536 178.824 80.8202C178.879 80.9868 178.879 81.1534 178.935 81.32C178.935 81.431 178.99 81.5421 179.046 81.6531V81.7087C179.102 81.8197 179.102 81.8753 179.157 81.9863C178.935 81.1534 178.768 80.2649 178.768 79.321C178.768 79.321 178.713 79.2654 178.602 79.2654C178.602 79.432 178.602 79.5986 178.657 79.7652C178.657 79.9873 178.713 80.1539 178.713 80.3205ZM178.713 80.3205C178.768 80.487 178.768 80.6536 178.824 80.8202C178.879 80.9868 178.879 81.1534 178.935 81.32C178.935 81.431 178.99 81.5421 179.046 81.6531V81.7087C179.102 81.8197 179.102 81.8753 179.157 81.9863C178.935 81.1534 178.768 80.2649 178.768 79.321C178.768 79.321 178.713 79.2654 178.602 79.2654C178.602 79.432 178.602 79.5986 178.657 79.7652C178.657 79.9873 178.713 80.1539 178.713 80.3205ZM178.713 80.3205C178.768 80.487 178.768 80.6536 178.824 80.8202C178.879 80.9868 178.879 81.1534 178.935 81.32C178.935 81.431 178.99 81.5421 179.046 81.6531V81.7087C179.102 81.8197 179.102 81.8753 179.157 81.9863C178.935 81.1534 178.768 80.2649 178.768 79.321C178.768 79.321 178.713 79.2654 178.602 79.2654C178.602 79.432 178.602 79.5986 178.657 79.7652C178.657 79.9873 178.713 80.1539 178.713 80.3205ZM178.713 80.3205C178.768 80.487 178.768 80.6536 178.824 80.8202C178.879 80.9868 178.879 81.1534 178.935 81.32C178.935 81.431 178.99 81.5421 179.046 81.6531V81.7087C179.102 81.8197 179.102 81.8753 179.157 81.9863C178.935 81.1534 178.768 80.2649 178.768 79.321C178.768 79.321 178.713 79.2654 178.602 79.2654C178.602 79.432 178.602 79.5986 178.657 79.7652C178.657 79.9873 178.713 80.1539 178.713 80.3205ZM178.713 80.3205C178.768 80.487 178.768 80.6536 178.824 80.8202C178.879 80.9868 178.879 81.1534 178.935 81.32C178.935 81.431 178.99 81.5421 179.046 81.6531V81.7087C179.102 81.8197 179.102 81.8753 179.157 81.9863C178.935 81.1534 178.768 80.2649 178.768 79.321C178.768 79.321 178.713 79.2654 178.602 79.2654C178.602 79.432 178.602 79.5986 178.657 79.7652C178.657 79.9873 178.713 80.1539 178.713 80.3205ZM178.713 80.3205C178.768 80.487 178.768 80.6536 178.824 80.8202C178.879 80.9868 178.879 81.1534 178.935 81.32C178.935 81.431 178.99 81.5421 179.046 81.6531V81.7087C179.102 81.8197 179.102 81.8753 179.157 81.9863C178.935 81.1534 178.768 80.2649 178.768 79.321C178.768 79.321 178.713 79.2654 178.602 79.2654C178.602 79.432 178.602 79.5986 178.657 79.7652C178.657 79.9873 178.713 80.1539 178.713 80.3205ZM178.713 80.3205C178.768 80.487 178.768 80.6536 178.824 80.8202C178.879 80.9868 178.879 81.1534 178.935 81.32C178.935 81.431 178.99 81.5421 179.046 81.6531V81.7087C179.102 81.8197 179.102 81.8753 179.157 81.9863C178.935 81.1534 178.768 80.2649 178.768 79.321C178.768 79.321 178.713 79.2654 178.602 79.2654C178.602 79.432 178.602 79.5986 178.657 79.7652C178.657 79.9873 178.713 80.1539 178.713 80.3205Z" fill="#2F1A31"/>
  <path d="M179.047 79.4334C179.158 79.4334 179.269 79.3223 179.325 79.2668C179.436 79.1001 179.38 78.8224 179.158 78.7668C179.102 78.7113 177.714 77.9891 175.714 78.7668C175.492 78.8224 175.436 79.0446 175.492 79.2668C175.547 79.489 175.769 79.5445 175.992 79.489C177.603 78.8224 178.769 79.4334 178.769 79.489C178.88 79.4334 178.991 79.4334 179.047 79.4334Z" fill="#2F1A31"/>
  <path d="M298.645 201.761C299.534 201.927 300.145 202.76 299.978 203.649L297.423 217.42C297.256 218.308 296.423 218.919 295.534 218.752C294.645 218.586 294.034 217.753 294.201 216.864L296.756 203.093C296.923 202.149 297.756 201.594 298.645 201.761Z" fill="#F7B686"/>
  <path d="M294.534 200.982C295.423 201.148 296.034 201.981 295.867 202.87L293.034 218.251C292.868 219.139 292.035 219.75 291.146 219.584C290.257 219.417 289.646 218.584 289.813 217.696L292.646 202.314C292.757 201.426 293.645 200.815 294.534 200.982Z" fill="#F7B686"/>
  <path d="M294.866 192.764L295.255 193.209C295.977 194.041 295.866 195.263 295.089 195.985L287.089 202.982C286.256 203.703 285.034 203.592 284.312 202.815L283.923 202.371C283.201 201.538 283.312 200.316 284.09 199.594L292.089 192.598C292.922 191.876 294.2 191.931 294.866 192.764Z" fill="#F7B686"/>
  <path d="M290.424 200.206C291.312 200.372 291.923 201.205 291.757 202.094L289.479 214.421C289.313 215.309 288.479 215.92 287.591 215.754C286.702 215.587 286.091 214.754 286.257 213.866L288.535 201.538C288.646 200.65 289.535 200.039 290.424 200.206Z" fill="#F7B686"/>
  <path d="M302.922 194.429C302.922 194.429 306.144 203.202 302.589 208.866C301.367 210.81 289.257 208.255 288.59 205.756C287.924 203.258 290.257 195.095 290.257 195.095L302.922 194.429Z" fill="#F7B686"/>
  <path d="M302.755 202.481C303.644 202.648 304.255 203.481 304.089 204.369L301.811 216.696C301.644 217.585 300.811 218.195 299.922 218.029C299.034 217.862 298.423 217.029 298.589 216.141L300.867 203.814C301.033 202.925 301.867 202.314 302.755 202.481Z" fill="#F7B686"/>
  <path d="M287.758 196.263C286.091 178.05 282.314 152.063 273.648 131.462C271.648 126.687 270.815 124.91 269.204 122.3C267.926 120.19 270.204 115.581 273.759 113.415C277.092 111.361 282.314 111.694 283.147 112.693C284.536 114.415 286.036 117.747 288.369 123.022C296.479 141.402 301.312 165.112 303.256 195.708L287.758 196.263Z" fill="#F7B686"/>
  <path d="M265.26 314.928C265.26 314.928 265.371 320.203 268.982 321.703C272.537 323.202 282.925 324.535 279.036 327.922C276.814 329.865 266.371 328.588 263.427 328.588C260.482 328.588 257.705 329.865 255.483 327.922C253.094 325.756 255.483 314.928 255.483 314.928C255.483 314.928 258.038 316.261 260.316 316.205C263.593 316.094 265.26 314.928 265.26 314.928Z" fill="#2F1A31"/>
  <path d="M224.208 314.928C224.208 314.928 224.319 320.203 227.93 321.703C231.485 323.202 241.873 324.535 237.984 327.922C235.762 329.865 225.319 328.588 222.375 328.588C219.431 328.588 216.653 329.865 214.431 327.922C212.043 325.756 214.431 314.928 214.431 314.928C214.431 314.928 216.987 316.261 219.264 316.205C222.542 316.094 224.208 314.928 224.208 314.928Z" fill="#2F1A31"/>
  <path d="M291.812 170.221C291.812 170.221 291.534 194.542 289.59 237.465C288.034 271.116 288.368 302.322 285.423 317.093C284.368 322.368 245.317 319.703 245.761 313.872L254.982 209.923L256.76 176.995L291.812 170.221Z" fill="#96A7E2"/>
  <path d="M227.263 189.711C227.596 192.376 242.817 192.099 261.426 189.711C280.035 187.379 294.533 183.325 294.2 180.66C293.867 177.995 278.868 177.661 260.204 179.994C241.65 182.326 226.93 186.99 227.263 189.711Z" fill="#2F1A31"/>
  <path d="M270.426 186.047L235.763 317.093C234.097 322.424 201.211 321.702 202.267 316.038L229.153 192.099C229.486 190.656 230.542 189.545 231.875 189.156C239.318 186.991 271.148 180.772 270.426 186.047Z" fill="#96A7E2"/>
  <path d="M233.485 116.191C233.485 116.191 238.762 101.31 257.593 101.976C276.425 102.642 290.645 127.408 294.2 180.604C294.2 180.604 263.315 173.829 227.208 189.599C227.208 189.655 225.208 137.847 233.485 116.191Z" fill="#CFD3A3"/>
  <path d="M217.32 110.14L233.596 123.855C233.596 123.855 267.926 127.298 277.036 125.632C286.146 123.966 287.591 117.303 287.591 117.303C287.591 117.303 278.925 105.42 262.427 102.477C260.871 102.199 259.316 102.144 257.649 102.032C254.872 101.81 252.983 102.088 250.206 102.088C224.542 101.81 217.32 110.14 217.32 110.14Z" fill="#CFD3A3"/>
  <path d="M250.595 262.174L249.928 262.007L260.538 216.918C262.538 210.866 266.593 205.868 271.981 202.814L272.315 203.369C267.038 206.368 263.094 211.255 261.205 217.085L250.595 262.174Z" fill="#020202"/>
  <path d="M250.206 102.032C252.094 101.81 253.705 100.644 254.427 98.9221L256.76 93.4804L257.427 91.9256L261.427 82.6524L260.76 92.2588L260.371 98.0337L260.26 99.6995C260.149 101.032 261.093 102.198 262.426 102.476C263.149 103.642 264.093 105.974 261.204 106.918C257.76 107.973 252.205 105.252 250.206 102.032Z" fill="#F7B686"/>
  <path d="M256.816 93.3692C256.816 93.4247 256.816 93.4802 256.816 93.5358C257.038 96.6454 260.371 98.0891 260.371 98.0891L260.76 92.3141C259.76 91.9254 258.316 91.5367 257.483 91.981C257.038 92.1476 256.761 92.5918 256.816 93.3692Z" fill="#2F1A31"/>
  <path d="M261.927 95.3132C266.897 95.3132 270.926 90.341 270.926 84.2076C270.926 78.0741 266.897 73.1019 261.927 73.1019C256.957 73.1019 252.928 78.0741 252.928 84.2076C252.928 90.341 256.957 95.3132 261.927 95.3132Z" fill="#F7B686"/>
  <path d="M266.76 91.4261C266.76 91.4261 263.704 91.4816 260.594 90.4262C260.594 90.4262 260.316 93.4814 263.649 93.6481C265.593 93.7592 266.76 91.4261 266.76 91.4261Z" fill="white"/>
  <path d="M262.76 84.3186C262.815 84.3186 262.871 84.263 262.871 84.2075C262.926 84.0964 262.871 83.9853 262.76 83.9297C262.704 83.9297 261.316 83.2076 260.093 84.5408C260.038 84.6519 260.038 84.763 260.093 84.8185C260.149 84.8741 260.316 84.8741 260.371 84.8185C261.316 84.2075 262.538 84.3186 262.593 84.3186C262.704 84.3186 262.704 84.3186 262.76 84.3186Z" fill="#060633"/>
  <path d="M261.149 86.5962C261.149 87.0962 261.426 87.485 261.76 87.485C262.093 87.485 262.426 87.0962 262.426 86.5962C262.426 86.0963 262.149 85.7075 261.815 85.7075C261.482 85.7075 261.149 86.0963 261.149 86.5962Z" fill="#060633"/>
  <path d="M270.093 85.3753C270.148 85.3753 270.204 85.3753 270.259 85.3198C270.315 85.2642 270.315 85.0976 270.259 85.042C270.204 84.9865 269.204 83.8199 267.593 84.5976C267.482 84.6532 267.426 84.7643 267.482 84.8754C267.537 84.9865 267.648 84.9865 267.759 84.9865C268.87 84.7643 269.926 85.3198 269.981 85.3753C269.981 85.3753 270.037 85.3753 270.093 85.3753Z" fill="#060633"/>
  <path d="M267.704 86.8733C267.482 87.3177 267.593 87.8177 267.926 87.9288C268.259 88.0954 268.648 87.8177 268.87 87.3732C269.093 86.9288 268.982 86.4288 268.648 86.3177C268.371 86.1511 267.926 86.4288 267.704 86.8733Z" fill="#060633"/>
  <path d="M232.708 163.945C232.708 163.945 237.874 158.392 242.262 158.504C246.706 158.615 252.261 162.057 249.539 162.557C246.762 163.112 243.096 162.779 243.096 162.779C243.096 162.779 250.984 163.779 249.984 165.556C248.928 167.277 242.096 166.333 242.096 166.333C242.096 166.333 251.372 168.276 249.873 169.609C248.373 170.942 241.318 169.387 241.318 169.387C241.318 169.387 249.928 171.553 248.095 173.052C246.317 174.551 241.04 171.219 239.985 172.996C238.929 174.718 234.263 181.326 229.042 179.049L232.708 163.945Z" fill="#F7B686"/>
  <g opacity="0.5">
    <path opacity="0.5" d="M240.04 163.334L239.54 162.723C240.762 161.723 243.039 162.334 243.151 162.39L242.928 163.112C242.428 163.001 240.817 162.723 240.04 163.334Z" fill="#E08B65"/>
  </g>
  <g opacity="0.5">
    <path opacity="0.5" d="M238.318 167L237.929 166.334C239.818 165.278 242.04 165.945 242.151 166L241.929 166.722C241.929 166.667 239.929 166.111 238.318 167Z" fill="#E08B65"/>
  </g>
  <g opacity="0.5">
    <path opacity="0.5" d="M237.874 169.998L237.318 169.443C238.485 168.276 241.096 168.943 241.373 169.054L241.151 169.776C240.485 169.609 238.596 169.276 237.874 169.998Z" fill="#E08B65"/>
  </g>
  <path d="M217.32 110.14C215.932 112.084 218.709 114.749 224.431 118.858C230.097 122.967 232.597 124.411 233.985 122.467C235.374 120.524 233.707 117.192 228.041 113.028C223.875 109.918 218.654 108.141 217.32 110.14Z" fill="#2F1A31"/>
  <path d="M232.264 177.272L237.263 166.222C237.93 164.723 237.374 162.891 235.985 162.113C228.875 158.06 224.764 153.173 223.709 147.62C222.32 139.902 226.653 131.073 230.486 125.298C232.43 122.355 232.653 119.523 229.542 115.914C228.264 114.415 226.986 113.359 222.931 111.694C220.932 110.861 218.987 110.583 217.876 112.027C216.154 114.248 214.877 116.08 212.488 120.523C206.766 131.073 204.656 141.623 206.322 151.008C208.377 162.502 215.71 171.831 228.097 178.772C229.653 179.494 231.541 178.883 232.264 177.272Z" fill="#F7B686"/>
  <path d="M242.262 186.769C242.262 186.769 279.425 179.661 291.479 182.993L285.702 191.544L264.204 192.766L242.262 186.769Z" fill="#96A7E2"/>
  <path d="M267.537 96.0351C266.315 96.0351 265.427 95.5354 265.427 95.4798C265.316 95.4243 265.26 95.2577 265.371 95.1467C265.427 95.0356 265.593 94.9801 265.704 95.0912C265.815 95.1467 268.093 96.4793 270.204 94.4248C272.259 92.3147 270.759 89.9826 270.759 89.9826C270.704 89.8715 270.704 89.7605 270.815 89.6494C270.926 89.5939 271.037 89.5939 271.148 89.7049C271.148 89.7049 272.87 92.3703 270.537 94.7025C269.482 95.7575 268.426 96.0351 267.537 96.0351Z" fill="#E28569"/>
  <path d="M259.148 76.3773C259.482 78.3763 258.982 79.9311 265.148 81.4303C265.148 81.4303 266.148 82.0967 266.203 80.9861C266.259 79.8756 264.703 78.2097 265.537 76.9326C265.537 76.9326 269.981 86.1502 271.48 84.2067C272.98 82.2633 274.925 75.9331 271.48 72.1016C268.036 68.2702 257.315 67.4373 255.538 70.5468C252.871 75.2112 258.871 74.6559 259.148 76.3773Z" fill="#436E8E"/>
  <path d="M255.372 72.7138C255.372 72.7138 258.094 73.3802 257.982 74.6018C257.871 75.8234 259.76 78.1 257.982 78.8774C256.149 79.6548 255.76 80.0991 255.76 81.4317C255.76 82.3757 254.094 84.4302 253.538 86.3182C253.261 87.1511 253.761 88.8725 253.761 88.8725C253.761 88.8725 246.872 86.5403 248.095 78.7109C248.872 73.6023 253.65 71.992 255.372 72.7138Z" fill="#436E8E"/>
  <path d="M253.038 85.8736C254.038 86.8732 255.482 86.9288 256.205 86.0957C256.927 85.2627 256.705 83.7632 255.705 82.7635C254.705 81.7638 253.26 81.7083 252.538 82.5413C251.816 83.4299 252.038 84.9294 253.038 85.8736Z" fill="#F7B686"/>
  <path d="M253.982 93.7009C253.76 93.7009 253.538 93.7008 253.427 93.6453C251.816 93.3677 250.483 92.1461 250.427 90.9244C250.316 88.6478 252.538 86.8153 252.649 86.7598C252.76 86.7043 252.871 86.7043 252.982 86.8153C253.038 86.9264 253.038 87.0374 252.927 87.1485C252.927 87.1485 250.76 88.8699 250.871 90.9244C250.927 91.9239 252.149 92.979 253.482 93.2011C255.038 93.4232 256.315 92.5903 256.982 90.8134C257.482 89.5362 257.482 88.4256 257.038 87.5372C256.26 86.0379 254.482 85.5937 254.427 85.5937C254.316 85.5382 254.205 85.4271 254.26 85.316C254.316 85.205 254.427 85.0939 254.538 85.1495C254.593 85.1495 256.593 85.6492 257.426 87.3151C257.982 88.3146 257.926 89.5917 257.426 90.98C256.482 93.3122 254.982 93.7009 253.982 93.7009Z" fill="#E28569"/>
  <path d="M250.206 72.1025C250.15 72.1025 250.039 72.0469 249.983 71.9914C249.928 71.8803 249.983 71.7136 250.095 71.6581C252.205 70.436 253.928 71.6025 253.983 71.6581C254.094 71.7136 254.094 71.8803 254.039 71.9914C253.983 72.1025 253.816 72.1025 253.705 72.0469C253.65 71.9914 252.15 70.9915 250.317 72.0469C250.261 72.1025 250.206 72.1025 250.206 72.1025Z" fill="#436E8E"/>
  <path d="M254.372 71.2712C254.261 71.2712 254.15 71.1601 254.15 71.049C254.15 70.9935 254.15 69.3826 254.872 68.7716C254.983 68.716 255.094 68.716 255.205 68.8271C255.261 68.9382 255.261 69.0493 255.15 69.1604C254.705 69.5492 254.594 70.6602 254.594 71.049C254.65 71.1601 254.539 71.2712 254.372 71.2712Z" fill="#436E8E"/>
</svg>