<svg width="1440" height="682" viewBox="0 0 1440 682" fill="none" xmlns="http://www.w3.org/2000/svg">
  <rect y="1" width="1440" height="681" fill="url(#paint0_linear_1_7)" fill-opacity="0.2"/>
  <mask id="mask0_1_7" style="mask-type:alpha" maskUnits="userSpaceOnUse" x="0" y="0" width="1440" height="680">
    <rect width="1440" height="680" fill="white"/>
  </mask>
  <g mask="url(#mask0_1_7)">
    <g filter="url(#filter0_f_1_7)">
      <ellipse cx="1304" cy="72" rx="327" ry="298" fill="url(#paint1_radial_1_7)" fill-opacity="0.72"/>
    </g>
    <g filter="url(#filter1_f_1_7)">
      <ellipse cx="145" cy="657.5" rx="294" ry="221.5" fill="url(#paint2_radial_1_7)" fill-opacity="0.17"/>
    </g>
  </g>
  <path d="M229.707 555.798C224.019 537.403 207.377 523.324 188.336 521.202C183.823 520.7 178.594 520.932 175.098 524.261C172.289 526.929 171.535 530.909 172.257 534.619C174.278 545.093 185.271 547.91 194.428 547.529C207.202 546.978 220.326 543.831 231.182 536.863C233.084 535.645 231.324 532.58 229.412 533.803C221.217 539.057 211.928 541.901 202.345 543.235C194.357 544.338 182.129 545.843 177.152 537.662C175.305 534.625 174.584 530.176 177.081 527.271C180.004 523.87 185.511 524.3 189.489 524.895C197.949 526.251 205.871 529.947 212.374 535.573C218.877 541.199 223.706 548.534 226.325 556.763C226.997 558.935 230.385 558.009 229.707 555.826V555.798Z" fill="white"/>
  <path d="M1280.05 421.875C1276.12 423.83 1274.23 428.594 1275.29 432.783C1276.44 437.291 1280.95 439.666 1285.39 438.927C1289.83 438.188 1293.28 434.548 1292.97 429.949C1292.82 427.689 1291.87 425.556 1290.3 423.923C1288.73 422.289 1286.63 421.26 1284.38 421.014C1281.87 420.733 1281.89 424.679 1284.38 424.935C1286.87 425.192 1288.93 427.745 1289.07 430.243C1289.22 433.009 1286.91 434.872 1284.32 435.129C1278.33 435.739 1277.15 427.696 1282.03 425.265C1284.29 424.141 1282.31 420.758 1280.05 421.875Z" fill="white"/>
  <defs>
    <filter id="filter0_f_1_7" x="615" y="-588" width="1378" height="1320" filterUnits="userSpaceOnUse" color-interpolation-filters="sRGB">
      <feFlood flood-opacity="0" result="BackgroundImageFix"/>
      <feBlend mode="normal" in="SourceGraphic" in2="BackgroundImageFix" result="shape"/>
      <feGaussianBlur stdDeviation="181" result="effect1_foregroundBlur_1_7"/>
    </filter>
    <filter id="filter1_f_1_7" x="-511" y="74" width="1312" height="1167" filterUnits="userSpaceOnUse" color-interpolation-filters="sRGB">
      <feFlood flood-opacity="0" result="BackgroundImageFix"/>
      <feBlend mode="normal" in="SourceGraphic" in2="BackgroundImageFix" result="shape"/>
      <feGaussianBlur stdDeviation="181" result="effect1_foregroundBlur_1_7"/>
    </filter>
    <linearGradient id="paint0_linear_1_7" x1="1440" y1="0.999961" x2="892.235" y2="1097.3" gradientUnits="userSpaceOnUse">
      <stop stop-color="#76DDBE"/>
      <stop offset="0.420339" stop-color="#C7F1DD"/>
      <stop offset="1" stop-color="#F2FE63"/>
    </linearGradient>
    <radialGradient id="paint1_radial_1_7" cx="0" cy="0" r="1" gradientUnits="userSpaceOnUse" gradientTransform="translate(1468.55 -38.1482) rotate(139.397) scale(544.184 538.795)">
      <stop stop-color="#D3FF24"/>
      <stop offset="0.473958" stop-color="#0EE7C0"/>
      <stop offset="1" stop-color="#A9D6FF"/>
    </radialGradient>
    <radialGradient id="paint2_radial_1_7" cx="0" cy="0" r="1" gradientUnits="userSpaceOnUse" gradientTransform="translate(292.941 575.628) rotate(144.676) scale(455.288 430.369)">
      <stop stop-color="#D3FF24"/>
      <stop offset="0.473958" stop-color="#0EE7C0"/>
      <stop offset="1" stop-color="#A9D6FF"/>
    </radialGradient>
  </defs>
</svg>
