<svg width="375" height="293" viewBox="0 0 375 293" fill="none" xmlns="http://www.w3.org/2000/svg">
<path d="M71.452 63.6072C72.1165 58.1276 78.4841 55.3047 83.0799 58.349C90.8319 63.4411 103.567 69.3636 114.365 65.323C121.231 62.777 122.449 58.515 124.94 56.3564C128.484 53.3121 133.911 54.1424 136.347 58.1276C137.953 60.7844 137.842 64.1607 135.959 66.6514C129.647 74.9539 113.534 91.5035 89.6137 82.4261C73.9437 76.5037 70.7322 69.3082 71.452 63.6072Z" fill="#F7B686"/>
<path d="M22.9468 266.244C22.9468 266.244 23.0575 271.779 26.8227 273.329C30.588 274.879 41.3299 276.263 37.3432 279.805C35.0176 281.853 24.1095 280.525 21.0088 280.525C17.908 280.525 15.0287 281.853 12.7585 279.805C10.2114 277.536 12.7585 266.244 12.7585 266.244C12.7585 266.244 15.4163 267.628 17.7972 267.573C21.2303 267.462 22.9468 266.244 22.9468 266.244Z" fill="#2F1A31"/>
<path d="M72.1382 266.64C72.1382 266.64 72.2489 272.175 76.0141 273.725C79.7794 275.275 90.5214 276.658 86.5346 280.201C84.2091 282.249 73.301 280.92 70.2002 280.92C67.0994 280.92 64.2201 282.249 61.9499 280.201C59.4028 277.932 61.9499 266.64 61.9499 266.64C61.9499 266.64 64.6077 268.024 66.9887 267.969C70.4217 267.858 72.1382 266.64 72.1382 266.64Z" fill="#2F1A31"/>
<path d="M93.489 115.193C93.489 115.193 93.2121 140.599 91.1634 185.377C89.5576 220.469 89.8899 253.014 86.7891 268.457C85.6817 273.992 44.9285 271.169 45.3715 265.081L55.0061 156.595L56.8333 122.223L93.489 115.193Z" fill="#96A7E2"/>
<path d="M26.1584 135.507C26.4906 138.33 42.3821 137.998 61.8174 135.507C81.2526 133.072 96.3689 128.865 96.0367 126.042C95.7045 123.219 80.0344 122.887 60.5992 125.378C41.1086 127.813 25.8262 132.684 26.1584 135.507Z" fill="#2F1A31"/>
<path d="M71.1756 131.689L35.0182 268.458C33.3017 274.048 -1.02836 273.274 0.0236896 267.351L28.0968 137.999C28.4291 136.504 29.5365 135.342 30.9761 134.899C38.7281 132.685 71.9508 126.154 71.1756 131.689Z" fill="#96A7E2"/>
<path d="M28.5947 58.4617C28.5947 58.4617 38.1185 43.2959 57.8307 43.9601C77.4874 44.6796 92.3269 70.528 96.0367 126.044C96.0367 126.044 63.8107 118.959 26.103 135.453C26.103 135.453 15.361 85.0296 28.5947 58.4617Z" fill="#FFD4A3"/>
<path d="M15.7488 52.4818L32.7477 66.8174C32.7477 66.8174 68.0191 79.1051 77.5429 77.3339C87.0668 75.618 89.0601 59.9541 89.0601 59.9541C89.0601 59.9541 80.0346 47.5557 62.8142 44.4561C61.2084 44.1794 59.5473 44.124 57.8308 44.0133C54.8961 43.7919 52.9581 44.0687 50.0789 44.0687C23.2792 43.7919 15.7488 52.4818 15.7488 52.4818Z" fill="#FFD4A3"/>
<path d="M50.5219 211.17L49.8574 211.004L60.8762 163.957C62.925 157.647 67.1886 152.444 72.8364 149.234L73.1686 149.843C67.6869 152.998 63.5341 158.09 61.5407 164.178L50.5219 211.17Z" fill="#020202"/>
<path d="M31.8064 108.607C31.8064 108.607 37.1774 102.795 41.7732 102.906C46.4244 103.016 52.2383 106.614 49.359 107.168C46.4797 107.721 42.6038 107.389 42.6038 107.389C42.6038 107.389 50.8541 108.441 49.7466 110.267C48.6392 112.094 41.4963 111.097 41.4963 111.097C41.4963 111.097 51.1863 113.145 49.6359 114.529C48.0855 115.913 40.7212 114.308 40.7212 114.308C40.7212 114.308 49.6913 116.577 47.8087 118.127C45.926 119.677 40.4443 116.245 39.3369 118.016C38.2295 119.843 33.3568 126.706 27.9304 124.326L31.8064 108.607Z" fill="#F7B686"/>
<g opacity="0.3">
  <path opacity="0.3" d="M39.4479 107.943L39.0049 107.39C40.223 106.337 42.6594 107.002 42.7147 107.057L42.5486 107.722C41.9396 107.611 40.2231 107.334 39.4479 107.943Z" fill="#E08B65"/>
</g>
<g opacity="0.3">
  <path opacity="0.3" d="M37.6758 111.762L37.3435 111.153C39.2815 110.101 41.6071 110.766 41.6625 110.766L41.441 111.43C41.441 111.485 39.3369 110.876 37.6758 111.762Z" fill="#E08B65"/>
</g>
<g opacity="0.3">
  <path opacity="0.3" d="M37.1778 114.918L36.6794 114.42C37.8976 113.202 40.7215 113.977 40.8323 114.032L40.6661 114.697C39.9463 114.475 37.953 114.143 37.1778 114.918Z" fill="#E08B65"/>
</g>
<path d="M15.7485 52.4822C14.3088 54.5301 17.2435 57.2976 23.1682 61.5596C29.0929 65.8769 31.6954 67.3713 33.135 65.3234C34.5747 63.2754 32.8582 59.7884 26.9335 55.4711C22.6145 52.2608 17.1881 50.4343 15.7485 52.4822Z" fill="#2F1A31"/>
<path d="M31.3638 122.499L36.624 110.931C37.3439 109.326 36.7348 107.444 35.2952 106.613C27.8754 102.352 23.5565 97.2593 22.5044 91.503C21.0648 83.4772 25.6052 74.2338 29.5919 68.256C31.6406 65.2118 31.8621 62.2229 28.6506 58.4591C27.3217 56.9093 25.9928 55.8024 21.7292 54.0312C19.6805 53.1456 17.6318 52.8688 16.469 54.3632C14.6417 56.6879 13.3682 58.5698 10.8765 63.2192C4.89641 74.2338 2.68156 85.2484 4.39806 95.0453C6.55753 107.056 14.1434 116.798 27.1002 123.993C28.6506 124.879 30.5886 124.215 31.3638 122.499Z" fill="#F7B686"/>
<path d="M41.7729 132.463C41.7729 132.463 80.5881 125.046 93.1574 128.533L87.1219 137.5L64.6966 138.773L41.7729 132.463Z" fill="#96A7E2"/>
<path d="M62.0383 43.9588C62.0383 43.9588 57.6639 42.2429 56.9995 39.8075C56.335 37.3721 54.6739 38.147 53.788 37.4828C52.8467 36.874 55.4491 30.2874 55.4491 30.2874L64.4746 26.9664L63.5333 38.5345L62.0383 43.9588Z" fill="#436E8E"/>
<path d="M42.4365 44.2362C44.3745 44.0148 46.7555 42.133 47.5307 40.3618L49.9116 34.7714L50.6314 33.1663L54.7289 23.6461L54.0091 33.4984L53.5661 39.4208L53.4554 41.0813C53.3446 42.465 54.3413 43.6827 55.6702 43.9041C56.39 45.0665 56.7222 48.2214 53.4 48.7749C46.5893 50.048 42.4365 44.2362 42.4365 44.2362Z" fill="#F7B686"/>
<path d="M49.9128 34.6033C49.9128 34.6586 49.9128 34.714 49.9128 34.7693C50.1343 37.9242 53.5673 39.4187 53.5673 39.4187L54.0103 33.4963C52.9583 33.1088 51.4632 32.7214 50.6327 33.1642C50.1897 33.3302 49.9128 33.8284 49.9128 34.6033Z" fill="#2F1A31"/>
<path d="M55.1728 36.6517C60.2797 36.6517 64.4197 31.5221 64.4197 25.1943C64.4197 18.8666 60.2797 13.7369 55.1728 13.7369C50.0658 13.7369 45.9258 18.8666 45.9258 25.1943C45.9258 31.5221 50.0658 36.6517 55.1728 36.6517Z" fill="#F7B686"/>
<path d="M60.1555 32.6126C60.1555 32.6126 56.9994 32.668 53.8432 31.5605C53.8432 31.5605 53.5664 34.6613 56.9994 34.8828C58.9927 34.9936 60.1555 32.6126 60.1555 32.6126Z" fill="white"/>
<path d="M56.0585 25.3067C56.1139 25.3067 56.1692 25.2513 56.2246 25.196C56.28 25.0852 56.2246 24.9745 56.1139 24.9191C56.0585 24.9191 54.6188 24.1439 53.4007 25.5282C53.3453 25.639 53.3453 25.7497 53.4007 25.8051C53.5114 25.8604 53.6221 25.8604 53.6775 25.8051C54.6188 25.1406 55.8924 25.2513 55.9478 25.3067C56.0031 25.3067 56.0031 25.3067 56.0585 25.3067Z" fill="#060633"/>
<path d="M53.9548 27.5209C53.9548 28.0192 54.2317 28.4622 54.5639 28.4622C54.9515 28.4622 55.2284 28.0746 55.2284 27.5763C55.2284 27.0779 54.9515 26.6349 54.6193 26.6349C54.2871 26.6349 53.9548 27.0225 53.9548 27.5209Z" fill="#060633"/>
<path d="M59.9346 27.9079C59.8792 28.4062 60.1561 28.8492 60.4883 28.9046C60.8759 28.9599 61.2081 28.5724 61.2081 28.074C61.2635 27.5757 60.9866 27.1327 60.6544 27.0774C60.3222 27.022 59.99 27.4096 59.9346 27.9079Z" fill="#060633"/>
<path d="M50.6877 17.8885C57.7752 19.6044 62.8139 25.9143 63.0354 33.2205C63.0354 33.6633 63.0354 34.1061 63.0354 34.5489C63.0354 34.5489 58.2182 35.6005 57.9967 40.3053C57.9413 41.7997 62.1495 44.2905 62.4817 44.1798C64.6966 43.1835 70.5659 37.7592 69.237 26.9659C67.9081 16.1727 63.7553 8.25764 53.8438 7.92554C43.9324 7.59344 45.2613 14.1801 45.2613 14.1801C45.2613 14.1801 46.9224 17.0029 50.6877 17.8885Z" fill="#436E8E"/>
<path d="M52.0715 17.8891C52.0715 17.8891 51.9054 17.9998 51.6286 18.2212C50.5765 19.0514 47.9741 21.3761 47.5311 24.8631C46.9774 29.2358 51.1856 31.9479 50.0228 35.3243C48.86 38.7006 45.8146 34.9368 43.3229 35.4903C40.8312 36.0438 39.0039 34.9368 38.8378 29.9553C38.6717 25.0292 39.8345 13.4611 45.7039 13.4611" fill="#436E8E"/>
<path d="M46.0917 26.9126C47.1437 27.9094 48.5833 28.0202 49.3585 27.1341C50.1337 26.248 49.9123 24.7527 48.8602 23.7558C47.8082 22.7589 46.3685 22.6481 45.5933 23.5343C44.7627 24.365 45.0396 25.9157 46.0917 26.9126Z" fill="#F7B686"/>
<path d="M65.4718 38.5896H65.3611C66.0255 31.5048 63.4785 24.5861 60.6545 20.933C56.2802 15.2319 51.5737 15.9515 51.5183 16.0068V15.8961C51.5737 15.8961 56.3356 15.1212 60.7653 20.8776C63.5892 24.5307 66.1363 31.4494 65.4718 38.5896Z" fill="#2F1A31"/>
<path d="M43.157 31.5614C42.1603 29.4581 41.7173 26.4138 41.9942 23.1482C42.2157 20.27 42.9909 17.6132 43.9322 16.3955C45.8148 13.9601 48.8048 15.2332 48.8602 15.2885L48.8048 15.3992C48.7494 15.3992 45.8702 14.1262 44.0429 16.5062C42.2157 18.8863 41.0529 26.912 43.2677 31.506L43.157 31.5614Z" fill="#2F1A31"/>
<path d="M65.97 29.7902C65.97 29.6795 65.1394 16.3956 59.8238 14.1263C54.5082 11.8569 50.5768 14.7351 50.5215 14.7904L50.4661 14.6797C50.5214 14.6244 54.5082 11.6909 59.8792 14.0155C65.2502 16.3402 66.0807 29.6795 66.0807 29.7902H65.97Z" fill="#2F1A31"/>
<path d="M162.315 269.399C160.986 269.399 159.934 268.347 159.934 267.019V263.31C159.934 261.982 160.986 260.93 162.315 260.93C163.644 260.93 164.696 261.982 164.696 263.31V267.019C164.696 268.347 163.644 269.399 162.315 269.399Z" fill="#436E8E"/>
<path d="M199.414 146.966C200.245 147.243 200.688 148.073 200.466 148.903L196.59 161.689C196.314 162.519 195.483 162.962 194.652 162.741C193.822 162.464 193.379 161.634 193.6 160.803L197.476 148.018C197.698 147.187 198.584 146.745 199.414 146.966Z" fill="#F7B686"/>
<path d="M195.539 145.803C196.369 146.08 196.812 146.91 196.591 147.74L192.272 162.076C191.995 162.906 191.164 163.349 190.334 163.127C189.503 162.851 189.06 162.02 189.282 161.19L193.601 146.855C193.822 146.024 194.708 145.581 195.539 145.803Z" fill="#F7B686"/>
<path d="M196.757 138.055L197.089 138.497C197.698 139.328 197.476 140.545 196.59 141.154L188.229 146.911C187.399 147.519 186.181 147.298 185.572 146.412L185.239 145.97C184.63 145.139 184.852 143.922 185.738 143.313L194.099 137.556C194.985 137.003 196.148 137.224 196.757 138.055Z" fill="#F7B686"/>
<path d="M191.717 144.641C192.547 144.917 192.99 145.748 192.769 146.578L189.28 158.091C189.004 158.921 188.173 159.364 187.342 159.142C186.512 158.866 186.069 158.035 186.29 157.205L189.779 145.692C190 144.862 190.886 144.419 191.717 144.641Z" fill="#F7B686"/>
<path d="M204.176 140.491C204.176 140.491 206.28 149.181 202.349 154.218C200.964 155.934 189.779 152.225 189.392 149.79C189.004 147.354 192.105 139.827 192.105 139.827L204.176 140.491Z" fill="#F7B686"/>
<path d="M203.235 148.128C204.066 148.349 204.509 149.235 204.287 150.065L200.854 161.523C200.633 162.353 199.747 162.796 198.916 162.574C198.086 162.353 197.643 161.467 197.864 160.637L201.297 149.18C201.519 148.349 202.404 147.851 203.235 148.128Z" fill="#F7B686"/>
<path d="M104.398 146.631C103.567 146.797 103.013 147.682 103.179 148.513L106.059 161.575C106.225 162.405 107.111 162.959 107.941 162.793C108.772 162.627 109.326 161.741 109.159 160.911L106.28 147.849C106.114 146.963 105.283 146.465 104.398 146.631Z" fill="#F7B686"/>
<path d="M108.328 145.746C107.497 145.912 106.944 146.797 107.11 147.628L110.377 162.24C110.543 163.07 111.429 163.624 112.259 163.458C113.09 163.292 113.644 162.406 113.477 161.576L110.211 146.963C110.044 146.133 109.159 145.58 108.328 145.746Z" fill="#F7B686"/>
<path d="M107.72 137.942L107.387 138.385C106.723 139.215 106.834 140.377 107.664 141.041L115.582 147.407C116.413 148.071 117.576 147.96 118.24 147.13L118.572 146.687C119.237 145.857 119.126 144.694 118.296 144.03L110.377 137.665C109.547 137.001 108.384 137.111 107.72 137.942Z" fill="#F7B686"/>
<path d="M112.26 144.916C111.429 145.082 110.876 145.967 111.042 146.798L113.644 158.532C113.81 159.362 114.696 159.915 115.527 159.749C116.357 159.583 116.911 158.698 116.745 157.867L114.142 146.133C113.921 145.248 113.09 144.694 112.26 144.916Z" fill="#F7B686"/>
<path d="M100.078 139.768C100.078 139.768 97.3099 148.292 100.909 153.55C102.127 155.376 113.589 152.498 114.198 150.118C114.752 147.738 112.26 139.989 112.26 139.989L100.078 139.768Z" fill="#F7B686"/>
<path d="M100.521 147.462C99.6906 147.628 99.1369 148.514 99.3583 149.344L101.961 161.023C102.127 161.853 103.013 162.407 103.843 162.185C104.674 162.019 105.228 161.134 105.006 160.304L102.404 148.625C102.182 147.85 101.352 147.296 100.521 147.462Z" fill="#F7B686"/>
<path d="M189.613 140.655C189.945 123.164 189.114 98.0356 183.023 77.5008C181.639 72.7408 181.03 70.9696 179.812 68.3128C178.815 66.2095 181.473 62.0582 185.072 60.3424C188.45 58.7373 193.378 59.6229 194.098 60.6745C195.26 62.501 196.312 65.822 197.974 71.0803C203.732 89.401 205.836 112.482 204.452 141.762L189.613 140.655Z" fill="#F7B686"/>
<path d="M124.497 136.89C124.552 139.603 140.887 140.654 161.042 140.045C181.197 139.437 197.31 136.614 197.254 133.957C197.199 131.245 180.975 129.695 160.765 130.304C140.665 130.913 124.441 134.178 124.497 136.89Z" fill="#2F1A31"/>
<path d="M129.48 60.5641C129.48 60.5641 133.024 46.4499 159.381 46.2838C197.31 46.0624 193.822 80.9328 197.31 133.903C197.31 133.903 174.276 123.663 124.497 136.227C124.497 136.227 121.23 82.1505 129.48 60.5641Z" fill="#CFD3A3"/>
<path d="M119.735 58.5158L136.9 68.036C136.9 68.036 174.553 71.4677 184.52 69.8072C194.486 68.1467 197.255 60.8405 197.255 60.8405C197.255 60.8405 186.624 49.8259 168.517 46.8923C166.801 46.6156 165.029 46.3942 163.202 46.2835C160.156 46.0621 157.055 46.1174 154.065 46.4495C131.197 49.051 119.735 58.5158 119.735 58.5158Z" fill="#CFD3A3"/>
<path d="M155.726 43.0727L157.719 36.652L158.273 34.7702L161.651 23.8109L162.094 34.7148L162.37 41.2461L162.481 43.2941C162.536 44.6778 163.422 45.0099 164.419 46.2276C164.862 46.7258 167.575 49.7147 164.474 51.0984C160.654 52.8143 153.511 50.2128 150.742 46.8918C150.798 46.8918 155.061 45.1206 155.726 43.0727Z" fill="#F7B686"/>
<path d="M134.215 69.653C135.707 67.6004 133.587 63.5184 129.481 60.5357C125.374 57.5529 120.835 56.7988 119.343 58.8515C117.851 60.9041 119.971 64.9861 124.078 67.9688C128.185 70.9516 132.723 71.7056 134.215 69.653Z" fill="#2F1A31"/>
<path d="M114.641 141.541C116.247 124.106 119.846 99.254 128.152 79.4941C130.09 74.9001 130.865 73.1842 132.36 70.6935C133.578 68.7009 131.419 64.2729 127.986 62.1696C124.774 60.177 119.791 60.5091 119.016 61.5054C117.687 63.1659 116.247 66.3762 114.032 71.413C106.28 88.9589 101.629 111.652 99.7466 140.932L114.641 141.541Z" fill="#F7B686"/>
<path d="M170.455 19.7155C170.455 19.7155 171.175 22.3722 170.455 25.6932C169.735 29.0141 166.358 20.8224 166.358 20.8224L170.455 19.7155Z" fill="#56335B"/>
<path d="M162.692 39.5308C168.028 38.8303 171.67 33.0535 170.826 26.6279C169.982 20.2024 164.971 15.5614 159.635 16.2619C154.298 16.9624 150.657 22.7391 151.501 29.1647C152.345 35.5902 157.355 40.2312 162.692 39.5308Z" fill="#F7B686"/>
<path d="M161.707 27.4084C161.762 27.353 161.817 27.2976 161.817 27.2422C161.817 27.1315 161.762 27.0208 161.651 27.0208C161.596 27.0208 160.101 26.7439 159.381 28.2943C159.326 28.4051 159.381 28.5158 159.492 28.5712C159.603 28.6266 159.713 28.5712 159.769 28.4604C160.433 27.6299 161.596 27.353 161.651 27.4084C161.596 27.4637 161.651 27.4084 161.707 27.4084Z" fill="#060633"/>
<path d="M160.82 29.9565C160.931 30.3995 161.318 30.7317 161.651 30.621C161.983 30.5102 162.149 30.0673 162.038 29.6243C161.928 29.1813 161.54 28.8491 161.208 28.9598C160.875 29.0706 160.709 29.5135 160.82 29.9565Z" fill="#060633"/>
<path d="M169.016 26.8008C169.071 26.8008 169.126 26.7454 169.126 26.6901C169.182 26.5793 169.126 26.4686 169.071 26.4132C169.016 26.3578 168.019 25.5273 167.078 26.6347C167.022 26.6901 167.022 26.8008 167.078 26.9116C167.133 27.0223 167.244 26.9669 167.299 26.9669C168.019 26.4686 168.96 26.7455 168.96 26.8008C168.905 26.8008 168.96 26.8562 169.016 26.8008Z" fill="#060633"/>
<path d="M167.187 28.8474C167.132 29.2904 167.354 29.7333 167.686 29.7887C168.018 29.8441 168.35 29.5118 168.406 29.0135C168.461 28.5705 168.24 28.1276 167.907 28.0722C167.575 28.0168 167.243 28.4044 167.187 28.8474Z" fill="#060633"/>
<path d="M144.985 26.1366C144.985 26.1366 148.252 33.1661 152.848 33.6643C152.848 33.6643 149.082 28.2953 157 25.0296C157 25.0296 149.802 23.9226 144.985 26.1366Z" fill="#56335B"/>
<path d="M151.518 30.0118C152.514 30.6209 153.788 30.4548 154.342 29.5688C154.895 28.6829 154.563 27.4647 153.566 26.8556C152.57 26.2465 151.296 26.4126 150.743 27.2986C150.189 28.1291 150.521 29.3473 151.518 30.0118Z" fill="#F7B686"/>
<path d="M157 25.0287C157 25.0287 156.391 30.9511 157.554 32.0581C158.772 33.1651 166.69 33.6632 170.4 32.2241C170.455 35.9879 167.797 39.3642 164.032 39.9731C162.814 40.1945 161.54 40.1945 160.267 39.9731C157.665 39.5303 155.173 38.4233 154.065 36.0433C153.733 35.3237 154.674 30.785 154.674 30.785C154.674 30.785 155.007 28.1283 153.512 26.7445C153.567 26.7999 155.339 25.1947 157 25.0287Z" fill="#56335B"/>
<g opacity="0.3">
  <path opacity="0.3" d="M110.543 102.353C110.432 102.353 110.321 102.353 110.266 102.353C109.602 102.242 108.993 101.744 108.66 101.025C108.328 100.305 108.217 99.4195 108.383 98.5339C108.716 96.6521 110.045 95.2683 111.429 95.4897C112.758 95.7111 113.644 97.4269 113.311 99.3642C112.979 101.08 111.816 102.353 110.543 102.353ZM111.097 96.0986C110.211 96.0986 109.269 97.1502 109.048 98.5893C108.937 99.3642 108.993 100.084 109.269 100.693C109.546 101.246 109.878 101.578 110.377 101.634C111.318 101.8 112.37 100.637 112.592 99.1981C112.813 97.7037 112.259 96.3199 111.263 96.1539C111.207 96.0985 111.152 96.0986 111.097 96.0986Z" fill="#E08B65"/>
</g>
<path d="M157 25.0299C157 25.0299 156.335 20.8787 159.602 20.6019C162.814 20.3252 166.523 19.7717 167.797 20.6019C169.07 21.4322 170.565 24.7532 170.565 24.7532C170.565 24.7532 172.337 18.554 169.07 15.8971C165.804 13.2403 155.449 9.75327 148.805 14.4027C142.16 18.9968 144.929 26.137 144.929 26.137C144.929 26.137 149.746 24.6978 157 25.0299Z" fill="#2F1A31"/>
<path d="M152.514 14.402C152.514 14.402 147.642 10.3614 148.749 7.37251C149.857 4.3836 155.006 5.32456 156.999 5.82271C158.993 6.26551 159.325 9.86327 157.719 12.1326C156.169 14.4573 152.514 14.402 152.514 14.402Z" fill="#2F1A31"/>
<path d="M154.12 36.045C154.12 36.045 154.175 40.0855 157.055 42.4102C159.934 44.6796 158.051 46.6722 160.543 49.9378C163.09 53.1481 160.045 53.2588 164.53 55.5835C169.015 57.9636 172.393 55.8049 171.507 52.2072C170.621 48.6094 174.497 49.5504 172.669 45.0117C170.842 40.473 169.513 43.2405 171.064 38.3697C172.614 33.4989 170.399 32.2258 170.399 32.2258C170.399 32.2258 167.908 32.3919 165.914 32.7793C163.921 33.1114 162.094 32.5026 160.709 32.9454C159.325 33.3882 154.12 36.045 154.12 36.045Z" fill="#56335B"/>
<path d="M168.461 34.3283C168.461 34.3283 165.416 35.1589 162.094 34.8266C162.094 34.8266 162.592 37.9274 165.969 37.263C167.907 36.9861 168.461 34.3283 168.461 34.3283Z" fill="white"/>
<path d="M162.924 266.797C165.25 266.686 167.465 267.904 168.572 269.952C169.126 270.893 169.901 271.779 171.064 272.277C174.608 273.771 184.796 275.044 180.975 278.42C178.761 280.358 168.462 279.085 165.582 279.085C162.648 279.085 159.934 280.358 157.775 278.42C156.501 277.258 156.612 273.55 156.944 270.45C157.221 268.181 159.27 266.52 161.485 266.797C161.817 266.852 162.149 266.852 162.537 266.852C162.703 266.852 162.814 266.797 162.924 266.797Z" fill="#2F1A31"/>
<path d="M126.989 265.578C126.989 265.578 127.099 270.781 130.643 272.276C134.187 273.77 144.375 275.043 140.555 278.42C138.34 280.357 128.041 279.084 125.161 279.084C122.227 279.084 119.514 280.357 117.354 278.42C114.973 276.261 117.354 265.633 117.354 265.633C117.354 265.633 119.846 266.962 122.116 266.907C125.328 266.74 126.989 265.578 126.989 265.578Z" fill="#2F1A31"/>
<path d="M189.281 134.677C190.886 134.843 192.16 136.116 192.326 137.666C192.714 140.821 192.769 147.518 190.886 161.411C188.118 181.835 184.74 202.536 182.968 212.443C182.359 215.986 178.262 219.03 173.112 219.749L170.344 220.137C164.807 220.967 159.878 218.31 159.823 214.491L159.159 148.846L141.385 135.286C141.385 135.286 154.674 133.57 169.734 133.57C178.262 133.625 185.681 134.289 189.281 134.677Z" fill="#436E8E"/>
<path d="M172.559 138.496L133.356 264.361C131.695 269.619 126.989 273.217 121.562 273.328L119.181 273.383C113.644 273.494 109.381 268.346 110.377 262.756L131.806 144.473C132.138 143.09 132.913 136.835 134.298 136.448C141.662 134.289 173.279 133.293 172.559 138.496Z" fill="#436E8E"/>
<path d="M155.006 194.732L154.397 194.511L162.813 168.884C164.751 162.962 168.793 158.035 174.109 154.991L174.441 155.545C169.236 158.534 165.36 163.349 163.478 169.105L155.006 194.732Z" fill="#020202"/>
<path d="M159.657 198.274C159.657 198.274 154.563 222.517 170.898 222.738C187.232 222.96 185.35 198.274 185.35 198.274C185.35 198.274 176.49 201.595 159.657 198.274Z" fill="#2F1A31"/>
<path d="M169.292 263.808C169.292 263.808 163.976 267.129 159.159 264.638C154.342 262.203 157.055 253.181 157.775 239.509C158.495 225.838 157.498 211.613 159.824 210.451C162.094 209.288 168.628 211.779 173.666 208.901C178.705 206.023 184.076 200.211 187.122 202.812C188.561 204.03 182.692 224.454 178.982 236.41C175.826 246.428 174.497 258.66 169.292 263.808Z" fill="#9BBCB6"/>
<path d="M166.246 217.482C167.011 217.482 167.631 216.862 167.631 216.098C167.631 215.333 167.011 214.713 166.246 214.713C165.482 214.713 164.862 215.333 164.862 216.098C164.862 216.862 165.482 217.482 166.246 217.482Z" fill="#436E8E"/>
<path d="M163.7 263.699C164.464 263.699 165.084 263.079 165.084 262.314C165.084 261.55 164.464 260.93 163.7 260.93C162.935 260.93 162.315 261.55 162.315 262.314C162.315 263.079 162.935 263.699 163.7 263.699Z" fill="#436E8E"/>
<path d="M133.91 47.6111C133.91 47.6111 129.204 48.5521 130.09 52.814C131.197 58.2936 137.842 63.9947 137.177 60.563C136.568 57.4634 134.685 53.3121 134.685 53.3121C134.685 53.3121 139.613 63.8286 141.441 62.0574C143.268 60.2862 138.894 51.2642 138.894 51.2642C138.894 51.2642 144.652 61.0611 145.87 58.8471C147.088 56.6331 143.157 48.386 143.157 48.386C143.157 48.386 148.307 58.2936 149.636 55.6368C150.964 52.9801 147.255 48.4414 146.147 46.1167C145.095 43.958 143.323 43.9027 141.33 45.1204C141.33 45.1204 138.617 45.1204 137.509 46.2274C137.066 46.6702 136.346 46.3934 135.904 46.5595C135.239 46.8362 133.91 47.6111 133.91 47.6111Z" fill="#F7B686"/>
<path d="M107.498 90.897L107.166 90.7863C110.654 78.1112 118.849 61.6169 118.904 61.4508L119.236 61.6168C119.126 61.7829 110.931 78.2218 107.498 90.897Z" fill="#E5A173"/>
<path d="M330.947 31.3854C330.947 31.3854 332.723 22.5097 324.875 21.0208C317.027 19.532 318.287 25.6591 316.683 27.0907C315.137 28.465 318.345 33.3323 322.125 34.2485C325.906 35.1647 330.947 31.3854 330.947 31.3854Z" fill="#E28569"/>
<path d="M367.782 65.171C372.537 58.2995 375 49.1947 375 38.0285C375 29.6109 373.625 23.0257 373.568 22.7394L358.158 25.717L365.892 24.2282L358.158 25.717C359.361 31.386 361.023 47.9922 354.206 56.8107C351.112 60.8191 346.415 62.9378 339.942 63.2241L340.973 78.8568C352.029 78.3415 360.965 74.104 366.808 66.4881C367.152 66.0873 367.439 65.6291 367.782 65.171Z" fill="#EAA97D"/>
<path d="M371.161 17.5854C372.02 17.4137 372.65 16.5547 372.478 15.6957L370.301 3.38422C370.13 2.52527 369.27 1.89539 368.411 2.06718C367.552 2.23896 366.922 3.0979 367.094 3.95684L369.27 16.2684C369.442 17.1273 370.301 17.7 371.161 17.5854Z" fill="#EAA97D"/>
<path d="M367.094 18.2724C367.953 18.1006 368.583 17.2417 368.411 16.3827L366.005 2.63953C365.833 1.78058 364.974 1.1507 364.115 1.32249C363.255 1.49428 362.625 2.35321 362.797 3.21216L365.203 16.9553C365.318 17.8143 366.177 18.4441 367.094 18.2724Z" fill="#EAA97D"/>
<path d="M362.97 19.0176C363.829 18.8458 364.459 17.9869 364.288 17.1279L361.595 1.78166C361.423 0.922727 360.564 0.29285 359.705 0.464636C358.846 0.636423 358.215 1.49535 358.387 2.35428L361.08 17.7005C361.194 18.5595 362.053 19.1321 362.97 19.0176Z" fill="#EAA97D"/>
<path d="M363.256 27.2044L363.657 26.7464C364.402 25.9447 364.287 24.6849 363.485 23.9405L355.523 16.9546C354.721 16.2102 353.46 16.3247 352.716 17.1263L352.315 17.5845C351.57 18.3861 351.685 19.6459 352.487 20.3903L360.449 27.3763C361.308 28.0634 362.511 28.0061 363.256 27.2044Z" fill="#EAA97D"/>
<path d="M358.845 19.7042C359.704 19.5324 360.334 18.6735 360.162 17.8145L357.985 5.50277C357.813 4.64381 356.954 4.01391 356.095 4.18571C355.236 4.3575 354.606 5.21645 354.777 6.07541L356.954 18.3872C357.069 19.3034 357.928 19.876 358.845 19.7042Z" fill="#EAA97D"/>
<path d="M373.567 22.7959C373.567 22.7959 372.651 12.7749 370.99 11.2288C369.328 9.6254 357.7 11.7441 357.012 14.2064C356.325 16.6687 358.101 25.7735 358.101 25.7735L373.567 22.7959Z" fill="#EAA97D"/>
<path d="M366.292 25.1438C366.178 25.1438 366.063 25.0293 366.063 24.9148C366.063 24.8002 365.777 22.6242 363.714 22.1661C361.423 21.6507 358.845 19.99 358.731 19.9327C358.616 19.8754 358.616 19.7037 358.673 19.5891C358.731 19.4746 358.903 19.4746 359.017 19.5319C359.017 19.5319 361.652 21.1925 363.829 21.7079C366.235 22.2233 366.579 24.8575 366.579 24.8575C366.521 24.972 366.464 25.0866 366.292 25.1438Z" fill="#E08B65"/>
<path d="M347.102 270.515C347.102 270.515 346.816 275.726 350.253 277.501C353.69 279.219 363.829 281.338 359.762 284.43C357.413 286.205 347.159 284.201 344.238 283.972C341.316 283.743 338.452 284.831 336.447 282.712C334.213 280.364 337.421 269.828 337.421 269.828C337.421 269.828 339.827 271.317 342.118 271.431C345.383 271.546 347.102 270.515 347.102 270.515Z" fill="#2F1A31"/>
<path d="M305.284 277.216C305.284 277.216 306.201 282.369 309.924 283.285C313.648 284.202 324.016 283.972 320.751 287.866C318.861 290.099 308.435 290.5 305.513 290.901C302.592 291.359 300.071 293.02 297.665 291.416C294.973 289.641 295.66 278.647 295.66 278.647C295.66 278.647 298.353 279.563 300.587 279.162C303.852 278.647 305.284 277.216 305.284 277.216Z" fill="#2F1A31"/>
<path d="M352.143 150.035C352.773 160.114 353.231 173.17 353.059 189.26C352.716 220.068 351.513 251.219 350.882 266.164C350.653 271.49 346.872 275.956 341.717 276.987L338.967 277.502C333.411 278.59 328.14 274.525 327.625 268.741L319.433 169.562L317.657 151.868C317.715 151.811 351.112 133.372 352.143 150.035Z" fill="#9BBCB6"/>
<path d="M287.812 149.747C288.786 153.813 303.909 158.108 322.011 153.813C340.113 149.518 354.263 144.88 353.346 140.815C352.372 136.749 336.733 134.687 318.574 139.039C300.472 143.277 286.838 145.625 287.812 149.747Z" fill="#2F1A31"/>
<path d="M337.936 145.682L311.413 274.981C310.611 280.479 306.429 284.831 301.044 285.747L298.696 286.148C293.196 287.121 288.155 282.655 288.27 276.928L293.196 152.038C293.311 150.607 298.123 149.175 299.498 148.831C311.012 146.14 337.879 140.414 337.936 145.682Z" fill="#9BBCB6"/>
<path d="M299.498 79.4857C299.498 79.4857 305.856 65.17 324.474 67.2315C333.238 68.2049 343.664 66.258 346.872 82.1198C349.736 96.3209 353.632 112.87 353.345 140.757C353.345 140.757 322.755 134 287.811 149.747C287.697 148.144 283.229 107.487 288.384 84.353C289.931 77.6533 297.378 84.0667 299.498 79.4857Z" fill="#6F4975"/>
<path d="M278.933 81.7189L296.691 94.0303C296.691 94.0303 344.581 92.2551 347.273 83.494C351.742 69.0066 343.951 61.5052 343.951 61.5052C343.951 61.5052 329.63 65.3991 317.543 66.8307C314.793 67.1742 309.637 68.0904 307.002 68.663C288.27 72.2706 278.933 81.7189 278.933 81.7189Z" fill="#6F4975"/>
<path d="M323.443 218.063L322.756 218.006L325.964 175.517C326.995 169.275 330.203 163.778 335.015 159.941L335.416 160.457C330.718 164.236 327.568 169.619 326.594 175.631L323.443 218.063Z" fill="#020202"/>
<path d="M278.933 81.7193C277.787 83.4371 278.933 88.4762 284.89 92.0837C290.848 95.6913 295.374 96.4929 296.748 94.0307C297.722 92.141 295.144 85.6704 289.473 82.3491C283.63 78.8561 279.735 80.4595 278.933 81.7193Z" fill="#2F1A31"/>
<path d="M300.242 148.718C300.242 148.718 324.531 140.701 349.737 142.304C350.882 142.361 351.799 143.278 351.913 144.48L352.486 153.7L326.021 151.295L300.242 148.718Z" fill="#9BBCB6"/>
<path d="M255.618 168.588C254.701 168.646 254.071 169.447 254.128 170.364L255.274 184.221C255.331 185.137 256.133 185.767 257.05 185.71C257.966 185.653 258.596 184.851 258.539 183.935L257.393 170.077C257.279 169.218 256.477 168.531 255.618 168.588Z" fill="#F7B686"/>
<path d="M259.742 168.245C258.825 168.302 258.195 169.104 258.253 170.02L259.513 185.481C259.57 186.397 260.372 187.027 261.289 186.97C262.205 186.912 262.835 186.111 262.778 185.194L261.518 169.733C261.461 168.875 260.659 168.187 259.742 168.245Z" fill="#F7B686"/>
<path d="M260.201 160.115L259.8 160.515C258.998 161.26 258.998 162.52 259.686 163.321L266.904 170.995C267.648 171.796 268.909 171.796 269.711 171.109L270.112 170.708C270.914 169.964 270.914 168.704 270.226 167.902L263.008 160.229C262.263 159.427 261.003 159.37 260.201 160.115Z" fill="#F7B686"/>
<path d="M263.924 167.959C263.008 168.016 262.378 168.817 262.435 169.734L263.466 182.16C263.523 183.076 264.325 183.706 265.242 183.648C266.159 183.591 266.789 182.789 266.731 181.873L265.7 169.447C265.586 168.531 264.784 167.844 263.924 167.959Z" fill="#F7B686"/>
<path d="M252.124 160.972C252.124 160.972 248.056 169.333 250.978 175.288C252.009 177.349 264.153 176.032 265.127 173.627C266.044 171.222 264.554 162.919 264.554 162.919L252.124 160.972Z" fill="#F7B686"/>
<path d="M251.493 168.932C250.577 168.99 249.947 169.791 250.004 170.708L251.035 183.076C251.092 183.992 251.894 184.622 252.811 184.565C253.727 184.508 254.357 183.706 254.3 182.79L253.269 170.421C253.154 169.505 252.353 168.875 251.493 168.932Z" fill="#F7B686"/>
<path d="M266.904 164.294C270.341 146.485 292.395 97.8116 294.229 95.4066C295.661 93.4596 292.338 86.359 289.016 83.7822C285.922 81.4344 281.569 81.4344 279.392 83.4386C277.731 84.9274 276.47 86.8171 273.606 91.799C263.753 109.15 256.65 132.055 251.609 162.061L266.904 164.294Z" fill="#F7B686"/>
<g opacity="0.5">
  <path opacity="0.5" d="M266.331 127.072C266.159 127.072 265.987 127.072 265.758 127.014C265.185 126.843 264.669 126.442 264.326 125.869C263.753 124.896 263.695 123.464 264.096 122.09C264.784 119.742 266.56 118.253 268.164 118.711C268.737 118.883 269.252 119.284 269.596 119.857C270.169 120.83 270.226 122.262 269.825 123.636C269.195 125.64 267.763 127.072 266.331 127.072ZM267.591 119.398C266.502 119.398 265.299 120.601 264.841 122.319C264.497 123.521 264.555 124.667 265.013 125.468C265.185 125.755 265.471 126.098 265.93 126.27C267.075 126.556 268.507 125.239 269.023 123.407C269.367 122.204 269.309 121.059 268.851 120.257C268.679 119.971 268.393 119.627 267.935 119.456C267.82 119.398 267.705 119.398 267.591 119.398Z" fill="#E08B65"/>
</g>
<path d="M310.439 67.9203C313.475 71.4706 320.865 73.7611 324.875 71.7569C328.312 70.039 325.047 65.6298 325.047 65.6298C323.386 65.5726 322.469 64.7709 322.354 63.1103L322.183 61.0489L322.125 60.0181L321.839 56.8114L321.61 53.8911L320.636 41.9805L317.485 54.1201L316.97 56.1816L315.137 63.282C314.506 65.5725 312.731 67.2905 310.439 67.9203Z" fill="#F7B686"/>
<path d="M316.913 56.1813C316.913 56.1813 318.918 59.6756 322.068 60.0193L321.782 56.8114C319.834 56.4105 316.913 56.1813 316.913 56.1813Z" fill="#2F1A31"/>
<path d="M306.945 42.151C306.945 42.151 307.69 44.0406 307.232 48.1635C306.487 54.2333 313.533 55.6076 314.965 53.6607C315.137 53.4316 313.361 43.5826 313.361 43.5826L311.07 42.6663L306.945 42.151Z" fill="#E28569"/>
<path d="M323.542 57.4667C329.67 56.5158 333.689 49.6391 332.52 42.1072C331.35 34.5753 325.434 29.2403 319.307 30.1912C313.179 31.1421 309.159 38.0187 310.329 45.5506C311.499 53.0825 317.414 58.4176 323.542 57.4667Z" fill="#F7B686"/>
<path d="M324.131 32.6447C323.901 33.1028 326.708 39.8598 313.991 43.5819C301.217 47.304 306.601 30.2969 316.168 28.4073C329.974 25.7159 333.411 34.7634 332.609 38.3137C331.807 41.864 324.131 32.6447 324.131 32.6447Z" fill="#E28569"/>
<path d="M315.079 41.1198C315.079 41.1198 310.611 47.5332 313.361 52.9732C313.361 52.9732 309.752 50.1101 309.465 48.8503C309.179 47.5905 309.294 42.9522 309.294 42.9522L315.079 41.1198Z" fill="#E28569"/>
<path d="M312.101 47.3619C313.533 48.3926 315.309 48.2209 316.053 47.0184C316.798 45.8159 316.225 44.0408 314.793 43.0674C313.361 42.0367 311.585 42.2085 310.84 43.4109C310.096 44.5562 310.668 46.3312 312.101 47.3619Z" fill="#F7B686"/>
<path d="M322.469 43.7538C322.526 43.6966 322.584 43.6393 322.641 43.582C322.698 43.4675 322.584 43.2956 322.469 43.2956C322.412 43.2956 320.579 42.6654 319.318 44.5558C319.261 44.6704 319.261 44.8423 319.376 44.8995C319.49 44.9568 319.605 44.9568 319.719 44.8423C320.75 43.8684 322.24 43.8111 322.355 43.8111C322.355 43.8111 322.412 43.8111 322.469 43.7538Z" fill="#060633"/>
<path d="M320.922 46.8472C320.98 47.4773 321.438 47.8783 321.839 47.821C322.24 47.7637 322.584 47.2482 322.469 46.618C322.412 45.9879 321.953 45.5869 321.552 45.6442C321.151 45.7015 320.865 46.2171 320.922 46.8472Z" fill="#060633"/>
<path d="M331.691 43.6968C331.748 43.6968 331.863 43.6396 331.92 43.5823C331.978 43.4677 331.978 43.2958 331.863 43.2385C331.806 43.1812 330.316 41.9209 328.483 43.1812C328.369 43.2385 328.311 43.4104 328.426 43.5249C328.483 43.6395 328.655 43.6396 328.77 43.5823C330.087 43.0667 331.519 43.5823 331.577 43.6396C331.577 43.6396 331.634 43.6968 331.691 43.6968Z" fill="#060633"/>
<path d="M329.057 45.9306C328.885 46.5034 329.114 47.0762 329.515 47.1908C329.916 47.3054 330.432 46.9044 330.603 46.3315C330.775 45.7587 330.546 45.1859 330.145 45.0713C329.744 44.9567 329.229 45.3577 329.057 45.9306Z" fill="#060633"/>
<g opacity="0.3">
  <path opacity="0.3" d="M316.168 44.155C315.652 47.5334 317.142 51.0264 319.49 51.9426C321.839 52.8588 324.131 50.8546 324.646 47.4189C325.162 44.0405 323.672 40.5475 321.324 39.6314C318.975 38.7152 316.683 40.7766 316.168 44.155Z" fill="white"/>
</g>
<g opacity="0.3">
  <path opacity="0.3" d="M332.276 51.9565C334.341 51.6465 335.596 48.6065 335.079 45.1663C334.562 41.7261 332.469 39.1886 330.404 39.4985C328.339 39.8085 327.084 42.8486 327.601 46.2887C328.118 49.7289 330.211 52.2665 332.276 51.9565Z" fill="white"/>
</g>
<path d="M315.938 46.5627C315.938 46.7345 315.996 46.9063 316.053 47.0781C316.397 48.7387 317.199 50.1703 318.23 51.1438C318.631 51.5446 319.089 51.8309 319.605 52.0027C320.063 52.1745 320.578 52.289 321.037 52.2318C321.151 52.2318 321.323 52.2318 321.438 52.1745C321.839 52.1173 322.297 51.9454 322.698 51.7164C323.672 51.1438 324.474 50.113 324.989 48.8532C325.218 48.3379 325.333 47.7652 325.448 47.1353C325.562 46.5055 325.562 45.8755 325.562 45.2456C325.562 44.9593 325.505 44.7303 325.505 44.444C325.218 42.0962 324.073 40.0347 322.411 39.1185C322.24 39.004 322.011 38.8895 321.781 38.8322C320.75 38.4314 319.662 38.5459 318.688 39.1185C317.485 39.8057 316.568 41.18 316.11 42.9551C316.053 43.1842 315.996 43.4705 315.938 43.6996C315.938 43.8714 315.881 43.9859 315.881 44.1577C315.824 44.6158 315.824 45.0739 315.824 45.532C315.824 45.8183 315.881 46.2191 315.938 46.5627ZM323.5 50.4566C323.156 50.8575 322.812 51.1438 322.411 51.3728C322.068 51.6019 321.724 51.7164 321.323 51.7736C320.808 51.8882 320.235 51.8309 319.662 51.6019C319.146 51.4301 318.688 51.0865 318.23 50.6856C317.199 49.7122 316.511 48.1661 316.225 46.4482C316.167 46.1619 316.167 45.9328 316.167 45.6465C316.167 45.4175 316.167 45.1311 316.167 44.9021C316.167 44.5012 316.225 44.1577 316.282 43.7568C316.339 43.4132 316.397 43.0697 316.511 42.7261C316.568 42.5543 316.626 42.3825 316.683 42.2107C316.683 42.2107 316.683 42.2108 316.683 42.1535V42.0962C316.798 41.7526 316.969 41.409 317.141 41.1227C317.542 40.3783 318.115 39.8057 318.745 39.4048C319.204 39.1185 319.719 39.004 320.177 38.9467C320.578 38.9467 321.037 39.004 321.438 39.1758C321.609 39.233 321.781 39.2903 321.896 39.4048C323.443 40.2638 324.588 42.268 324.875 44.5585C324.932 44.8448 324.932 45.0739 324.932 45.3602C324.932 45.9328 324.932 46.5055 324.817 47.0781C324.703 47.6507 324.588 48.2234 324.359 48.7387C324.245 49.3686 323.901 49.9985 323.5 50.4566Z" fill="#2F1A31"/>
<path d="M326.077 53.4893C325.275 53.4893 324.359 53.2602 323.442 52.5155C323.385 52.4582 323.385 52.4009 323.442 52.3436C323.499 52.2863 323.557 52.2863 323.614 52.3436C325.963 54.2912 328.655 52.5155 328.655 52.4582C328.712 52.4009 328.77 52.4582 328.827 52.5155C328.884 52.5728 328.827 52.63 328.77 52.6873C328.827 52.6873 327.624 53.4893 326.077 53.4893Z" fill="#020202"/>
<path d="M323.327 53.0304C323.27 53.0304 323.213 52.9731 323.213 52.9158C323.213 52.572 323.384 52.171 323.728 51.77C323.785 51.7127 323.843 51.7127 323.9 51.7127C323.957 51.77 323.957 51.8273 323.957 51.8846V51.9419C323.556 52.4002 323.499 52.6866 323.499 52.9158C323.442 52.9731 323.442 53.0304 323.327 53.0304Z" fill="#020202"/>
<path d="M327.624 46.39C327.681 46.5618 327.681 46.7336 327.739 46.9054C327.796 47.0772 327.796 47.249 327.853 47.4208C327.853 47.5353 327.91 47.6498 327.968 47.7643V47.8216C328.025 47.9361 328.025 47.9934 328.082 48.1079C327.853 47.249 327.681 46.3328 327.681 45.3594C327.681 45.3594 327.624 45.3021 327.51 45.3021C327.51 45.4739 327.51 45.6456 327.567 45.8174C327.567 46.0465 327.624 46.2182 327.624 46.39ZM327.624 46.39C327.681 46.5618 327.681 46.7336 327.739 46.9054C327.796 47.0772 327.796 47.249 327.853 47.4208C327.853 47.5353 327.91 47.6498 327.968 47.7643V47.8216C328.025 47.9361 328.025 47.9934 328.082 48.1079C327.853 47.249 327.681 46.3328 327.681 45.3594C327.681 45.3594 327.624 45.3021 327.51 45.3021C327.51 45.4739 327.51 45.6456 327.567 45.8174C327.567 46.0465 327.624 46.2182 327.624 46.39ZM327.624 46.39C327.681 46.5618 327.681 46.7336 327.739 46.9054C327.796 47.0772 327.796 47.249 327.853 47.4208C327.853 47.5353 327.91 47.6498 327.968 47.7643V47.8216C328.025 47.9361 328.025 47.9934 328.082 48.1079C327.853 47.249 327.681 46.3328 327.681 45.3594C327.681 45.3594 327.624 45.3021 327.51 45.3021C327.51 45.4739 327.51 45.6456 327.567 45.8174C327.567 46.0465 327.624 46.2182 327.624 46.39ZM327.624 46.39C327.681 46.5618 327.681 46.7336 327.739 46.9054C327.796 47.0772 327.796 47.249 327.853 47.4208C327.853 47.5353 327.91 47.6498 327.968 47.7643V47.8216C328.025 47.9361 328.025 47.9934 328.082 48.1079C327.853 47.249 327.681 46.3328 327.681 45.3594C327.681 45.3594 327.624 45.3021 327.51 45.3021C327.51 45.4739 327.51 45.6456 327.567 45.8174C327.567 46.0465 327.624 46.2182 327.624 46.39ZM327.624 46.39C327.681 46.5618 327.681 46.7336 327.739 46.9054C327.796 47.0772 327.796 47.249 327.853 47.4208C327.853 47.5353 327.91 47.6498 327.968 47.7643V47.8216C328.025 47.9361 328.025 47.9934 328.082 48.1079C327.853 47.249 327.681 46.3328 327.681 45.3594C327.681 45.3594 327.624 45.3021 327.51 45.3021C327.51 45.4739 327.51 45.6456 327.567 45.8174C327.567 46.0465 327.624 46.2182 327.624 46.39ZM327.624 46.39C327.681 46.5618 327.681 46.7336 327.739 46.9054C327.796 47.0772 327.796 47.249 327.853 47.4208C327.853 47.5353 327.91 47.6498 327.968 47.7643V47.8216C328.025 47.9361 328.025 47.9934 328.082 48.1079C327.853 47.249 327.681 46.3328 327.681 45.3594C327.681 45.3594 327.624 45.3021 327.51 45.3021C327.51 45.4739 327.51 45.6456 327.567 45.8174C327.567 46.0465 327.624 46.2182 327.624 46.39ZM327.624 46.39C327.681 46.5618 327.681 46.7336 327.739 46.9054C327.796 47.0772 327.796 47.249 327.853 47.4208C327.853 47.5353 327.91 47.6498 327.968 47.7643V47.8216C328.025 47.9361 328.025 47.9934 328.082 48.1079C327.853 47.249 327.681 46.3328 327.681 45.3594C327.681 45.3594 327.624 45.3021 327.51 45.3021C327.51 45.4739 327.51 45.6456 327.567 45.8174C327.567 46.0465 327.624 46.2182 327.624 46.39ZM327.624 46.39C327.681 46.5618 327.681 46.7336 327.739 46.9054C327.796 47.0772 327.796 47.249 327.853 47.4208C327.853 47.5353 327.91 47.6498 327.968 47.7643V47.8216C328.025 47.9361 328.025 47.9934 328.082 48.1079C327.853 47.249 327.681 46.3328 327.681 45.3594C327.681 45.3594 327.624 45.3021 327.51 45.3021C327.51 45.4739 327.51 45.6456 327.567 45.8174C327.567 46.0465 327.624 46.2182 327.624 46.39ZM327.395 46.9627C327.567 48.1652 327.968 49.3104 328.541 50.2266C329.113 51.1428 329.801 51.8299 330.603 52.1162C330.66 52.1162 330.717 52.1736 330.775 52.1736C331.176 52.2881 331.634 52.3453 332.035 52.2881C332.379 52.2308 332.722 52.1163 333.066 51.8873C334.384 51.0856 335.3 49.3104 335.587 47.1345C336.045 43.527 334.556 39.9195 332.321 39.0605C332.264 39.0605 332.207 39.0033 332.15 39.0033C331.978 38.946 331.749 38.8887 331.577 38.8887C331.29 38.8314 331.061 38.8887 330.775 38.946C330.431 39.0032 330.145 39.1178 329.801 39.2896C328.483 40.0913 327.567 41.8663 327.28 44.0423C327.28 44.1568 327.223 44.3287 327.223 44.4432C327.223 44.7295 327.166 44.9585 327.166 45.2448C327.28 45.8174 327.28 46.39 327.395 46.9627ZM328.082 48.1652C327.853 47.3063 327.681 46.3901 327.681 45.4166C327.681 45.1303 327.681 44.844 327.739 44.5577C327.739 44.3859 327.796 44.2141 327.796 44.0423C327.911 43.0116 328.197 42.0954 328.598 41.2938C328.999 40.5494 329.457 39.9767 330.03 39.6331L330.087 39.5759C330.374 39.4041 330.66 39.2895 330.947 39.2323C331.233 39.175 331.462 39.175 331.749 39.2323C331.863 39.2323 332.035 39.2896 332.15 39.3468C334.212 40.1485 335.587 43.5842 335.128 46.9627V47.02C334.842 49.0814 333.983 50.6847 332.837 51.3719C332.264 51.7155 331.577 51.83 330.947 51.6009C330.889 51.6009 330.775 51.5436 330.717 51.5436C330.66 51.5436 330.603 51.4864 330.546 51.4864H330.488C330.03 51.2573 329.572 50.8565 329.171 50.3411C328.712 49.7685 328.369 49.0241 328.082 48.1652C328.082 48.1652 328.082 48.2225 328.082 48.1652ZM327.624 46.39C327.681 46.5618 327.681 46.7336 327.739 46.9054C327.796 47.0772 327.796 47.249 327.853 47.4208C327.853 47.5353 327.91 47.6498 327.968 47.7643V47.8216C328.025 47.9361 328.025 47.9934 328.082 48.1079C327.853 47.249 327.681 46.3328 327.681 45.3594C327.681 45.3594 327.624 45.3021 327.51 45.3021C327.51 45.4739 327.51 45.6456 327.567 45.8174C327.567 46.0465 327.624 46.2182 327.624 46.39ZM327.624 46.39C327.681 46.5618 327.681 46.7336 327.739 46.9054C327.796 47.0772 327.796 47.249 327.853 47.4208C327.853 47.5353 327.91 47.6498 327.968 47.7643V47.8216C328.025 47.9361 328.025 47.9934 328.082 48.1079C327.853 47.249 327.681 46.3328 327.681 45.3594C327.681 45.3594 327.624 45.3021 327.51 45.3021C327.51 45.4739 327.51 45.6456 327.567 45.8174C327.567 46.0465 327.624 46.2182 327.624 46.39ZM327.624 46.39C327.681 46.5618 327.681 46.7336 327.739 46.9054C327.796 47.0772 327.796 47.249 327.853 47.4208C327.853 47.5353 327.91 47.6498 327.968 47.7643V47.8216C328.025 47.9361 328.025 47.9934 328.082 48.1079C327.853 47.249 327.681 46.3328 327.681 45.3594C327.681 45.3594 327.624 45.3021 327.51 45.3021C327.51 45.4739 327.51 45.6456 327.567 45.8174C327.567 46.0465 327.624 46.2182 327.624 46.39ZM327.624 46.39C327.681 46.5618 327.681 46.7336 327.739 46.9054C327.796 47.0772 327.796 47.249 327.853 47.4208C327.853 47.5353 327.91 47.6498 327.968 47.7643V47.8216C328.025 47.9361 328.025 47.9934 328.082 48.1079C327.853 47.249 327.681 46.3328 327.681 45.3594C327.681 45.3594 327.624 45.3021 327.51 45.3021C327.51 45.4739 327.51 45.6456 327.567 45.8174C327.567 46.0465 327.624 46.2182 327.624 46.39ZM327.624 46.39C327.681 46.5618 327.681 46.7336 327.739 46.9054C327.796 47.0772 327.796 47.249 327.853 47.4208C327.853 47.5353 327.91 47.6498 327.968 47.7643V47.8216C328.025 47.9361 328.025 47.9934 328.082 48.1079C327.853 47.249 327.681 46.3328 327.681 45.3594C327.681 45.3594 327.624 45.3021 327.51 45.3021C327.51 45.4739 327.51 45.6456 327.567 45.8174C327.567 46.0465 327.624 46.2182 327.624 46.39ZM327.624 46.39C327.681 46.5618 327.681 46.7336 327.739 46.9054C327.796 47.0772 327.796 47.249 327.853 47.4208C327.853 47.5353 327.91 47.6498 327.968 47.7643V47.8216C328.025 47.9361 328.025 47.9934 328.082 48.1079C327.853 47.249 327.681 46.3328 327.681 45.3594C327.681 45.3594 327.624 45.3021 327.51 45.3021C327.51 45.4739 327.51 45.6456 327.567 45.8174C327.567 46.0465 327.624 46.2182 327.624 46.39ZM327.624 46.39C327.681 46.5618 327.681 46.7336 327.739 46.9054C327.796 47.0772 327.796 47.249 327.853 47.4208C327.853 47.5353 327.91 47.6498 327.968 47.7643V47.8216C328.025 47.9361 328.025 47.9934 328.082 48.1079C327.853 47.249 327.681 46.3328 327.681 45.3594C327.681 45.3594 327.624 45.3021 327.51 45.3021C327.51 45.4739 327.51 45.6456 327.567 45.8174C327.567 46.0465 327.624 46.2182 327.624 46.39Z" fill="#2F1A31"/>
<path d="M327.969 45.4166C328.083 45.4166 328.198 45.302 328.255 45.2447C328.37 45.0728 328.312 44.7865 328.083 44.7292C328.026 44.6719 326.594 43.9272 324.532 44.7292C324.302 44.7865 324.245 45.0156 324.302 45.2447C324.36 45.4738 324.589 45.5311 324.818 45.4739C326.479 44.7864 327.682 45.4166 327.682 45.4166C327.797 45.4166 327.854 45.4739 327.969 45.4166Z" fill="#2F1A31"/>
<path d="M313.475 31.3861C313.475 31.3861 311.069 22.6822 303.393 24.9154C295.717 27.1486 298.008 31.3288 298.868 34.0202C299.498 36.0244 303.221 38.8303 307.002 37.9713C310.726 37.0551 313.475 31.3861 313.475 31.3861Z" fill="#E28569"/>
<path d="M309.866 59.2164C309.809 59.2164 309.751 59.2164 309.751 59.1591C309.637 59.1018 309.637 58.93 309.694 58.8154C309.751 58.7008 311.355 56.3515 314.391 55.1482C314.506 55.0909 314.678 55.1482 314.735 55.2628C314.792 55.3774 314.735 55.5493 314.621 55.6066C311.699 56.8099 310.152 59.1019 310.152 59.1019C310.038 59.1592 309.923 59.2164 309.866 59.2164Z" fill="#E28569"/>
<path d="M260.982 39.97C260.982 39.97 266.062 38.6475 268.761 43.3555C271.46 48.0636 271.46 45.5244 275.799 50.973C280.139 56.4217 271.883 58.1674 273.1 62.5052C274.317 66.8958 278.181 67.5306 276.381 72.9264C274.582 78.3221 270.137 75.8888 269.978 79.433C269.819 82.9773 272.042 86.4158 267.755 86.7332C263.416 87.0506 262.199 86.6803 259.235 91.4942C256.272 96.308 249.18 91.018 243.253 92.4992C237.326 93.9804 222.562 91.5471 221.98 88.3202C221.397 85.0933 210.02 82.078 216.635 73.8786C220.286 69.3821 215.365 69.964 215.365 63.5103C215.365 58.2203 222.562 60.0718 220.074 55.0463C218.963 52.8246 218.804 47.0585 224.308 44.0961C229.812 41.1337 229.706 33.7807 237.485 36.0025C245.264 38.2243 246.323 35.4735 251.191 34.6271C255.954 33.8336 257.912 40.0758 260.982 39.97Z" fill="#6F4975"/>
<path d="M282.203 166.453C282.996 166.611 283.526 167.405 283.42 168.198L281.144 180.683C280.985 181.476 280.192 182.005 279.398 181.899C278.604 181.741 278.075 180.947 278.181 180.154L280.456 167.669C280.615 166.876 281.409 166.347 282.203 166.453Z" fill="#B5815E"/>
<path d="M278.498 165.766C279.292 165.924 279.821 166.718 279.715 167.511L277.122 181.477C276.963 182.27 276.17 182.799 275.376 182.693C274.582 182.535 274.053 181.741 274.159 180.948L276.752 166.982C276.911 166.189 277.651 165.66 278.498 165.766Z" fill="#B5815E"/>
<path d="M278.816 158.36L279.186 158.783C279.821 159.524 279.768 160.688 279.028 161.322L271.777 167.67C271.037 168.305 269.872 168.252 269.237 167.512L268.867 167.088C268.232 166.348 268.285 165.184 269.026 164.549L276.276 158.201C277.017 157.513 278.181 157.566 278.816 158.36Z" fill="#B5815E"/>
<path d="M274.741 165.077C275.535 165.236 276.064 166.03 275.959 166.823L273.895 177.985C273.736 178.778 272.942 179.307 272.148 179.202C271.355 179.043 270.825 178.249 270.931 177.456L272.995 166.294C273.154 165.501 273.948 164.972 274.741 165.077Z" fill="#B5815E"/>
<path d="M286.066 159.84C286.066 159.84 288.977 167.828 285.801 172.959C284.69 174.758 273.736 172.377 273.101 170.156C272.465 167.881 274.582 160.475 274.582 160.475L286.066 159.84Z" fill="#B5815E"/>
<path d="M285.96 167.141C286.754 167.3 287.283 168.04 287.124 168.887L285.06 180.048C284.901 180.842 284.16 181.371 283.314 181.212C282.52 181.053 281.991 180.313 282.15 179.466L284.213 168.305C284.372 167.511 285.113 166.982 285.96 167.141Z" fill="#B5815E"/>
<path d="M272.359 161.535C270.878 145.03 267.438 121.437 259.553 102.71C257.753 98.3727 256.96 96.7328 255.531 94.4052C254.367 92.5009 256.43 88.3218 259.659 86.3116C262.675 84.4601 267.438 84.7246 268.179 85.6768C269.449 87.2638 270.825 90.279 272.942 95.04C280.297 111.703 284.69 133.234 286.436 160.953L272.359 161.535Z" fill="#B5815E"/>
<path d="M251.933 269.185C251.933 269.185 252.039 273.999 255.32 275.321C258.548 276.697 267.967 277.914 264.422 280.982C262.411 282.727 252.938 281.617 250.239 281.617C247.54 281.617 245.053 282.78 243.042 280.982C240.872 279.024 243.042 269.185 243.042 269.185C243.042 269.185 245.371 270.402 247.435 270.349C250.398 270.243 251.933 269.185 251.933 269.185Z" fill="#2F1A31"/>
<path d="M214.677 269.185C214.677 269.185 214.783 273.999 218.064 275.322C221.345 276.644 230.712 277.914 227.166 280.982C225.155 282.728 215.683 281.617 212.984 281.617C210.285 281.617 207.798 282.78 205.787 280.982C203.617 279.025 205.787 269.185 205.787 269.185C205.787 269.185 208.115 270.402 210.179 270.349C213.195 270.243 214.677 269.185 214.677 269.185Z" fill="#2F1A31"/>
<path d="M276.011 137.887C276.011 137.887 275.799 159.946 274 198.88C272.624 229.403 272.889 257.704 270.243 271.088C269.29 275.902 233.887 273.415 234.257 268.178L242.618 173.858L244.206 144.023L276.011 137.887Z" fill="#436E8E"/>
<path d="M217.482 155.555C217.799 157.989 231.558 157.724 248.493 155.555C265.374 153.439 278.551 149.736 278.234 147.303C277.916 144.869 264.316 144.552 247.434 146.721C230.5 148.837 217.164 153.122 217.482 155.555Z" fill="#2F1A31"/>
<path d="M256.59 152.223L225.155 271.088C223.621 275.955 193.827 275.267 194.726 270.136L219.122 157.672C219.387 156.402 220.34 155.344 221.61 154.974C228.383 153.069 257.278 147.409 256.59 152.223Z" fill="#436E8E"/>
<path d="M223.091 88.8506C223.091 88.8506 227.907 75.3611 245 75.943C262.093 76.5778 275.006 99.0073 278.181 147.305C278.181 147.305 250.186 141.168 217.376 155.504C217.429 155.504 215.577 108.529 223.091 88.8506Z" fill="#E28569"/>
<path d="M208.432 83.3485L223.196 95.7798C223.196 95.7798 254.313 98.9008 262.569 97.4197C270.824 95.9385 272.094 89.8551 272.094 89.8551C272.094 89.8551 264.209 79.0637 249.286 76.4188C247.857 76.1543 246.481 76.1013 244.946 75.9955C242.406 75.8368 240.713 76.0484 238.226 76.0484C214.994 75.8368 208.432 83.3485 208.432 83.3485Z" fill="#E28569"/>
<path d="M238.649 221.31L238.067 221.152L247.645 180.26C249.445 174.811 253.149 170.262 258.018 167.458L258.335 167.987C253.572 170.738 249.974 175.129 248.227 180.419L238.649 221.31Z" fill="#020202"/>
<path d="M238.279 75.9952C239.972 75.8365 241.454 74.7256 242.142 73.1915L244.259 68.2719L244.894 66.8436L248.492 58.4326L247.857 67.1081L247.487 72.3452L247.381 73.8264C247.275 75.0431 248.122 76.101 249.339 76.3126C249.974 77.3706 250.874 79.4866 248.228 80.333C245.105 81.391 240.078 78.9576 238.279 75.9952C238.279 76.0481 238.279 76.0481 238.279 75.9952Z" fill="#B5815E"/>
<path d="M244.258 68.1647C244.258 68.2176 244.258 68.2705 244.258 68.3234C244.47 71.1271 247.487 72.4496 247.487 72.4496L247.857 67.2125C246.957 66.8951 245.634 66.5249 244.893 66.8952C244.47 67.0539 244.205 67.4241 244.258 68.1647Z" fill="#2F1A31"/>
<path d="M248.863 69.9656C253.364 69.9656 257.013 65.442 257.013 59.8617C257.013 54.2815 253.364 49.7578 248.863 49.7578C244.362 49.7578 240.713 54.2815 240.713 59.8617C240.713 65.442 244.362 69.9656 248.863 69.9656Z" fill="#B5815E"/>
<path d="M253.308 66.3676C253.308 66.3676 250.504 66.4205 247.699 65.468C247.699 65.468 247.487 68.2198 250.504 68.4315C252.25 68.4844 253.308 66.3676 253.308 66.3676Z" fill="white"/>
<path d="M249.657 59.9662C249.71 59.9662 249.762 59.9133 249.762 59.8604C249.815 59.7546 249.763 59.6487 249.657 59.5958C249.604 59.5958 248.334 58.9078 247.275 60.125C247.222 60.1779 247.222 60.3367 247.275 60.3896C247.328 60.4425 247.434 60.4425 247.54 60.3896C248.387 59.8075 249.498 59.9133 249.551 59.9662C249.604 59.9662 249.657 59.9662 249.657 59.9662Z" fill="#060633"/>
<path d="M248.175 61.9769C248.175 62.4002 248.387 62.7707 248.757 62.8236C249.075 62.8236 249.339 62.5061 249.339 62.0298C249.339 61.6064 249.128 61.236 248.757 61.1831C248.493 61.1831 248.228 61.5535 248.175 61.9769Z" fill="#060633"/>
<path d="M256.325 60.9211C256.377 60.9211 256.43 60.9211 256.483 60.8682C256.536 60.8153 256.536 60.6565 256.483 60.6036C256.43 60.5507 255.531 59.4922 254.049 60.1802C253.943 60.2331 253.89 60.339 253.943 60.4448C253.996 60.5507 254.102 60.5507 254.208 60.5507C255.213 60.339 256.166 60.8682 256.219 60.9211C256.219 60.9211 256.272 60.9211 256.325 60.9211Z" fill="#060633"/>
<path d="M254.155 62.2413C253.996 62.6646 254.049 63.088 254.367 63.1938C254.684 63.2997 255.055 63.088 255.213 62.7176C255.372 62.2942 255.319 61.8708 255.002 61.765C254.737 61.6062 254.367 61.8708 254.155 62.2413Z" fill="#060633"/>
<path d="M222.404 132.175C222.404 132.175 227.061 127.15 231.083 127.203C235.105 127.256 240.185 130.43 237.698 130.906C235.211 131.382 231.824 131.117 231.824 131.117C231.824 131.117 238.968 132.017 238.069 133.604C237.169 135.191 230.924 134.344 230.924 134.344C230.924 134.344 239.339 136.09 238.016 137.307C236.64 138.523 230.236 137.148 230.236 137.148C230.236 137.148 238.016 139.105 236.375 140.481C234.735 141.856 229.972 138.841 229.019 140.428C228.067 142.015 223.833 147.992 219.07 145.929L222.404 132.175Z" fill="#B5815E"/>
<path d="M228.859 131.593C228.806 131.593 228.753 131.593 228.7 131.54C228.647 131.434 228.647 131.328 228.7 131.223C229.759 130.376 231.77 130.905 231.876 130.958C231.981 131.011 232.034 131.117 232.034 131.223C231.981 131.328 231.876 131.381 231.77 131.381C231.77 131.381 229.865 130.852 229.018 131.593C228.912 131.54 228.912 131.593 228.859 131.593Z" fill="#936241"/>
<path d="M227.324 134.819C227.271 134.819 227.166 134.767 227.166 134.714C227.113 134.608 227.166 134.502 227.271 134.449C228.912 133.549 230.87 134.132 230.976 134.132C231.082 134.184 231.135 134.29 231.135 134.396C231.082 134.502 230.976 134.555 230.87 134.555C230.87 134.555 229.018 134.026 227.483 134.819C227.377 134.819 227.377 134.819 227.324 134.819Z" fill="#936241"/>
<path d="M226.848 137.622C226.795 137.622 226.742 137.622 226.689 137.57C226.583 137.464 226.583 137.358 226.689 137.252C227.694 136.247 230.129 136.882 230.235 136.934C230.34 136.987 230.393 137.093 230.393 137.199C230.34 137.305 230.235 137.358 230.129 137.358C230.129 137.358 227.853 136.723 227.007 137.57C226.954 137.622 226.901 137.622 226.848 137.622Z" fill="#936241"/>
<path d="M208.432 83.3476C207.215 85.1462 209.703 87.5267 214.889 91.2296C220.075 94.9855 222.297 96.308 223.568 94.5094C224.785 92.7108 223.356 89.6955 218.223 85.9397C214.412 83.1889 209.65 81.549 208.432 83.3476Z" fill="#2F1A31"/>
<path d="M222.032 144.235L226.583 134.184C227.218 132.808 226.689 131.169 225.419 130.428C218.963 126.725 215.205 122.334 214.306 117.256C213.036 110.273 217.005 102.233 220.444 97.0484C222.244 94.4034 222.403 91.8112 219.598 88.5315C218.434 87.1561 217.269 86.2568 213.565 84.6698C211.766 83.9292 209.966 83.6647 208.961 84.9872C207.373 86.9974 206.262 88.6902 204.092 92.7105C198.906 102.285 196.948 111.86 198.483 120.377C200.335 130.798 206.95 139.262 218.222 145.557C219.651 146.298 221.344 145.716 222.032 144.235Z" fill="#B5815E"/>
<path d="M204.04 119.425C203.669 119.425 203.299 119.319 202.981 119.108C202.134 118.579 201.447 117.574 201.129 116.304C200.653 114.294 201.341 112.337 202.717 111.966C203.193 111.808 203.722 111.913 204.251 112.231C205.098 112.76 205.786 113.765 206.103 115.035C206.58 117.045 205.892 119.002 204.516 119.372C204.357 119.425 204.198 119.425 204.04 119.425ZM203.14 112.337C203.034 112.337 202.928 112.337 202.77 112.39C201.605 112.707 201.076 114.4 201.499 116.251C201.764 117.362 202.399 118.314 203.14 118.79C203.563 119.055 203.987 119.108 204.357 119.002C205.521 118.685 206.051 116.992 205.627 115.14C205.363 114.029 204.728 113.077 203.987 112.601C203.722 112.442 203.457 112.337 203.14 112.337Z" fill="#936241"/>
<path d="M231.029 152.911C231.029 152.911 264.739 146.457 275.693 149.525L270.454 157.301L250.98 158.412L231.029 152.911Z" fill="#436E8E"/>
<path d="M240.872 61.3966C241.824 62.2964 243.095 62.3494 243.782 61.6083C244.47 60.8143 244.259 59.491 243.306 58.5911C242.354 57.6913 241.084 57.6383 240.396 58.3794C239.708 59.1734 239.919 60.4967 240.872 61.3966Z" fill="#B5815E"/>
<path d="M252.832 52.7726C252.832 52.7726 252.409 55.6292 249.339 55.3647C249.339 55.3647 249.392 57.7452 246.429 57.1104C246.429 57.1104 246.641 58.6973 244.524 58.856C244.524 58.856 243.624 60.3901 241.296 59.4379C238.914 58.4328 237.75 53.6719 240.343 51.1856C242.936 48.7522 249.498 46.8478 253.308 48.8051C257.119 50.7624 259.13 58.9618 258.124 59.385C257.119 59.8082 254.843 59.3321 254.737 57.4807C254.737 57.4807 252.726 56.6343 253.308 54.7828C253.308 54.7828 252.779 53.619 252.832 52.7726Z" fill="#6F4975"/>
<path d="M240.925 68.007C240.713 68.007 240.555 68.0071 240.396 67.9542C238.967 67.7426 237.75 66.6316 237.644 65.4679C237.538 63.4048 239.549 61.765 239.655 61.7121C239.761 61.6592 239.867 61.6591 239.972 61.7649C240.078 61.8707 240.025 61.9765 239.92 62.0823C239.92 62.0823 237.961 63.6693 238.067 65.5208C238.12 66.4729 239.232 67.4251 240.449 67.5838C241.878 67.7954 242.989 67.002 243.624 65.415C244.1 64.2512 244.1 63.2461 243.677 62.4527C242.989 61.1302 241.348 60.707 241.348 60.707C241.242 60.6541 241.19 60.5483 241.19 60.4425C241.243 60.3367 241.348 60.2838 241.454 60.2838C241.507 60.2838 243.306 60.7599 244.1 62.241C244.576 63.1932 244.576 64.3041 244.1 65.5737C243.201 67.6368 241.825 68.007 240.925 68.007Z" fill="#E28569"/>
<path d="M253.996 70.5995C252.885 70.5995 252.091 70.1233 252.091 70.1233C251.985 70.0704 251.985 69.9117 252.038 69.8588C252.091 69.753 252.25 69.7531 252.303 69.806C252.409 69.8589 254.472 71.0755 256.378 69.1711C258.23 67.2667 256.907 65.1508 256.907 65.1508C256.854 65.045 256.854 64.9392 256.96 64.8863C257.066 64.8334 257.171 64.8333 257.224 64.9391C257.224 64.9391 258.759 67.3725 256.642 69.4885C255.795 70.3349 254.79 70.5995 253.996 70.5995Z" fill="#E28569"/>
<path d="M242.249 35.6868C241.402 35.6868 240.449 35.5809 239.444 35.2634C239.338 35.2105 239.285 35.1047 239.285 34.9988C239.338 34.893 239.444 34.8401 239.55 34.8401C244.26 36.3218 247.488 33.4113 247.541 33.4113C247.647 33.3584 247.752 33.3584 247.858 33.4113C247.911 33.5171 247.911 33.6229 247.858 33.7288C247.805 33.7288 245.636 35.6868 242.249 35.6868Z" fill="#6F4975"/>
<path d="M274.899 48.2231C274.846 48.2231 274.846 48.2231 274.793 48.2231C274.635 48.1702 271.301 46.3716 269.078 42.6686C266.644 38.6482 263.521 38.8598 262.251 39.1243C260.293 39.5475 258.917 38.0663 258.864 38.0134C258.811 37.9076 258.811 37.8018 258.864 37.696C258.97 37.6431 259.076 37.6431 259.182 37.696C259.182 37.696 260.452 39.0714 262.198 38.7011C263.521 38.3837 266.908 38.1721 269.448 42.4041C271.618 46.0013 275.005 47.747 275.005 47.7999C275.111 47.8528 275.164 47.9586 275.111 48.0644C275.058 48.1702 274.952 48.2231 274.899 48.2231Z" fill="#6F4975"/>
<path d="M217.217 59.1201C217.164 59.1201 217.058 59.0673 217.058 59.0144C217.005 58.9086 217.058 58.8028 217.164 58.7499C219.281 57.5861 218.911 56.6868 217.482 53.6715C215.947 50.5504 219.069 47.4822 219.175 47.3764C219.281 47.2706 219.387 47.2706 219.493 47.3764C219.599 47.4822 219.599 47.588 219.493 47.6938C219.44 47.7467 216.476 50.7091 217.852 53.5128C219.334 56.5281 219.81 57.7976 217.376 59.173C217.323 59.1201 217.27 59.1201 217.217 59.1201Z" fill="#6F4975"/>
<path d="M214.518 74.2483C214.465 74.2483 214.412 74.1954 214.359 74.1425C214.306 74.0367 214.306 73.9309 214.412 73.8251C217.005 72.0265 215.47 69.6988 215.417 69.593C215.364 69.4872 215.364 69.3814 215.47 69.3285C215.576 69.2756 215.682 69.2755 215.735 69.3813C215.735 69.4342 217.587 72.1322 214.624 74.1954C214.571 74.2483 214.518 74.2483 214.518 74.2483Z" fill="#6F4975"/>
<path d="M229.335 50.9199C229.282 50.9199 229.176 50.867 229.176 50.8141C229.123 50.7612 227.959 48.9097 228.488 46.8996C228.806 45.63 229.706 44.572 231.134 43.7256C233.516 42.4031 234.892 42.7734 236.373 43.1437C237.802 43.514 239.337 43.9372 242.036 42.7205C247.645 40.2343 250.027 43.7785 250.027 43.7785C250.08 43.8843 250.08 43.9901 249.974 44.043C249.868 44.0959 249.762 44.0959 249.709 43.9901C249.603 43.8314 247.487 40.7104 242.248 43.0909C239.39 44.3604 237.749 43.9372 236.321 43.514C234.892 43.1437 233.622 42.8263 231.399 44.043C230.023 44.8365 229.229 45.7887 228.912 46.9525C228.435 48.8039 229.547 50.5496 229.547 50.5496C229.6 50.6554 229.6 50.7612 229.494 50.8141C229.441 50.9199 229.388 50.9199 229.335 50.9199Z" fill="#2F1A31"/>
<path d="M267.491 68.5886H267.438C267.332 68.5357 267.279 68.4299 267.279 68.3241C267.755 66.6313 266.909 66.2081 265.427 65.4675C264.792 65.1501 264.104 64.7799 263.416 64.2509C262.887 63.8806 262.675 63.5103 262.675 63.1929C262.675 62.7168 263.204 62.3994 263.839 62.0291C264.633 61.553 265.586 60.9711 265.638 59.9131C265.691 58.5907 265.003 58.3791 263.945 58.1146C263.257 57.9559 262.41 57.7443 261.722 57.1095C260.823 56.316 260.876 55.3638 260.929 54.6232C260.981 53.8298 260.981 53.4595 260.346 53.3008C258.494 52.8776 258.177 50.7616 258.177 50.6558C258.177 50.55 258.23 50.4442 258.335 50.4442C258.441 50.4442 258.547 50.4971 258.547 50.6029C258.547 50.6029 258.865 52.5073 260.399 52.8776C261.458 53.1421 261.405 53.8827 261.299 54.6232C261.246 55.3638 261.193 56.1044 261.934 56.7392C262.569 57.2682 263.31 57.4798 263.945 57.6385C265.056 57.903 266.062 58.1675 265.956 59.8602C265.903 61.1298 264.792 61.7646 263.945 62.2936C263.469 62.5581 262.992 62.8755 262.992 63.0871C262.992 63.2458 263.204 63.5103 263.575 63.7748C264.263 64.2509 264.951 64.6211 265.533 64.9385C267.014 65.6791 268.179 66.261 267.596 68.3241C267.649 68.5357 267.596 68.5886 267.491 68.5886Z" fill="#2F1A31"/>
<path d="M227.324 72.0284C227.324 72.0284 227.324 71.9755 227.324 72.0284C227.165 72.0284 227.112 71.9226 227.112 71.8168C227.324 70.2298 226.054 68.9602 224.942 67.8494C224.043 66.9501 223.249 66.1566 223.408 65.3631C223.514 64.8341 223.937 64.4109 224.731 63.9877C225.948 63.353 226.742 62.5594 227.006 61.6602C227.377 60.3377 226.636 59.121 226.636 59.121C226.583 59.0152 226.583 58.9094 226.689 58.8565C226.795 58.8036 226.901 58.8036 226.953 58.9094C227.006 58.9623 227.8 60.2848 227.377 61.7659C227.059 62.8239 226.266 63.7232 224.89 64.358C224.202 64.6754 223.831 65.0457 223.778 65.416C223.672 65.9979 224.36 66.7385 225.207 67.532C226.318 68.6429 227.747 70.0711 227.483 71.8697C227.536 71.9226 227.43 72.0284 227.324 72.0284Z" fill="#2F1A31"/>
<path d="M314.591 272.428C314.591 272.428 326.219 285.656 337.562 281.991C348.847 278.326 345.754 284.568 342.316 286.171C338.822 287.832 322.324 292.356 314.648 281.991C306.914 271.627 314.591 272.428 314.591 272.428Z" fill="#2F1A31"/>
<path d="M259.597 211.902C259.597 211.902 249.973 214.995 247.223 233.433C244.474 251.872 243.213 259.545 250.718 259.717C258.222 259.889 262.06 248.78 258.566 241.278C255.071 233.72 261.201 213.735 259.597 211.902Z" fill="#2F1A31"/>
<path d="M263.149 210.641C263.149 210.641 252.494 212.417 251.921 223.64C251.348 234.864 264.581 237.04 271.799 232.402C279.017 227.763 282.282 210.756 263.149 210.641Z" fill="#E28569"/>
<path d="M259.597 219.977C259.597 220.836 259.138 221.466 258.566 221.466C257.993 221.466 257.534 220.779 257.534 219.977C257.534 219.117 257.993 218.487 258.566 218.487C259.138 218.43 259.597 219.117 259.597 219.977Z" fill="#2F1A31"/>
<path d="M268.419 219.976C268.419 220.835 267.961 221.466 267.388 221.466C266.815 221.466 266.357 220.778 266.357 219.976C266.357 219.117 266.815 218.487 267.388 218.487C267.961 218.487 268.419 219.117 268.419 219.976Z" fill="#2F1A31"/>
<path d="M254.842 231.659C254.842 231.659 258.451 234.407 255.816 238.244C253.181 242.08 244.072 252.731 254.842 272.43C265.612 292.128 314.476 292.128 317.741 286.975C321.006 281.764 326.391 260.977 301.987 253.59C285.375 248.551 275.579 223.642 275.579 223.642C275.579 223.642 266.528 234.923 254.842 231.659Z" fill="#E28569"/>
<path d="M250.66 259.657L257.534 281.704C257.534 281.704 251.118 277.581 246.765 281.704C242.411 285.826 246.937 289.091 259.597 288.518C272.257 287.945 262.919 264.009 262.919 264.009L250.66 259.657Z" fill="#E28569"/>
<path d="M303.591 261.433C303.591 261.433 291.16 259.257 289.385 269.851C287.552 280.444 292.593 282.048 292.593 282.048C292.593 282.048 278.042 280.044 275.121 284.396C272.199 288.748 274.032 289.664 279.875 289.32C285.718 288.977 315.621 292.641 318.543 285.255C321.464 277.868 318.715 266.301 316.022 262.349C313.387 258.456 303.591 261.433 303.591 261.433Z" fill="#E28569"/>
<path d="M264.065 256.337L272.486 283.48C272.486 283.48 264.638 278.441 259.253 283.48C253.869 288.519 258.91 290.638 274.434 289.951C289.958 289.263 279.131 261.72 279.131 261.72L264.065 256.337Z" fill="#E28569"/>
<path d="M256.046 266.415C256.046 266.415 252.494 262.865 253.239 257.596C253.983 252.328 252.437 246.487 256.046 244.941C259.655 243.395 260.686 251.641 262.977 254.218C265.268 256.795 268.19 259.83 267.273 264.067C266.357 268.362 271.742 272.599 268.018 273.458C264.295 274.26 260.628 273.573 256.046 266.415Z" fill="#F9CBC0"/>
<path d="M257.649 288.748C257.649 288.69 255.873 285.484 259.139 282.391C262.06 279.643 268.992 281.418 270.596 281.876L269.164 275.176L269.565 275.119L271.111 282.506L270.768 282.391C270.71 282.391 262.461 279.814 259.368 282.678C256.332 285.541 257.878 288.404 257.993 288.519L257.649 288.748Z" fill="#2F1A31"/>
<path d="M283.255 289.436C283.255 289.379 281.88 285.542 284.973 283.881C287.666 282.45 294.597 283.48 296.373 283.767C295.285 281.705 290.473 272.257 292.821 267.332C293.509 265.844 294.826 264.87 296.717 264.526C306.57 262.694 308.231 267.218 308.345 267.39L307.944 267.504C307.944 267.447 306.283 263.152 296.831 264.927C295.113 265.271 293.852 266.13 293.222 267.504C290.759 272.772 296.888 283.824 296.946 283.939L297.175 284.339L296.774 284.282C296.659 284.282 288.124 282.736 285.202 284.282C282.395 285.771 283.656 289.264 283.656 289.321L283.255 289.436Z" fill="#2F1A31"/>
<path d="M256.274 230.855C256.274 230.855 259.826 232.859 260.972 231.198C262.117 229.538 261.544 229.652 261.544 229.652C261.544 229.652 262.175 231.656 263.607 231.656C265.039 231.656 267.788 231.084 268.361 229.652C268.934 228.221 268.533 226.617 266.356 227.133C264.18 227.705 256.675 225.472 255.587 226.159C254.498 226.732 253.639 230.339 256.274 230.855Z" fill="#F9CBC0"/>
<path d="M256.733 224.155C256.733 224.155 264.695 223.353 266.127 224.613C267.502 225.873 262.919 229.023 261.43 228.909C259.941 228.794 254.327 225.3 256.733 224.155Z" fill="#2F1A31"/>
<path d="M270.195 213.848C270.195 213.848 280.22 223.869 274.949 237.727C269.679 251.585 273.689 264.526 287.38 264.011C301.071 263.495 284.229 221.006 278.787 217.112C273.345 213.276 269.851 210.584 270.195 213.848Z" fill="#2F1A31"/>
<path d="M263.492 218.715C263.492 218.715 263.377 217.226 264.294 215.336C265.153 213.447 264.81 211.729 262.862 211.9C260.971 212.072 261.372 213.905 260.971 215.737C260.628 217.627 260.857 220.777 262.06 220.376C263.263 219.975 263.778 220.318 263.492 218.715Z" fill="#F9CBC0"/>
</svg>
