<svg width="1440" height="682" fill="none" xmlns="http://www.w3.org/2000/svg"><path fill="url(#a)" fill-opacity=".2" d="M0 1h1440v681H0z"/><mask id="b" style="mask-type:alpha" maskUnits="userSpaceOnUse" x="0" y="0" width="1440" height="680"><path fill="#fff" d="M0 0h1440v680H0z"/></mask><g mask="url(#b)"><g filter="url(#c)"><ellipse cx="1304" cy="72" rx="327" ry="298" fill="url(#d)" fill-opacity=".72"/></g><g filter="url(#e)"><ellipse cx="145" cy="657.5" rx="294" ry="221.5" fill="url(#f)" fill-opacity=".17"/></g></g><path d="M229.707 555.798c-5.688-18.395-22.33-32.474-41.371-34.596-4.513-.502-9.742-.27-13.238 3.059-2.809 2.668-3.563 6.648-2.841 10.358 2.021 10.474 13.014 13.291 22.171 12.91 12.774-.551 25.898-3.698 36.754-10.666 1.902-1.218.142-4.283-1.77-3.06-8.195 5.254-17.484 8.098-27.067 9.432-7.988 1.103-20.216 2.608-25.193-5.573-1.847-3.037-2.568-7.486-.071-10.391 2.923-3.401 8.43-2.971 12.408-2.376a46.14 46.14 0 0 1 22.885 10.678 46.765 46.765 0 0 1 13.951 21.19c.672 2.172 4.06 1.246 3.382-.937v-.028ZM1280.05 421.875c-3.93 1.955-5.82 6.719-4.76 10.908 1.15 4.508 5.66 6.883 10.1 6.144 4.44-.739 7.89-4.379 7.58-8.978a9.62 9.62 0 0 0-2.67-6.026 9.673 9.673 0 0 0-5.92-2.909c-2.51-.281-2.49 3.665 0 3.921 2.49.257 4.55 2.81 4.69 5.308.15 2.766-2.16 4.629-4.75 4.886-5.99.61-7.17-7.433-2.29-9.864 2.26-1.124.28-4.507-1.98-3.39Z" fill="#fff"/><defs><radialGradient id="d" cx="0" cy="0" r="1" gradientUnits="userSpaceOnUse" gradientTransform="rotate(139.397 741.331 252.564) scale(544.184 538.795)"><stop stop-color="#D3FF24"/><stop offset=".474" stop-color="#0EE7C0"/><stop offset="1" stop-color="#A9D6FF"/></radialGradient><radialGradient id="f" cx="0" cy="0" r="1" gradientUnits="userSpaceOnUse" gradientTransform="matrix(-371.46741 263.24727 -248.83911 -351.13612 292.941 575.628)"><stop stop-color="#D3FF24"/><stop offset=".474" stop-color="#0EE7C0"/><stop offset="1" stop-color="#A9D6FF"/></radialGradient><filter id="c" x="615" y="-588" width="1378" height="1320" filterUnits="userSpaceOnUse" color-interpolation-filters="sRGB"><feFlood flood-opacity="0" result="BackgroundImageFix"/><feBlend in="SourceGraphic" in2="BackgroundImageFix" result="shape"/><feGaussianBlur stdDeviation="181" result="effect1_foregroundBlur_1_7"/></filter><filter id="e" x="-511" y="74" width="1312" height="1167" filterUnits="userSpaceOnUse" color-interpolation-filters="sRGB"><feFlood flood-opacity="0" result="BackgroundImageFix"/><feBlend in="SourceGraphic" in2="BackgroundImageFix" result="shape"/><feGaussianBlur stdDeviation="181" result="effect1_foregroundBlur_1_7"/></filter><linearGradient id="a" x1="1440" y1="1" x2="892.235" y2="1097.3" gradientUnits="userSpaceOnUse"><stop stop-color="#76DDBE"/><stop offset=".42" stop-color="#C7F1DD"/><stop offset="1" stop-color="#F2FE63"/></linearGradient></defs></svg>