<svg width="375" height="293" fill="none" xmlns="http://www.w3.org/2000/svg"><path d="M71.452 63.607c.665-5.48 7.032-8.302 11.628-5.258 7.752 5.092 20.487 11.015 31.285 6.974 6.866-2.546 8.084-6.808 10.575-8.967 3.544-3.044 8.971-2.214 11.407 1.772 1.606 2.656 1.495 6.033-.388 8.523-6.312 8.303-22.425 24.853-46.345 15.775-15.67-5.922-18.882-13.118-18.162-18.819Z" fill="#F7B686"/><path d="M22.947 266.244s.11 5.535 3.876 7.085c3.765 1.55 14.507 2.934 10.52 6.476-2.325 2.048-13.234.72-16.334.72-3.101 0-5.98 1.328-8.25-.72-2.548-2.269 0-13.561 0-13.561s2.657 1.384 5.038 1.329c3.433-.111 5.15-1.329 5.15-1.329ZM72.138 266.64s.11 5.535 3.876 7.085c3.765 1.55 14.507 2.933 10.52 6.476-2.325 2.048-13.233.719-16.334.719-3.1 0-5.98 1.329-8.25-.719-2.547-2.269 0-13.561 0-13.561s2.658 1.384 5.039 1.329c3.433-.111 5.15-1.329 5.15-1.329Z" fill="#2F1A31"/><path d="M93.489 115.193s-.277 25.406-2.326 70.184c-1.605 35.092-1.273 67.637-4.374 83.08-1.107 5.535-41.86 2.712-41.418-3.376l9.635-108.486 1.827-34.372 36.656-7.03Z" fill="#96A7E2"/><path d="M26.158 135.507c.333 2.823 16.224 2.491 35.66 0 19.435-2.435 34.55-6.642 34.219-9.465-.333-2.823-16.003-3.155-35.438-.664-19.49 2.435-34.773 7.306-34.44 10.129Z" fill="#2F1A31"/><path d="M71.176 131.689 35.018 268.458c-1.716 5.59-36.046 4.816-34.994-1.107l28.073-129.352a4.193 4.193 0 0 1 2.88-3.1c7.751-2.214 40.974-8.745 40.199-3.21Z" fill="#96A7E2"/><path d="M28.595 58.462S38.118 43.296 57.83 43.96c19.656.72 34.496 26.568 38.206 82.084 0 0-32.226-7.085-69.934 9.409 0 0-10.742-50.423 2.492-76.991Z" fill="#FFD4A3"/><path d="m15.749 52.482 16.999 14.335s35.271 12.288 44.795 10.517c9.524-1.716 11.517-17.38 11.517-17.38s-9.025-12.398-26.246-15.498c-1.606-.277-3.267-.332-4.983-.443-2.935-.221-4.873.056-7.752.056-26.8-.277-34.33 8.413-34.33 8.413Z" fill="#FFD4A3"/><path d="m50.522 211.17-.665-.166 11.02-47.047c2.048-6.31 6.312-11.513 11.96-14.723l.332.609a25.777 25.777 0 0 0-11.628 14.335L50.52 211.17Z" fill="#020202"/><path d="M31.806 108.607s5.371-5.812 9.967-5.701c4.651.11 10.465 3.708 7.586 4.262-2.88.553-6.755.221-6.755.221s8.25 1.052 7.143 2.878c-1.108 1.827-8.25.83-8.25.83s9.69 2.048 8.139 3.432c-1.55 1.384-8.915-.221-8.915-.221s8.97 2.269 7.088 3.819c-1.883 1.55-7.365-1.882-8.472-.111-1.108 1.827-5.98 8.69-11.407 6.31l3.876-15.719Z" fill="#F7B686"/><path opacity=".3" d="m39.448 107.943-.443-.553c1.218-1.053 3.654-.388 3.71-.333l-.166.665c-.61-.111-2.326-.388-3.101.221ZM37.676 111.762l-.333-.609c1.938-1.052 4.264-.387 4.32-.387l-.222.664c0 .055-2.104-.554-3.765.332ZM37.178 114.918l-.499-.498c1.219-1.218 4.042-.443 4.153-.388l-.166.665c-.72-.222-2.713-.554-3.488.221Z" fill="#E08B65"/><path d="M15.748 52.482c-1.44 2.048 1.496 4.816 7.42 9.078 5.925 4.317 8.527 5.811 9.967 3.763 1.44-2.048-.277-5.535-6.201-9.852-4.32-3.21-9.746-5.037-11.186-2.989Z" fill="#2F1A31"/><path d="m31.364 122.499 5.26-11.568c.72-1.605.11-3.487-1.329-4.318-7.42-4.261-11.739-9.354-12.79-15.11-1.44-8.026 3.1-17.27 7.087-23.247 2.049-3.044 2.27-6.033-.941-9.797-1.33-1.55-2.658-2.657-6.922-4.428-2.049-.885-4.097-1.162-5.26.332-1.827 2.325-3.1 4.207-5.593 8.856-5.98 11.015-8.194 22.03-6.478 31.826 2.16 12.011 9.745 21.753 22.702 28.948 1.55.886 3.489.222 4.264-1.494Z" fill="#F7B686"/><path d="M41.773 132.463s38.815-7.417 51.384-3.93l-6.035 8.967-22.425 1.273-22.924-6.31Z" fill="#96A7E2"/><path d="M62.038 43.959S57.664 42.243 57 39.807c-.665-2.435-2.326-1.66-3.212-2.324-.941-.609 1.661-7.196 1.661-7.196l9.026-3.32-.942 11.568-1.495 5.424Z" fill="#436E8E"/><path d="M42.437 44.236c1.938-.221 4.319-2.103 5.094-3.874l2.38-5.59.72-1.606 4.098-9.52-.72 9.852-.443 5.923-.11 1.66c-.111 1.384.885 2.602 2.214 2.823.72 1.162 1.052 4.317-2.27 4.87-6.81 1.274-10.963-4.538-10.963-4.538Z" fill="#F7B686"/><path d="M49.913 34.603v.166c.221 3.155 3.654 4.65 3.654 4.65l.443-5.923c-1.052-.387-2.547-.775-3.377-.332-.443.166-.72.664-.72 1.44Z" fill="#2F1A31"/><path d="M55.173 36.652c5.107 0 9.247-5.13 9.247-11.458 0-6.327-4.14-11.457-9.247-11.457s-9.247 5.13-9.247 11.457c0 6.328 4.14 11.458 9.247 11.458Z" fill="#F7B686"/><path d="M60.156 32.613s-3.157.055-6.313-1.052c0 0-.277 3.1 3.156 3.322 1.994.11 3.157-2.27 3.157-2.27Z" fill="#fff"/><path d="M56.059 25.307c.055 0 .11-.056.166-.111.055-.11 0-.222-.111-.277-.055 0-1.495-.775-2.713.61-.056.11-.056.22 0 .276.11.055.221.055.276 0 .942-.664 2.215-.554 2.27-.498h.111ZM53.955 27.52c0 .5.277.942.609.942.388 0 .664-.387.664-.886 0-.498-.276-.941-.609-.941-.332 0-.664.387-.664.886ZM59.935 27.908c-.056.498.221.941.553.997.388.055.72-.333.72-.831.056-.498-.221-.941-.554-.997-.332-.055-.664.333-.72.83Z" fill="#060633"/><path d="M50.688 17.889c7.087 1.715 12.126 8.025 12.347 15.332v1.328s-4.817 1.051-5.038 5.756c-.056 1.495 4.153 3.986 4.485 3.875 2.215-.996 8.084-6.42 6.755-17.214-1.329-10.793-5.482-18.708-15.393-19.04-9.912-.333-8.583 6.254-8.583 6.254s1.661 2.823 5.427 3.709Z" fill="#436E8E"/><path d="M52.072 17.89s-.167.11-.443.331c-1.052.83-3.655 3.155-4.098 6.642-.554 4.373 3.655 7.085 2.492 10.461-1.163 3.377-4.208-.387-6.7.166-2.492.554-4.32-.553-4.485-5.535-.166-4.926.996-16.494 6.866-16.494" fill="#436E8E"/><path d="M46.092 26.913c1.052.996 2.491 1.107 3.267.221.775-.886.553-2.381-.499-3.378-1.052-.997-2.492-1.108-3.267-.222-.83.831-.553 2.382.499 3.379Z" fill="#F7B686"/><path d="M65.472 38.59h-.11c.663-7.085-1.883-14.004-4.707-17.657-4.375-5.701-9.081-4.982-9.137-4.926v-.11c.056 0 4.818-.776 9.247 4.98 2.824 3.654 5.371 10.572 4.707 17.713ZM43.157 31.561c-.997-2.103-1.44-5.147-1.163-8.413.222-2.878.997-5.535 1.938-6.753 1.883-2.435 4.873-1.162 4.928-1.106l-.055.11c-.056 0-2.935-1.273-4.762 1.107-1.827 2.38-2.99 10.406-.775 15l-.111.055Z" fill="#2F1A31"/><path d="M65.97 29.79c0-.11-.83-13.394-6.146-15.664-5.316-2.27-9.247.61-9.302.664l-.056-.11c.055-.056 4.042-2.99 9.413-.665s6.202 15.665 6.202 15.775h-.111Z" fill="#2F1A31"/><path d="M162.315 269.399a2.363 2.363 0 0 1-2.381-2.38v-3.709a2.363 2.363 0 0 1 2.381-2.38 2.363 2.363 0 0 1 2.381 2.38v3.709a2.363 2.363 0 0 1-2.381 2.38Z" fill="#436E8E"/><path d="M199.414 146.966a1.585 1.585 0 0 1 1.052 1.937l-3.876 12.786a1.587 1.587 0 0 1-1.938 1.052 1.587 1.587 0 0 1-1.052-1.938l3.876-12.785c.222-.831 1.108-1.273 1.938-1.052ZM195.539 145.803a1.586 1.586 0 0 1 1.052 1.937l-4.319 14.336a1.586 1.586 0 0 1-1.938 1.051 1.584 1.584 0 0 1-1.052-1.937l4.319-14.335c.221-.831 1.107-1.274 1.938-1.052ZM196.757 138.055l.332.442c.609.831.387 2.048-.499 2.657l-8.361 5.757c-.83.608-2.048.387-2.657-.499l-.333-.442c-.609-.831-.387-2.048.499-2.657l8.361-5.757a1.992 1.992 0 0 1 2.658.499Z" fill="#F7B686"/><path d="M191.717 144.641a1.586 1.586 0 0 1 1.052 1.937l-3.489 11.513a1.585 1.585 0 0 1-1.938 1.051 1.586 1.586 0 0 1-1.052-1.937l3.489-11.513c.221-.83 1.107-1.273 1.938-1.051Z" fill="#F7B686"/><path d="M204.176 140.491s2.104 8.69-1.827 13.727c-1.385 1.716-12.57-1.993-12.957-4.428-.388-2.436 2.713-9.963 2.713-9.963l12.071.664Z" fill="#F7B686"/><path d="M203.235 148.128c.831.221 1.274 1.107 1.052 1.937l-3.433 11.458c-.221.83-1.107 1.273-1.938 1.051-.83-.221-1.273-1.107-1.052-1.937l3.433-11.457a1.519 1.519 0 0 1 1.938-1.052ZM104.398 146.631c-.831.166-1.385 1.051-1.219 1.882l2.88 13.062c.166.83 1.052 1.384 1.882 1.218.831-.166 1.385-1.052 1.218-1.882l-2.879-13.062c-.166-.886-.997-1.384-1.882-1.218ZM108.328 145.746c-.831.166-1.384 1.051-1.218 1.882l3.267 14.612c.166.83 1.052 1.384 1.882 1.218.831-.166 1.385-1.052 1.218-1.882l-3.266-14.613c-.167-.83-1.052-1.383-1.883-1.217ZM107.72 137.942l-.333.443c-.664.83-.553 1.992.277 2.656l7.918 6.366c.831.664 1.994.553 2.658-.277l.332-.443c.665-.83.554-1.993-.276-2.657l-7.919-6.365c-.83-.664-1.993-.554-2.657.277Z" fill="#F7B686"/><path d="M112.26 144.916c-.831.166-1.384 1.051-1.218 1.882l2.602 11.734c.166.83 1.052 1.383 1.883 1.217.83-.166 1.384-1.051 1.218-1.882l-2.603-11.734c-.221-.885-1.052-1.439-1.882-1.217Z" fill="#F7B686"/><path d="M100.078 139.768s-2.768 8.524.831 13.782c1.218 1.826 12.68-1.052 13.289-3.432.554-2.38-1.938-10.129-1.938-10.129l-12.182-.221Z" fill="#F7B686"/><path d="M100.521 147.462c-.83.166-1.384 1.052-1.163 1.882l2.603 11.679c.166.83 1.052 1.384 1.882 1.162.831-.166 1.385-1.051 1.163-1.881l-2.602-11.679c-.222-.775-1.052-1.329-1.883-1.163ZM189.613 140.655c.332-17.491-.499-42.62-6.59-63.154-1.384-4.76-1.993-6.531-3.211-9.188-.997-2.103 1.661-6.255 5.26-7.97 3.378-1.606 8.306-.72 9.026.331 1.162 1.827 2.214 5.148 3.876 10.406 5.758 18.321 7.862 41.402 6.478 70.682l-14.839-1.107Z" fill="#F7B686"/><path d="M124.497 136.89c.055 2.713 16.39 3.764 36.545 3.155 20.155-.608 36.268-3.431 36.212-6.088-.055-2.712-16.279-4.262-36.489-3.653-20.1.609-36.324 3.874-36.268 6.586Z" fill="#2F1A31"/><path d="M129.48 60.564s3.544-14.114 29.901-14.28c37.929-.222 34.441 34.649 37.929 87.619 0 0-23.034-10.24-72.813 2.324 0 0-3.267-54.077 4.983-75.663Z" fill="#CFD3A3"/><path d="m119.735 58.516 17.165 9.52s37.653 3.432 47.62 1.771c9.966-1.66 12.735-8.967 12.735-8.967s-10.631-11.014-28.738-13.948a53.755 53.755 0 0 0-5.315-.609 50.313 50.313 0 0 0-9.137.166c-22.868 2.602-34.33 12.067-34.33 12.067Z" fill="#CFD3A3"/><path d="m155.726 43.073 1.993-6.421.554-1.882 3.378-10.96.443 10.905.276 6.531.111 2.048c.055 1.384.941 1.716 1.938 2.934.443.498 3.156 3.487.055 4.87-3.82 1.716-10.963-.885-13.732-4.206.056 0 4.319-1.771 4.984-3.82Z" fill="#F7B686"/><path d="M134.215 69.653c1.492-2.053-.628-6.135-4.734-9.117-4.107-2.983-8.646-3.737-10.138-1.684-1.492 2.052.628 6.134 4.735 9.117 4.107 2.983 8.645 3.737 10.137 1.684Z" fill="#2F1A31"/><path d="M114.641 141.541c1.606-17.435 5.205-42.287 13.511-62.047 1.938-4.594 2.713-6.31 4.208-8.8 1.218-1.993-.941-6.421-4.374-8.524-3.212-1.993-8.195-1.66-8.97-.665-1.329 1.66-2.769 4.871-4.984 9.908-7.752 17.546-12.403 40.239-14.285 69.519l14.894.609Z" fill="#F7B686"/><path d="M170.455 19.715s.72 2.657 0 5.978c-.72 3.321-4.097-4.87-4.097-4.87l4.097-1.108Z" fill="#56335B"/><path d="M162.692 39.53c5.336-.7 8.978-6.477 8.134-12.902-.844-6.426-5.855-11.067-11.191-10.366-5.337.7-8.978 6.477-8.134 12.903.844 6.425 5.854 11.066 11.191 10.366Z" fill="#F7B686"/><path d="M161.707 27.408c.055-.055.11-.11.11-.166 0-.11-.055-.221-.166-.221-.055 0-1.55-.277-2.27 1.273-.055.111 0 .222.111.277.111.056.221 0 .277-.11.664-.831 1.827-1.108 1.882-1.053-.055.056 0 0 .056 0ZM160.82 29.956c.111.444.498.776.831.665.332-.11.498-.554.387-.997-.11-.443-.498-.775-.83-.664-.333.11-.499.553-.388.996ZM169.016 26.8c.055 0 .11-.055.11-.11.056-.11 0-.221-.055-.277-.055-.055-1.052-.886-1.993.222-.056.055-.056.166 0 .277.055.11.166.055.221.055.72-.498 1.661-.221 1.661-.166-.055 0 0 .055.056 0ZM167.187 28.847c-.055.443.167.886.499.942.332.055.664-.277.72-.776.055-.443-.166-.885-.499-.94-.332-.056-.664.331-.72.774Z" fill="#060633"/><path d="M144.985 26.137s3.267 7.03 7.863 7.527c0 0-3.766-5.369 4.152-8.634 0 0-7.198-1.107-12.015 1.107Z" fill="#56335B"/><path d="M151.518 30.012c.996.609 2.27.443 2.824-.443.553-.886.221-2.104-.776-2.713-.996-.61-2.27-.443-2.823.443-.554.83-.222 2.048.775 2.713Z" fill="#F7B686"/><path d="M157 25.029s-.609 5.922.554 7.03c1.218 1.106 9.136 1.604 12.846.165.055 3.764-2.603 7.14-6.368 7.75a10.753 10.753 0 0 1-3.765 0c-2.602-.444-5.094-1.55-6.202-3.93-.332-.72.609-5.259.609-5.259s.333-2.657-1.162-4.04c.055.055 1.827-1.55 3.488-1.716Z" fill="#56335B"/><path opacity=".3" d="M110.543 102.353h-.277c-.664-.111-1.273-.609-1.606-1.328-.332-.72-.443-1.606-.277-2.491.333-1.882 1.662-3.266 3.046-3.044 1.329.221 2.215 1.937 1.882 3.874-.332 1.716-1.495 2.989-2.768 2.989Zm.554-6.254c-.886 0-1.828 1.051-2.049 2.49-.111.775-.055 1.495.221 2.104.277.553.609.885 1.108.941.941.166 1.993-.997 2.215-2.436.221-1.494-.333-2.878-1.329-3.044-.056-.055-.111-.055-.166-.055Z" fill="#E08B65"/><path d="M157 25.03s-.665-4.151 2.602-4.428c3.212-.277 6.921-.83 8.195 0 1.273.83 2.768 4.151 2.768 4.151s1.772-6.199-1.495-8.856c-3.266-2.657-13.621-6.144-20.265-1.494-6.645 4.594-3.876 11.734-3.876 11.734s4.817-1.44 12.071-1.107Z" fill="#2F1A31"/><path d="M152.514 14.402s-4.872-4.04-3.765-7.03c1.108-2.988 6.257-2.047 8.25-1.55 1.994.444 2.326 4.041.72 6.31-1.55 2.325-5.205 2.27-5.205 2.27Z" fill="#2F1A31"/><path d="M154.12 36.045s.055 4.04 2.935 6.365c2.879 2.27.996 4.262 3.488 7.528 2.547 3.21-.498 3.32 3.987 5.645 4.485 2.38 7.863.222 6.977-3.376-.886-3.598 2.99-2.657 1.162-7.195-1.827-4.539-3.156-1.772-1.605-6.642 1.55-4.871-.665-6.144-.665-6.144s-2.491.166-4.485.553c-1.993.332-3.82-.276-5.205.166-1.384.443-6.589 3.1-6.589 3.1Z" fill="#56335B"/><path d="M168.461 34.328s-3.045.83-6.367.499c0 0 .498 3.1 3.875 2.436 1.938-.277 2.492-2.935 2.492-2.935Z" fill="#fff"/><path d="M162.924 266.797c2.326-.111 4.541 1.107 5.648 3.155.554.941 1.329 1.827 2.492 2.325 3.544 1.494 13.732 2.767 9.911 6.143-2.214 1.938-12.513.665-15.393.665-2.934 0-5.648 1.273-7.807-.665-1.274-1.162-1.163-4.87-.831-7.97.277-2.269 2.326-3.93 4.541-3.653.332.055.664.055 1.052.055.166 0 .277-.055.387-.055ZM126.989 265.578s.11 5.203 3.654 6.698c3.544 1.494 13.732 2.767 9.912 6.144-2.215 1.937-12.514.664-15.394.664-2.934 0-5.647 1.273-7.807-.664-2.381-2.159 0-12.787 0-12.787s2.492 1.329 4.762 1.274c3.212-.167 4.873-1.329 4.873-1.329Z" fill="#2F1A31"/><path d="M189.281 134.677c1.605.166 2.879 1.439 3.045 2.989.388 3.155.443 9.852-1.44 23.745-2.768 20.424-6.146 41.125-7.918 51.032-.609 3.543-4.706 6.587-9.856 7.306l-2.768.388c-5.537.83-10.466-1.827-10.521-5.646l-.664-65.645-17.774-13.56s13.289-1.716 28.349-1.716c8.528.055 15.947.719 19.547 1.107Z" fill="#436E8E"/><path d="m172.559 138.496-39.203 125.865c-1.661 5.258-6.367 8.856-11.794 8.967l-2.381.055c-5.537.111-9.8-5.037-8.804-10.627l21.429-118.283c.332-1.383 1.107-7.638 2.492-8.025 7.364-2.159 38.981-3.155 38.261 2.048Z" fill="#436E8E"/><path d="m155.006 194.732-.609-.221 8.416-25.627a24.92 24.92 0 0 1 11.296-13.893l.332.554c-5.205 2.989-9.081 7.804-10.963 13.56l-8.472 25.627Z" fill="#020202"/><path d="M159.657 198.274s-5.094 24.243 11.241 24.464c16.334.222 14.452-24.464 14.452-24.464s-8.86 3.321-25.693 0Z" fill="#2F1A31"/><path d="M169.292 263.808s-5.316 3.321-10.133.83c-4.817-2.435-2.104-11.457-1.384-25.129.72-13.671-.277-27.896 2.049-29.058 2.27-1.163 8.804 1.328 13.842-1.55 5.039-2.878 10.41-8.69 13.456-6.089 1.439 1.218-4.43 21.642-8.14 33.598-3.156 10.018-4.485 22.25-9.69 27.398Z" fill="#9BBCB6"/><path d="M166.246 217.482a1.385 1.385 0 1 0 0-2.77 1.385 1.385 0 0 0 0 2.77ZM163.7 263.699a1.385 1.385 0 1 0-.001-2.77 1.385 1.385 0 0 0 .001 2.77Z" fill="#436E8E"/><path d="M133.91 47.611s-4.706.941-3.82 5.203c1.107 5.48 7.752 11.18 7.087 7.749-.609-3.1-2.492-7.25-2.492-7.25s4.928 10.516 6.756 8.744c1.827-1.77-2.547-10.793-2.547-10.793s5.758 9.797 6.976 7.583c1.218-2.214-2.713-10.461-2.713-10.461s5.15 9.908 6.479 7.25c1.328-2.656-2.381-7.195-3.489-9.52-1.052-2.158-2.824-2.213-4.817-.996 0 0-2.713 0-3.821 1.107-.443.443-1.163.166-1.605.333-.665.276-1.994 1.051-1.994 1.051Z" fill="#F7B686"/><path d="m107.498 90.897-.332-.11c3.488-12.676 11.683-29.17 11.738-29.336l.332.166c-.11.166-8.305 16.605-11.738 29.28Z" fill="#E5A173"/><path d="M330.947 31.385s1.776-8.875-6.072-10.364c-7.848-1.489-6.588 4.638-8.192 6.07-1.546 1.374 1.662 6.241 5.442 7.157 3.781.917 8.822-2.863 8.822-2.863Z" fill="#E28569"/><path d="M367.782 65.171C372.537 58.299 375 49.195 375 38.028c0-8.417-1.375-15.002-1.432-15.289l-15.41 2.978 7.734-1.489-7.734 1.489c1.203 5.669 2.865 22.275-3.952 31.094-3.094 4.008-7.791 6.127-14.264 6.413l1.031 15.633c11.056-.516 19.992-4.753 25.835-12.369.344-.4.631-.859.974-1.317ZM371.161 17.585c.859-.171 1.489-1.03 1.317-1.89l-2.177-12.31c-.171-.86-1.031-1.49-1.89-1.318-.859.172-1.489 1.03-1.317 1.89l2.176 12.311c.172.86 1.031 1.432 1.891 1.317ZM367.094 18.272c.859-.171 1.489-1.03 1.317-1.89L366.005 2.64c-.172-.86-1.031-1.49-1.89-1.318-.86.172-1.49 1.031-1.318 1.89l2.406 13.743c.115.86.974 1.49 1.891 1.317ZM362.97 19.018c.859-.172 1.489-1.031 1.318-1.89l-2.693-15.346c-.172-.86-1.031-1.49-1.89-1.317-.859.171-1.49 1.03-1.318 1.89L361.08 17.7c.114.858.973 1.431 1.89 1.317Z" fill="#EAA97D"/><path d="m363.256 27.204.401-.458c.745-.801.63-2.061-.172-2.805l-7.962-6.986c-.802-.745-2.063-.63-2.807.171l-.401.458c-.745.802-.63 2.062.172 2.806l7.962 6.986c.859.687 2.062.63 2.807-.172Z" fill="#EAA97D"/><path d="M358.845 19.704c.859-.172 1.489-1.03 1.317-1.89l-2.177-12.311c-.172-.86-1.031-1.49-1.89-1.317-.859.171-1.489 1.03-1.318 1.89l2.177 12.311c.115.916.974 1.489 1.891 1.317Z" fill="#EAA97D"/><path d="M373.567 22.796s-.916-10.021-2.577-11.567c-1.662-1.604-13.29.515-13.978 2.977-.687 2.463 1.089 11.567 1.089 11.567l15.466-2.977Z" fill="#EAA97D"/><path d="M366.292 25.144c-.114 0-.229-.115-.229-.23 0-.114-.286-2.29-2.349-2.748-2.291-.515-4.869-2.176-4.983-2.233-.115-.058-.115-.23-.058-.344.058-.114.23-.114.344-.057 0 0 2.635 1.66 4.812 2.176 2.406.515 2.75 3.15 2.75 3.15-.058.114-.115.229-.287.286Z" fill="#E08B65"/><path d="M347.102 270.515s-.286 5.211 3.151 6.986c3.437 1.718 13.576 3.837 9.509 6.929-2.349 1.775-12.603-.229-15.524-.458-2.922-.229-5.786.859-7.791-1.26-2.234-2.348.974-12.884.974-12.884s2.406 1.489 4.697 1.603c3.265.115 4.984-.916 4.984-.916ZM305.284 277.216s.917 5.153 4.64 6.069c3.724.917 14.092.687 10.827 4.581-1.89 2.233-12.316 2.634-15.238 3.035-2.921.458-5.442 2.119-7.848.515-2.692-1.775-2.005-12.769-2.005-12.769s2.693.916 4.927.515c3.265-.515 4.697-1.946 4.697-1.946Z" fill="#2F1A31"/><path d="M352.143 150.035c.63 10.079 1.088 23.135.916 39.225-.343 30.808-1.546 61.959-2.177 76.904-.229 5.326-4.01 9.792-9.165 10.823l-2.75.515c-5.556 1.088-10.827-2.977-11.342-8.761l-8.192-99.179-1.776-17.694c.058-.057 33.455-18.496 34.486-1.833Z" fill="#9BBCB6"/><path d="M287.812 149.747c.974 4.066 16.097 8.361 34.199 4.066 18.102-4.295 32.252-8.933 31.335-12.998-.974-4.066-16.613-6.128-34.772-1.776-18.102 4.238-31.736 6.586-30.762 10.708Z" fill="#2F1A31"/><path d="m337.936 145.682-26.523 129.299c-.802 5.498-4.984 9.85-10.369 10.766l-2.348.401c-5.5.973-10.541-3.493-10.426-9.22l4.926-124.89c.115-1.431 4.927-2.863 6.302-3.207 11.514-2.691 38.381-8.417 38.438-3.149Z" fill="#9BBCB6"/><path d="M299.498 79.486s6.358-14.316 24.976-12.255c8.764.974 19.19-.973 22.398 14.889 2.864 14.2 6.76 30.75 6.473 58.637 0 0-30.59-6.757-65.534 8.99-.114-1.603-4.582-42.26.573-65.394 1.547-6.7 8.994-.286 11.114-4.867Z" fill="#6F4975"/><path d="m278.933 81.719 17.758 12.311s47.89-1.775 50.582-10.536c4.469-14.487-3.322-21.989-3.322-21.989s-14.321 3.894-26.408 5.326c-2.75.343-7.906 1.26-10.541 1.832-18.732 3.608-28.069 13.056-28.069 13.056Z" fill="#6F4975"/><path d="m323.443 218.063-.687-.057 3.208-42.489c1.031-6.242 4.239-11.739 9.051-15.576l.401.516a24.466 24.466 0 0 0-8.822 15.174l-3.151 42.432Z" fill="#020202"/><path d="M278.933 81.72c-1.146 1.717 0 6.756 5.957 10.364 5.958 3.607 10.484 4.409 11.858 1.947.974-1.89-1.604-8.36-7.275-11.682-5.843-3.493-9.738-1.89-10.54-.63Z" fill="#2F1A31"/><path d="M300.242 148.718s24.289-8.017 49.495-6.414c1.145.057 2.062.974 2.176 2.176l.573 9.22-26.465-2.405-25.779-2.577Z" fill="#9BBCB6"/><path d="M255.618 168.588c-.917.058-1.547.859-1.49 1.776l1.146 13.857c.057.916.859 1.546 1.776 1.489.916-.057 1.546-.859 1.489-1.775l-1.146-13.858c-.114-.859-.916-1.546-1.775-1.489ZM259.742 168.245c-.917.057-1.547.859-1.489 1.775l1.26 15.461c.057.916.859 1.546 1.776 1.489.916-.058 1.546-.859 1.489-1.776l-1.26-15.461c-.057-.858-.859-1.546-1.776-1.488ZM260.201 160.115l-.401.4c-.802.745-.802 2.005-.114 2.806l7.218 7.674c.744.801 2.005.801 2.807.114l.401-.401c.802-.744.802-2.004.114-2.806l-7.218-7.673a1.99 1.99 0 0 0-2.807-.114Z" fill="#F7B686"/><path d="M263.924 167.959c-.916.057-1.546.858-1.489 1.775l1.031 12.426c.057.916.859 1.546 1.776 1.488.917-.057 1.547-.859 1.489-1.775l-1.031-12.426c-.114-.916-.916-1.603-1.776-1.488Z" fill="#F7B686"/><path d="M252.124 160.972s-4.068 8.361-1.146 14.316c1.031 2.061 13.175.744 14.149-1.661.917-2.405-.573-10.708-.573-10.708l-12.43-1.947Z" fill="#F7B686"/><path d="M251.493 168.932c-.916.058-1.546.859-1.489 1.776l1.031 12.368c.057.916.859 1.546 1.776 1.489.916-.057 1.546-.859 1.489-1.775l-1.031-12.369a1.692 1.692 0 0 0-1.776-1.489ZM266.904 164.294c3.437-17.809 25.491-66.482 27.325-68.887 1.432-1.947-1.891-9.048-5.213-11.625-3.094-2.348-7.447-2.348-9.624-.343-1.661 1.488-2.922 3.378-5.786 8.36-9.853 17.351-16.956 40.256-21.997 70.262l15.295 2.233Z" fill="#F7B686"/><path opacity=".5" d="M266.331 127.072c-.172 0-.344 0-.573-.058a2.533 2.533 0 0 1-1.432-1.145c-.573-.973-.631-2.405-.23-3.779.688-2.348 2.464-3.837 4.068-3.379.573.172 1.088.573 1.432 1.146.573.973.63 2.405.229 3.779-.63 2.004-2.062 3.436-3.494 3.436Zm1.26-7.674c-1.089 0-2.292 1.203-2.75 2.921-.344 1.202-.286 2.348.172 3.149.172.287.458.63.917.802 1.145.286 2.577-1.031 3.093-2.863.344-1.203.286-2.348-.172-3.15-.172-.286-.458-.63-.916-.801-.115-.058-.23-.058-.344-.058Z" fill="#E08B65"/><path d="M310.439 67.92c3.036 3.55 10.426 5.841 14.436 3.837 3.437-1.718.172-6.127.172-6.127-1.661-.057-2.578-.86-2.693-2.52l-.171-2.061-.058-1.03-.286-3.208-.229-2.92-.974-11.91-3.151 12.14-.515 2.06-1.833 7.101c-.631 2.29-2.406 4.008-4.698 4.638Z" fill="#F7B686"/><path d="M316.913 56.181s2.005 3.495 5.155 3.838l-.286-3.208c-1.948-.4-4.869-.63-4.869-.63Z" fill="#2F1A31"/><path d="M306.945 42.151s.745 1.89.287 6.012c-.745 6.07 6.301 7.445 7.733 5.498.172-.23-1.604-10.078-1.604-10.078l-2.291-.917-4.125-.515Z" fill="#E28569"/><path d="M323.542 57.467c6.128-.951 10.147-7.828 8.978-15.36-1.17-7.532-7.086-12.867-13.213-11.916-6.128.951-10.148 7.828-8.978 15.36 1.17 7.532 7.085 12.867 13.213 11.916Z" fill="#F7B686"/><path d="M324.131 32.645c-.23.458 2.577 7.215-10.14 10.937-12.774 3.722-7.39-13.285 2.177-15.175 13.806-2.691 17.243 6.356 16.441 9.907-.802 3.55-8.478-5.67-8.478-5.67Z" fill="#E28569"/><path d="M315.079 41.12s-4.468 6.413-1.718 11.853c0 0-3.609-2.863-3.896-4.123-.286-1.26-.171-5.898-.171-5.898l5.785-1.832Z" fill="#E28569"/><path d="M312.101 47.362c1.432 1.03 3.208.859 3.952-.344.745-1.202.172-2.977-1.26-3.95-1.432-1.031-3.208-.86-3.953.343-.744 1.145-.172 2.92 1.261 3.95Z" fill="#F7B686"/><path d="m322.469 43.754.172-.172c.057-.114-.057-.286-.172-.286-.057 0-1.89-.63-3.151 1.26-.057.114-.057.286.058.344.114.057.229.057.343-.058 1.031-.974 2.521-1.03 2.636-1.03 0 0 .057 0 .114-.058ZM320.922 46.847c.058.63.516 1.031.917.974.401-.057.745-.573.63-1.203-.057-.63-.516-1.031-.917-.974-.401.058-.687.573-.63 1.203ZM331.691 43.697a.434.434 0 0 0 .229-.115c.058-.114.058-.286-.057-.343-.057-.058-1.547-1.318-3.38-.058-.114.058-.172.23-.057.344.057.114.229.115.344.057 1.317-.515 2.749 0 2.807.058 0 0 .057.057.114.057ZM329.057 45.93c-.172.573.057 1.146.458 1.26.401.115.917-.286 1.088-.858.172-.573-.057-1.146-.458-1.26-.401-.115-.916.286-1.088.859Z" fill="#060633"/><path opacity=".3" d="M316.168 44.155c-.516 3.378.974 6.871 3.322 7.788 2.349.916 4.641-1.088 5.156-4.524.516-3.378-.974-6.871-3.322-7.788-2.349-.916-4.641 1.146-5.156 4.524ZM332.276 51.956c2.065-.31 3.32-3.35 2.803-6.79-.517-3.44-2.61-5.977-4.675-5.667-2.065.31-3.32 3.35-2.803 6.79.517 3.44 2.61 5.977 4.675 5.667Z" fill="#fff"/><path d="M315.938 46.563c0 .171.058.343.115.515.344 1.66 1.146 3.092 2.177 4.066.401.4.859.687 1.375.859.458.172.973.286 1.432.229.114 0 .286 0 .401-.057.401-.058.859-.23 1.26-.459.974-.572 1.776-1.603 2.291-2.863.229-.515.344-1.088.459-1.718.114-.63.114-1.26.114-1.89 0-.286-.057-.515-.057-.801-.287-2.348-1.432-4.41-3.094-5.326a2.1 2.1 0 0 0-.63-.286c-1.031-.4-2.119-.286-3.093.286-1.203.688-2.12 2.062-2.578 3.837-.057.23-.114.516-.172.745 0 .171-.057.286-.057.458-.057.458-.057.916-.057 1.374 0 .286.057.687.114 1.03Zm7.562 3.894a4.04 4.04 0 0 1-1.089.916c-.343.229-.687.343-1.088.4-.515.115-1.088.058-1.661-.171-.516-.172-.974-.515-1.432-.916-1.031-.974-1.719-2.52-2.005-4.238-.058-.286-.058-.515-.058-.801v-.745c0-.4.058-.744.115-1.145.057-.344.115-.687.229-1.03l.172-.516v-.115c.115-.343.286-.687.458-.973a4.654 4.654 0 0 1 1.604-1.718c.459-.287.974-.401 1.432-.458.401 0 .86.057 1.261.229.171.057.343.114.458.229 1.547.859 2.692 2.863 2.979 5.154.057.286.057.515.057.801 0 .573 0 1.145-.115 1.718-.114.573-.229 1.145-.458 1.66-.114.63-.458 1.26-.859 1.719Z" fill="#2F1A31"/><path d="M326.077 53.49c-.802 0-1.718-.23-2.635-.974-.057-.058-.057-.115 0-.172.057-.058.115-.058.172 0 2.349 1.947 5.041.172 5.041.114.057-.057.115 0 .172.058.057.057 0 .114-.057.171.057 0-1.146.802-2.693.802Z" fill="#020202"/><path d="M323.327 53.03c-.057 0-.114-.057-.114-.114 0-.344.171-.745.515-1.146.057-.057.115-.057.172-.057.057.057.057.114.057.172v.057c-.401.458-.458.745-.458.974-.057.057-.057.114-.172.114Z" fill="#020202"/><path d="M327.624 46.39c.057.172.057.344.115.515.057.172.057.344.114.516 0 .114.057.229.115.343v.058c.057.114.057.171.114.286-.229-.859-.401-1.775-.401-2.749 0 0-.057-.057-.171-.057 0 .172 0 .344.057.515 0 .23.057.401.057.573Zm0 0c.057.172.057.344.115.515.057.172.057.344.114.516 0 .114.057.229.115.343v.058c.057.114.057.171.114.286-.229-.859-.401-1.775-.401-2.749 0 0-.057-.057-.171-.057 0 .172 0 .344.057.515 0 .23.057.401.057.573Zm0 0c.057.172.057.344.115.515.057.172.057.344.114.516 0 .114.057.229.115.343v.058c.057.114.057.171.114.286-.229-.859-.401-1.775-.401-2.749 0 0-.057-.057-.171-.057 0 .172 0 .344.057.515 0 .23.057.401.057.573Zm0 0c.057.172.057.344.115.515.057.172.057.344.114.516 0 .114.057.229.115.343v.058c.057.114.057.171.114.286-.229-.859-.401-1.775-.401-2.749 0 0-.057-.057-.171-.057 0 .172 0 .344.057.515 0 .23.057.401.057.573Zm0 0c.057.172.057.344.115.515.057.172.057.344.114.516 0 .114.057.229.115.343v.058c.057.114.057.171.114.286-.229-.859-.401-1.775-.401-2.749 0 0-.057-.057-.171-.057 0 .172 0 .344.057.515 0 .23.057.401.057.573Zm0 0c.057.172.057.344.115.515.057.172.057.344.114.516 0 .114.057.229.115.343v.058c.057.114.057.171.114.286-.229-.859-.401-1.775-.401-2.749 0 0-.057-.057-.171-.057 0 .172 0 .344.057.515 0 .23.057.401.057.573Zm0 0c.057.172.057.344.115.515.057.172.057.344.114.516 0 .114.057.229.115.343v.058c.057.114.057.171.114.286-.229-.859-.401-1.775-.401-2.749 0 0-.057-.057-.171-.057 0 .172 0 .344.057.515 0 .23.057.401.057.573Zm0 0c.057.172.057.344.115.515.057.172.057.344.114.516 0 .114.057.229.115.343v.058c.057.114.057.171.114.286-.229-.859-.401-1.775-.401-2.749 0 0-.057-.057-.171-.057 0 .172 0 .344.057.515 0 .23.057.401.057.573Zm-.229.573c.172 1.202.573 2.347 1.146 3.264.572.916 1.26 1.603 2.062 1.89.057 0 .114.057.172.057.401.114.859.171 1.26.114a2.574 2.574 0 0 0 1.031-.4c1.318-.802 2.234-2.578 2.521-4.753.458-3.608-1.031-7.215-3.266-8.075-.057 0-.114-.057-.171-.057a2.036 2.036 0 0 0-.573-.114c-.287-.058-.516 0-.802.057-.344.057-.63.172-.974.344-1.318.801-2.234 2.576-2.521 4.752 0 .115-.057.287-.057.401 0 .287-.057.516-.057.802.114.572.114 1.145.229 1.718Zm.687 1.202c-.229-.859-.401-1.775-.401-2.748 0-.287 0-.573.058-.86 0-.171.057-.343.057-.515a8.12 8.12 0 0 1 .802-2.748c.401-.745.859-1.317 1.432-1.66l.057-.058c.287-.172.573-.287.86-.344.286-.057.515-.057.802 0 .114 0 .286.058.401.115 2.062.801 3.437 4.237 2.978 7.616v.057c-.286 2.061-1.145 3.665-2.291 4.352-.573.343-1.26.458-1.89.229-.058 0-.172-.057-.23-.057-.057 0-.114-.058-.171-.058h-.058c-.458-.229-.916-.63-1.317-1.145-.459-.572-.802-1.317-1.089-2.176 0 0 0 .057 0 0Zm-.458-1.775c.057.172.057.344.115.515.057.172.057.344.114.516 0 .114.057.229.115.343v.058c.057.114.057.171.114.286-.229-.859-.401-1.775-.401-2.749 0 0-.057-.057-.171-.057 0 .172 0 .344.057.515 0 .23.057.401.057.573Zm0 0c.057.172.057.344.115.515.057.172.057.344.114.516 0 .114.057.229.115.343v.058c.057.114.057.171.114.286-.229-.859-.401-1.775-.401-2.749 0 0-.057-.057-.171-.057 0 .172 0 .344.057.515 0 .23.057.401.057.573Zm0 0c.057.172.057.344.115.515.057.172.057.344.114.516 0 .114.057.229.115.343v.058c.057.114.057.171.114.286-.229-.859-.401-1.775-.401-2.749 0 0-.057-.057-.171-.057 0 .172 0 .344.057.515 0 .23.057.401.057.573Zm0 0c.057.172.057.344.115.515.057.172.057.344.114.516 0 .114.057.229.115.343v.058c.057.114.057.171.114.286-.229-.859-.401-1.775-.401-2.749 0 0-.057-.057-.171-.057 0 .172 0 .344.057.515 0 .23.057.401.057.573Zm0 0c.057.172.057.344.115.515.057.172.057.344.114.516 0 .114.057.229.115.343v.058c.057.114.057.171.114.286-.229-.859-.401-1.775-.401-2.749 0 0-.057-.057-.171-.057 0 .172 0 .344.057.515 0 .23.057.401.057.573Zm0 0c.057.172.057.344.115.515.057.172.057.344.114.516 0 .114.057.229.115.343v.058c.057.114.057.171.114.286-.229-.859-.401-1.775-.401-2.749 0 0-.057-.057-.171-.057 0 .172 0 .344.057.515 0 .23.057.401.057.573Zm0 0c.057.172.057.344.115.515.057.172.057.344.114.516 0 .114.057.229.115.343v.058c.057.114.057.171.114.286-.229-.859-.401-1.775-.401-2.749 0 0-.057-.057-.171-.057 0 .172 0 .344.057.515 0 .23.057.401.057.573Z" fill="#2F1A31"/><path d="M327.969 45.417c.114 0 .229-.115.286-.172.115-.172.057-.459-.172-.516-.057-.057-1.489-.802-3.551 0-.23.057-.287.287-.23.516.058.229.287.286.516.229 1.661-.688 2.864-.057 2.864-.057.115 0 .172.057.287 0Z" fill="#2F1A31"/><path d="M313.475 31.386s-2.406-8.704-10.082-6.47c-7.676 2.233-5.385 6.413-4.525 9.104.63 2.004 4.353 4.81 8.134 3.951 3.724-.916 6.473-6.585 6.473-6.585ZM309.866 59.216c-.057 0-.115 0-.115-.057-.114-.057-.114-.229-.057-.344.057-.114 1.661-2.463 4.697-3.667.115-.057.287 0 .344.115.057.114 0 .286-.114.344-2.922 1.203-4.469 3.495-4.469 3.495-.114.057-.229.114-.286.114Z" fill="#E28569"/><path d="M260.982 39.97s5.08-1.322 7.779 3.386 2.699 2.168 7.038 7.617c4.34 5.449-3.916 7.194-2.699 11.532 1.217 4.39 5.081 5.026 3.281 10.421-1.799 5.396-6.244 2.963-6.403 6.507-.159 3.544 2.064 6.983-2.223 7.3-4.339.318-5.556-.053-8.52 4.761-2.963 4.814-10.055-.476-15.982 1.005-5.927 1.481-20.691-.952-21.273-4.179-.583-3.227-11.96-6.242-5.345-14.441 3.651-4.497-1.27-3.915-1.27-10.369 0-5.29 7.197-3.438 4.709-8.464-1.111-2.221-1.27-7.987 4.234-10.95 5.504-2.962 5.398-10.315 13.177-8.093 7.779 2.221 8.838-.53 13.706-1.376 4.763-.793 6.721 5.449 9.791 5.343Z" fill="#6F4975"/><path d="M282.203 166.453c.793.158 1.323.952 1.217 1.745l-2.276 12.485c-.159.793-.952 1.322-1.746 1.216-.794-.158-1.323-.952-1.217-1.745l2.275-12.485c.159-.793.953-1.322 1.747-1.216ZM278.498 165.766c.794.158 1.323.952 1.217 1.745l-2.593 13.966c-.159.793-.952 1.322-1.746 1.216-.794-.158-1.323-.952-1.217-1.745l2.593-13.966c.159-.793.899-1.322 1.746-1.216ZM278.816 158.36l.37.423c.635.741.582 1.905-.158 2.539l-7.251 6.348c-.74.635-1.905.582-2.54-.158l-.37-.424c-.635-.74-.582-1.904.159-2.539l7.25-6.348c.741-.688 1.905-.635 2.54.159Z" fill="#B5815E"/><path d="M274.741 165.077c.794.159 1.323.953 1.218 1.746l-2.064 11.162c-.159.793-.953 1.322-1.747 1.217-.793-.159-1.323-.953-1.217-1.746l2.064-11.162c.159-.793.953-1.322 1.746-1.217Z" fill="#B5815E"/><path d="M286.066 159.84s2.911 7.988-.265 13.119c-1.111 1.799-12.065-.582-12.7-2.803-.636-2.275 1.481-9.681 1.481-9.681l11.484-.635Z" fill="#B5815E"/><path d="M285.96 167.141a1.47 1.47 0 0 1 1.164 1.746l-2.064 11.161a1.47 1.47 0 0 1-1.746 1.164 1.47 1.47 0 0 1-1.164-1.746l2.063-11.161a1.47 1.47 0 0 1 1.747-1.164ZM272.359 161.535c-1.481-16.505-4.921-40.098-12.806-58.825-1.8-4.337-2.593-5.977-4.022-8.305-1.164-1.904.899-6.083 4.128-8.093 3.016-1.852 7.779-1.587 8.52-.635 1.27 1.587 2.646 4.602 4.763 9.363 7.355 16.663 11.748 38.194 13.494 65.913l-14.077.582Z" fill="#B5815E"/><path d="M251.933 269.185s.106 4.814 3.387 6.136c3.228 1.376 12.647 2.593 9.102 5.661-2.011 1.745-11.484.635-14.183.635s-5.186 1.163-7.197-.635c-2.17-1.958 0-11.797 0-11.797s2.329 1.217 4.393 1.164c2.963-.106 4.498-1.164 4.498-1.164ZM214.677 269.185s.106 4.814 3.387 6.137c3.281 1.322 12.648 2.592 9.102 5.66-2.011 1.746-11.483.635-14.182.635s-5.186 1.163-7.197-.635c-2.17-1.957 0-11.797 0-11.797s2.328 1.217 4.392 1.164c3.016-.106 4.498-1.164 4.498-1.164Z" fill="#2F1A31"/><path d="M276.011 137.887s-.212 22.059-2.011 60.993c-1.376 30.523-1.111 58.824-3.757 72.208-.953 4.814-36.356 2.327-35.986-2.91l8.361-94.32 1.588-29.835 31.805-6.136Z" fill="#436E8E"/><path d="M217.482 155.555c.317 2.434 14.076 2.169 31.011 0 16.881-2.116 30.058-5.819 29.741-8.252-.318-2.434-13.918-2.751-30.8-.582-16.934 2.116-30.27 6.401-29.952 8.834Z" fill="#2F1A31"/><path d="m256.59 152.223-31.435 118.865c-1.534 4.867-31.328 4.179-30.429-.952l24.396-112.464a3.581 3.581 0 0 1 2.488-2.698c6.773-1.905 35.668-7.565 34.98-2.751Z" fill="#436E8E"/><path d="M223.091 88.85S227.907 75.362 245 75.944c17.093.635 30.006 23.064 33.181 71.362 0 0-27.995-6.137-60.805 8.199.053 0-1.799-46.975 5.715-66.653Z" fill="#E28569"/><path d="m208.432 83.349 14.764 12.43s31.117 3.122 39.373 1.64c8.255-1.48 9.525-7.564 9.525-7.564s-7.885-10.791-22.808-13.436c-1.429-.265-2.805-.318-4.34-.423-2.54-.16-4.233.052-6.72.052-23.232-.211-29.794 7.3-29.794 7.3Z" fill="#E28569"/><path d="m238.649 221.31-.582-.158 9.578-40.892c1.8-5.449 5.504-9.998 10.373-12.802l.317.529a22.448 22.448 0 0 0-10.108 12.432l-9.578 40.891Z" fill="#020202"/><path d="M238.279 75.995c1.693-.159 3.175-1.27 3.863-2.803l2.117-4.92.635-1.428 3.598-8.411-.635 8.675-.37 5.237-.106 1.481c-.106 1.217.741 2.275 1.958 2.487.635 1.058 1.535 3.174-1.111 4.02-3.123 1.058-8.15-1.375-9.949-4.338 0 .053 0 .053 0 0Z" fill="#B5815E"/><path d="M244.258 68.165v.158c.212 2.804 3.229 4.127 3.229 4.127l.37-5.237c-.9-.318-2.223-.688-2.964-.318-.423.159-.688.53-.635 1.27Z" fill="#2F1A31"/><path d="M248.863 69.966c4.501 0 8.15-4.524 8.15-10.104 0-5.58-3.649-10.104-8.15-10.104s-8.15 4.523-8.15 10.104c0 5.58 3.649 10.104 8.15 10.104Z" fill="#B5815E"/><path d="M253.308 66.368s-2.804.053-5.609-.9c0 0-.212 2.752 2.805 2.963 1.746.053 2.804-2.063 2.804-2.063Z" fill="#fff"/><path d="M249.657 59.966c.053 0 .105-.053.105-.106.053-.105.001-.211-.105-.264-.053 0-1.323-.688-2.382.529-.053.053-.053.212 0 .265.053.053.159.053.265 0 .847-.583 1.958-.477 2.011-.424h.106ZM248.175 61.977c0 .423.212.794.582.847.318 0 .582-.318.582-.794 0-.424-.211-.794-.582-.847-.264 0-.529.37-.582.794ZM256.325 60.921c.052 0 .105 0 .158-.053.053-.053.053-.212 0-.264-.053-.053-.952-1.112-2.434-.424-.106.053-.159.159-.106.265.053.106.159.106.265.106 1.005-.212 1.958.317 2.011.37h.106ZM254.155 62.241c-.159.424-.106.847.212.953.317.106.688-.106.846-.476.159-.424.106-.847-.211-.953-.265-.159-.635.106-.847.476Z" fill="#060633"/><path d="M222.404 132.175s4.657-5.025 8.679-4.972c4.022.053 9.102 3.227 6.615 3.703s-5.874.211-5.874.211 7.144.9 6.245 2.487c-.9 1.587-7.145.74-7.145.74s8.415 1.746 7.092 2.963c-1.376 1.216-7.78-.159-7.78-.159s7.78 1.957 6.139 3.333c-1.64 1.375-6.403-1.64-7.356-.053-.952 1.587-5.186 7.564-9.949 5.501l3.334-13.754Z" fill="#B5815E"/><path d="M228.859 131.593c-.053 0-.106 0-.159-.053a.336.336 0 0 1 0-.317c1.059-.847 3.07-.318 3.176-.265a.292.292 0 0 1 .158.265.29.29 0 0 1-.264.158s-1.905-.529-2.752.212c-.106-.053-.106 0-.159 0ZM227.324 134.819c-.053 0-.158-.052-.158-.105-.053-.106 0-.212.105-.265 1.641-.9 3.599-.317 3.705-.317a.289.289 0 0 1 .159.264.291.291 0 0 1-.265.159s-1.852-.529-3.387.264h-.159ZM226.848 137.622c-.053 0-.106 0-.159-.052-.106-.106-.106-.212 0-.318 1.005-1.005 3.44-.37 3.546-.318a.292.292 0 0 1 .158.265.29.29 0 0 1-.264.159s-2.276-.635-3.122.212c-.053.052-.106.052-.159.052Z" fill="#936241"/><path d="M208.432 83.348c-1.217 1.798 1.271 4.179 6.457 7.882 5.186 3.755 7.408 5.078 8.679 3.28 1.217-1.8-.212-4.815-5.345-8.57-3.811-2.751-8.573-4.391-9.791-2.592Z" fill="#2F1A31"/><path d="m222.032 144.235 4.551-10.051c.635-1.376.106-3.015-1.164-3.756-6.456-3.703-10.214-8.094-11.113-13.172-1.27-6.983 2.699-15.023 6.138-20.208 1.8-2.645 1.959-5.237-.846-8.517-1.164-1.375-2.329-2.274-6.033-3.861-1.799-.74-3.599-1.005-4.604.317-1.588 2.01-2.699 3.703-4.869 7.724-5.186 9.574-7.144 19.149-5.609 27.666 1.852 10.421 8.467 18.885 19.739 25.18 1.429.741 3.122.159 3.81-1.322Z" fill="#B5815E"/><path d="M204.04 119.425c-.371 0-.741-.106-1.059-.317-.847-.529-1.534-1.534-1.852-2.804-.476-2.01.212-3.967 1.588-4.338.476-.158 1.005-.053 1.534.265.847.529 1.535 1.534 1.852 2.804.477 2.01-.211 3.967-1.587 4.337-.159.053-.318.053-.476.053Zm-.9-7.088c-.106 0-.212 0-.37.053-1.165.317-1.694 2.01-1.271 3.861.265 1.111.9 2.063 1.641 2.539.423.265.847.318 1.217.212 1.164-.317 1.694-2.01 1.27-3.862-.264-1.111-.899-2.063-1.64-2.539-.265-.159-.53-.264-.847-.264Z" fill="#936241"/><path d="M231.029 152.911s33.71-6.454 44.664-3.386l-5.239 7.776-19.474 1.111-19.951-5.501Z" fill="#436E8E"/><path d="M240.872 61.397c.952.9 2.223.952 2.91.211.688-.794.477-2.117-.476-3.017-.952-.9-2.222-.953-2.91-.212-.688.794-.477 2.118.476 3.018Z" fill="#B5815E"/><path d="M252.832 52.773s-.423 2.856-3.493 2.592c0 0 .053 2.38-2.91 1.745 0 0 .212 1.587-1.905 1.746 0 0-.9 1.534-3.228.582-2.382-1.005-3.546-5.766-.953-8.252 2.593-2.434 9.155-4.338 12.965-2.38 3.811 1.956 5.822 10.156 4.816 10.579-1.005.423-3.281-.053-3.387-1.904 0 0-2.011-.847-1.429-2.698 0 0-.529-1.164-.476-2.01Z" fill="#6F4975"/><path d="M240.925 68.007c-.212 0-.37 0-.529-.053-1.429-.211-2.646-1.322-2.752-2.486-.106-2.063 1.905-3.703 2.011-3.756.106-.053.212-.053.317.053.106.106.053.212-.052.317 0 0-1.959 1.587-1.853 3.439.053.952 1.165 1.904 2.382 2.063 1.429.211 2.54-.582 3.175-2.169.476-1.164.476-2.169.053-2.962-.688-1.323-2.329-1.746-2.329-1.746a.29.29 0 0 1-.158-.264.29.29 0 0 1 .264-.16c.053 0 1.852.477 2.646 1.958.476.952.476 2.063 0 3.333-.899 2.063-2.275 2.433-3.175 2.433ZM253.996 70.6c-1.111 0-1.905-.477-1.905-.477-.106-.053-.106-.211-.053-.264.053-.106.212-.106.265-.053.106.053 2.169 1.27 4.075-.635 1.852-1.904.529-4.02.529-4.02-.053-.106-.053-.212.053-.265.106-.053.211-.053.264.053 0 0 1.535 2.434-.582 4.55a3.723 3.723 0 0 1-2.646 1.11Z" fill="#E28569"/><path d="M242.249 35.687c-.847 0-1.8-.106-2.805-.424a.29.29 0 0 1-.159-.264.292.292 0 0 1 .265-.159c4.71 1.482 7.938-1.429 7.991-1.429a.336.336 0 0 1 .317 0 .337.337 0 0 1 0 .318c-.053 0-2.222 1.958-5.609 1.958ZM274.899 48.223h-.106c-.158-.053-3.492-1.851-5.715-5.554-2.434-4.02-5.557-3.81-6.827-3.545-1.958.423-3.334-1.058-3.387-1.11a.337.337 0 0 1 0-.318.338.338 0 0 1 .318 0s1.27 1.375 3.016 1.005c1.323-.317 4.71-.529 7.25 3.703 2.17 3.597 5.557 5.343 5.557 5.396.106.053.159.159.106.264-.053.106-.159.16-.212.16ZM217.217 59.12c-.053 0-.159-.053-.159-.106-.053-.105 0-.211.106-.264 2.117-1.164 1.747-2.063.318-5.078-1.535-3.122 1.587-6.19 1.693-6.296.106-.105.212-.105.318 0 .106.106.106.212 0 .318-.053.053-3.017 3.015-1.641 5.819 1.482 3.015 1.958 4.285-.476 5.66-.053-.053-.106-.053-.159-.053ZM214.518 74.248c-.053 0-.106-.053-.159-.106-.053-.105-.053-.211.053-.317 2.593-1.799 1.058-4.126 1.005-4.232-.053-.106-.053-.212.053-.264.106-.053.212-.053.265.052 0 .053 1.852 2.751-1.111 4.814-.053.053-.106.053-.106.053Z" fill="#6F4975"/><path d="M229.335 50.92c-.053 0-.159-.053-.159-.106-.053-.053-1.217-1.904-.688-3.914.318-1.27 1.218-2.328 2.646-3.174 2.382-1.323 3.758-.953 5.239-.582 1.429.37 2.964.793 5.663-.423 5.609-2.487 7.991 1.058 7.991 1.058.053.105.053.211-.053.264-.106.053-.212.053-.265-.053-.106-.159-2.222-3.28-7.461-.9-2.858 1.27-4.499.847-5.927.424-1.429-.37-2.699-.688-4.922.529-1.376.794-2.17 1.746-2.487 2.91-.477 1.85.635 3.597.635 3.597.053.105.053.211-.053.264-.053.106-.106.106-.159.106ZM267.491 68.589h-.053a.29.29 0 0 1-.159-.265c.476-1.693-.37-2.116-1.852-2.856-.635-.318-1.323-.688-2.011-1.217-.529-.37-.741-.74-.741-1.058 0-.476.529-.794 1.164-1.164.794-.476 1.747-1.058 1.799-2.116.053-1.322-.635-1.534-1.693-1.798-.688-.16-1.535-.37-2.223-1.006-.899-.793-.846-1.745-.793-2.486.052-.793.052-1.163-.583-1.322-1.852-.423-2.169-2.54-2.169-2.645 0-.106.053-.212.158-.212.106 0 .212.053.212.159 0 0 .318 1.904 1.852 2.275 1.059.264 1.006 1.005.9 1.745-.053.74-.106 1.481.635 2.116.635.53 1.376.74 2.011.9 1.111.264 2.117.528 2.011 2.221-.053 1.27-1.164 1.905-2.011 2.434-.476.264-.953.582-.953.793 0 .159.212.423.583.688.688.476 1.376.846 1.958 1.164 1.481.74 2.646 1.322 2.063 3.385.053.212 0 .265-.105.265ZM227.324 72.028s0-.053 0 0c-.159 0-.212-.105-.212-.211.212-1.587-1.058-2.857-2.17-3.968-.899-.899-1.693-1.692-1.534-2.486.106-.529.529-.952 1.323-1.375 1.217-.635 2.011-1.429 2.275-2.328.371-1.322-.37-2.539-.37-2.539-.053-.106-.053-.212.053-.265.106-.052.212-.052.264.053.053.053.847 1.376.424 2.857-.318 1.058-1.111 1.957-2.487 2.592-.688.317-1.059.688-1.112 1.058-.106.582.582 1.323 1.429 2.116 1.111 1.11 2.54 2.54 2.276 4.338.053.053-.053.158-.159.158ZM314.591 272.428s11.628 13.228 22.971 9.563c11.285-3.665 8.192 2.577 4.754 4.18-3.494 1.661-19.992 6.185-27.668-4.18-7.734-10.364-.057-9.563-.057-9.563ZM259.597 211.902s-9.624 3.093-12.374 21.531c-2.749 18.439-4.01 26.112 3.495 26.284 7.504.172 11.342-10.937 7.848-18.439-3.495-7.558 2.635-27.543 1.031-29.376Z" fill="#2F1A31"/><path d="M263.149 210.641s-10.655 1.776-11.228 12.999c-.573 11.224 12.66 13.4 19.878 8.762 7.218-4.639 10.483-21.646-8.65-21.761Z" fill="#E28569"/><path d="M259.597 219.977c0 .859-.459 1.489-1.031 1.489-.573 0-1.032-.687-1.032-1.489 0-.86.459-1.49 1.032-1.49.572-.057 1.031.63 1.031 1.49ZM268.419 219.976c0 .859-.458 1.49-1.031 1.49s-1.031-.688-1.031-1.49c0-.859.458-1.489 1.031-1.489s1.031.63 1.031 1.489Z" fill="#2F1A31"/><path d="M254.842 231.659s3.609 2.748.974 6.585c-2.635 3.836-11.744 14.487-.974 34.186 10.77 19.698 59.634 19.698 62.899 14.545 3.265-5.211 8.65-25.998-15.754-33.385-16.612-5.039-26.408-29.948-26.408-29.948s-9.051 11.281-20.737 8.017Z" fill="#E28569"/><path d="m250.66 259.657 6.874 22.047s-6.416-4.123-10.769 0c-4.354 4.122.172 7.387 12.832 6.814 12.66-.573 3.322-24.509 3.322-24.509l-12.259-4.352ZM303.591 261.433s-12.431-2.176-14.206 8.418c-1.833 10.593 3.208 12.197 3.208 12.197s-14.551-2.004-17.472 2.348c-2.922 4.352-1.089 5.268 4.754 4.924 5.843-.343 35.746 3.321 38.668-4.065 2.921-7.387.172-18.954-2.521-22.906-2.635-3.893-12.431-.916-12.431-.916Z" fill="#E28569"/><path d="m264.065 256.337 8.421 27.143s-7.848-5.039-13.233 0c-5.384 5.039-.343 7.158 15.181 6.471 15.524-.688 4.697-28.231 4.697-28.231l-15.066-5.383Z" fill="#E28569"/><path d="M256.046 266.415s-3.552-3.55-2.807-8.819c.744-5.268-.802-11.109 2.807-12.655 3.609-1.546 4.64 6.7 6.931 9.277 2.291 2.577 5.213 5.612 4.296 9.849-.916 4.295 4.469 8.532.745 9.391-3.723.802-7.39.115-11.972-7.043Z" fill="#F9CBC0"/><path d="M257.649 288.748c0-.058-1.776-3.264 1.49-6.357 2.921-2.748 9.853-.973 11.457-.515l-1.432-6.7.401-.057 1.546 7.387-.343-.115c-.058 0-8.307-2.577-11.4.287-3.036 2.863-1.49 5.726-1.375 5.841l-.344.229ZM283.255 289.436c0-.057-1.375-3.894 1.718-5.555 2.693-1.431 9.624-.401 11.4-.114-1.088-2.062-5.9-11.51-3.552-16.435.688-1.488 2.005-2.462 3.896-2.806 9.853-1.832 11.514 2.692 11.628 2.864l-.401.114c0-.057-1.661-4.352-11.113-2.577-1.718.344-2.979 1.203-3.609 2.577-2.463 5.268 3.666 16.32 3.724 16.435l.229.4-.401-.057c-.115 0-8.65-1.546-11.572 0-2.807 1.489-1.546 4.982-1.546 5.039l-.401.115Z" fill="#2F1A31"/><path d="M256.274 230.855s3.552 2.004 4.698.343c1.145-1.66.572-1.546.572-1.546s.631 2.004 2.063 2.004c1.432 0 4.181-.572 4.754-2.004.573-1.431.172-3.035-2.005-2.519-2.176.572-9.681-1.661-10.769-.974-1.089.573-1.948 4.18.687 4.696Z" fill="#F9CBC0"/><path d="M256.733 224.155s7.962-.802 9.394.458c1.375 1.26-3.208 4.41-4.697 4.296-1.489-.115-7.103-3.609-4.697-4.754ZM270.195 213.848s10.025 10.021 4.754 23.879c-5.27 13.858-1.26 26.799 12.431 26.284 13.691-.516-3.151-43.005-8.593-46.899-5.442-3.836-8.936-6.528-8.592-3.264Z" fill="#2F1A31"/><path d="M263.492 218.715s-.115-1.489.802-3.379c.859-1.889.516-3.607-1.432-3.436-1.891.172-1.49 2.005-1.891 3.837-.343 1.89-.114 5.04 1.089 4.639 1.203-.401 1.718-.058 1.432-1.661Z" fill="#F9CBC0"/></svg>