<svg width="375" height="329" fill="none" xmlns="http://www.w3.org/2000/svg"><path d="M359.749 250.902c-7.777-1.277-23.776-12.771-38.385-25.82l12.054-24.766c12.332 7.607 22.331 15.048 22.331 15.048l4 35.538Z" fill="#9BBCB6"/><path d="M307.143 104.086s2.667-12.494 27.553-14.937c19.165-1.888 34.107 3.054 39.385 19.101 4.61 13.993 4.832 26.154 3.333 59.749 0 0-53.05-8.385-69.215 3.165 0 0 5.499-28.93-1.333-59.138-.667-3.109-.389-5.497.277-7.94Z" fill="#6F4975"/><path d="M281.534 45.838c5.611 17.214 38.885 43.201 49.217 43.479 2.222.055-22.775 27.097-23.164 25.931-1.888-5.664-3.666-8.107-7.555-12.216C287.312 89.65 269.925 71.714 266.758 55l14.776-9.162ZM339.196 88.094s36.496-15.16 40.717-53.196c.278-2.333 2.445-3.943 4.722-3.443l7.222 1.444c1.333.277 2.277 1.388 2.333 2.72.277 7.164-.278 30.263-16.165 60.193-1.611 3.054-4.889 7.83-2.389 17.658l-36.44-25.376Z" fill="#6F4975"/><path d="M308.254 171.109c.111 3.331 15.609 4.775 34.774 4.109 19.164-.611 34.496-3.943 34.385-7.275-.111-3.331-16.109-8.662-35.274-8.051-19.165.666-33.996 7.885-33.885 11.217Z" fill="#2F1A31"/><path d="M341.806 227.47c8.166-16.603-2.5-37.871-.334-49.587 0 0 1.556-11.106 6.611-10.884 16.554.722 28.441 2.444 28.441 2.444.278.499 16.054 38.425-4.999 75.518-11.221 19.713-32.108-12.66-29.719-17.491Z" fill="#9BBCB6"/><path d="M305.144 219.863c12.276-13.827 1.333-35.705 6.444-46.422 0 0 6.388-5.831 26.83-7.552 26.942-2.277 38.107 3.554 38.107 3.554.111.555-14.776 38.037-40.773 67.578-2.167 2.443-4.278 5.275-6.555 7.552-16.11 16.047-27.608-20.712-24.053-24.71Z" fill="#9BBCB6"/><path d="m334.529 84.65.5-6.441.166-1.888.833-11.05 2.778 10.161 1.666 6.108.556 1.944c.333 1.333 1.222 2.72 2.444 3.665.5.389 3.722 1.277 1.111 3.22-3.222 2.444-10.499 1.555-13.832-.999 0-.056 3.611-2.665 3.778-4.72Z" fill="#F7B686"/><path d="M343.306 59.496s1.222 2.333 1.277 5.609c.056 3.276-4.888-3.665-4.888-3.665l3.611-1.944Z" fill="#56335B"/><path d="M340.319 79.87c4.858-1.81 7.024-8.03 4.838-13.891-2.186-5.862-7.896-9.147-12.755-7.337-4.858 1.81-7.024 8.03-4.838 13.892 2.186 5.863 7.897 9.147 12.755 7.337Z" fill="#F7B686"/><path d="m326.585 69.38 4.333-1.5c.945-.333 1.722-1.055 2.056-1.999.555-1.61 1.499-2.61 5.666-3.387 5.277-1 8.054-4.942 7.943-7.83-.055-2.943-3.166-4.22-5.499-2.276-2.333 1.943-1.944-1.61-4.555-1.333-4.889.444-4.944 4.276-8.833 5.053-5.11 1-13.332 6.997-6.943 14.937l5.832-1.666Z" fill="#2F1A31"/><path d="M336.751 68.658c.055-.055.055-.11.055-.166 0-.112-.111-.167-.222-.167-.056 0-1.5.055-1.889 1.722 0 .111.056.222.167.222.111 0 .167-.055.222-.166.445-.945 1.5-1.445 1.556-1.445h.111ZM336.474 71.213c.222.39.611.611.944.445.278-.167.333-.611.111-1-.222-.39-.611-.611-.944-.445-.278.111-.334.611-.111 1ZM343.473 66.493c.055 0 .055-.056.055-.112 0-.11-.055-.222-.111-.222-.055 0-1.166-.61-1.833.667-.056.055 0 .167.056.278.055.055.166.055.222 0 .555-.611 1.5-.556 1.555-.556 0-.055.056-.055.056-.055ZM342.25 68.77c.056.444.334.778.667.778.333-.056.555-.445.5-.89-.056-.444-.334-.777-.667-.777-.333.056-.555.445-.5.889Z" fill="#060633"/><path d="M320.753 71.046s4.61 5.886 9.054 5.386c0 0-4.666-4.22 2-8.996.056 0-6.999.5-11.054 3.61Z" fill="#56335B"/><path d="M327.752 73.267c1.055.39 2.222-.11 2.555-1.055.333-.944-.278-2.055-1.333-2.389-1.056-.389-2.222.111-2.555 1.056-.334.944.277 2 1.333 2.388Z" fill="#F7B686"/><path d="M343.583 72.823s-2.667 1.445-5.888 1.834c0 0 1.111 2.777 4.166 1.5 1.777-.723 1.722-3.334 1.722-3.334Z" fill="#fff"/><path d="M340.028 52.168c-1 0-1.333-.89-1.333-.89l.222-.055c0 .056.333 1 1.555.667l.056.222c-.167 0-.389.056-.5.056Z" fill="#2F1A31"/><path d="m339.806 60.663-.055-.111c.055-.056 5.277-2.943 4.833-5.886-.112-.833-.389-1.333-.778-1.555-.667-.333-1.611.11-2.444.555-.111.056-.278.111-.389.167l-.056-.111c.111-.056.222-.111.389-.167.889-.444 1.833-.888 2.555-.555.445.222.723.777.889 1.666.167 1.277-.611 2.665-2.277 4.164-1.334 1.11-2.667 1.833-2.667 1.833Z" fill="#fff"/><path d="M276.369 54.443c-4.944 3.942-8.499 2.61-9.666.61-1.111-1.998 1.389-5.552 5.555-7.884 4.222-2.333 8.055-3.277 9.222-1.278 1.166 2-1.334 5.553-5.111 8.552Z" fill="#2F1A31"/><path d="m282.424 37.619-.5-.222c-.945-.444-2.111 0-2.556 1l-.722 1.61-2.777-10.662c-.223-.944-1.222-1.832-2.167-1.943-.833-.111-1.5.61-1.277 1.388l1.888 7.163c-.277 0-.611 0-.888.056l-2.445-9.274c-.222-.777-1-1.388-1.777-1.221-.945.166-1.556 1.055-1.278 1.943l2.333 8.996c-.278.055-.555.11-.889.166l-1.944-7.33c-.222-.777-1-1.388-1.777-1.221-.945.167-1.556 1.055-1.278 1.944l1.944 7.496c-.278.11-.555.222-.833.333l-1.611-6.22c-.222-.832-1.111-1.332-1.944-1.11-.834.222-1.333 1.11-1.111 1.944l2.611 10.05c.666 3.72 3.11 7.163 4.555 8.83.666.832 1.722 1.221 2.777 1.11 1.889-.222 5.111-1.11 8.388-4.387.445-.444.778-.888 1-1.444l3.166-6.385c.5-1.055.056-2.221-.888-2.61Z" fill="#F7B686"/><path d="M134.606 62.775c4.611-6.663 6.999-15.492 6.999-26.32 0-8.163-1.333-14.549-1.389-14.827l-14.942 2.888 7.499-1.444-7.499 1.444c1.166 5.497 2.777 21.6-3.833 30.152-3 3.887-7.555 5.941-13.832 6.219l1 15.16c10.721-.5 19.387-4.61 25.053-11.995.333-.389.666-.833.944-1.277ZM137.884 16.63c.833-.166 1.444-.999 1.278-1.832L137.051 2.86c-.167-.833-1-1.444-1.833-1.278-.834.167-1.445 1-1.278 1.833l2.111 11.938c.166.833 1 1.389 1.833 1.278ZM133.94 17.297c.833-.167 1.444-1 1.278-1.833l-2.334-13.327c-.166-.833-.999-1.443-1.833-1.277-.833.167-1.444 1-1.277 1.833l2.333 13.326c.166.833 1 1.444 1.833 1.278ZM129.941 18.019c.833-.167 1.444-1 1.277-1.833l-2.611-14.881c-.166-.833-.999-1.444-1.833-1.278-.833.167-1.444 1-1.277 1.833l2.611 14.882c.166.832.999 1.388 1.833 1.277Z" fill="#EAA97D"/><path d="m130.218 25.958.389-.444c.722-.777.611-1.999-.167-2.72l-7.721-6.775c-.778-.722-2-.61-2.722.167l-.389.444c-.722.777-.611 1.999.167 2.72l7.721 6.775c.833.666 2.055.61 2.722-.167Z" fill="#EAA97D"/><path d="M125.941 18.685c.833-.167 1.444-1 1.277-1.832l-2.111-11.939c-.166-.833-1-1.444-1.833-1.277-.833.166-1.444 1-1.277 1.832l2.11 11.939c.167.888 1 1.444 1.834 1.277Z" fill="#EAA97D"/><path d="M140.272 21.683s-.889-9.717-2.5-11.216c-1.611-1.555-12.887.5-13.554 2.887-.666 2.388 1.056 11.217 1.056 11.217l14.998-2.888Z" fill="#EAA97D"/><path d="M133.162 23.96a.239.239 0 0 1-.222-.222c0-.11-.278-2.22-2.278-2.665-2.222-.5-4.721-2.11-4.832-2.166-.112-.055-.112-.222-.056-.333.056-.11.222-.11.333-.055 0 0 2.556 1.61 4.667 2.11 2.333.5 2.666 3.054 2.666 3.054 0 .111-.111.222-.278.277.056 0 .056 0 0 0Z" fill="#E08B65"/><path d="M113.053 262.343s.889 4.998 4.499 5.886c3.611.889 13.666.667 10.499 4.443-1.833 2.165-11.943 2.554-14.776 2.943-2.833.444-5.277 2.054-7.61.499-2.611-1.721-1.944-12.382-1.944-12.382s2.611.888 4.777.499c3.166-.499 4.555-1.888 4.555-1.888ZM74.001 268.395s.89 4.998 4.5 5.886c3.61.889 13.665.666 10.499 4.442-1.833 2.166-11.943 2.555-14.776 2.943-2.833.445-5.278 2.055-7.61.5-2.611-1.721-1.945-12.383-1.945-12.383s2.611.889 4.777.5c3.167-.5 4.555-1.888 4.555-1.888Z" fill="#2F1A31"/><path d="M119.496 145.067c.612 9.773 1.056 22.434.889 38.037-.333 29.875-1.5 60.082-2.111 74.575-.222 5.164-3.888 9.495-8.888 10.495l-2.666.499c-5.388 1.055-10.499-2.887-10.999-8.495l-7.943-96.175-1.722-17.159c0-.055 32.385-17.935 33.44-1.777Z" fill="#9BBCB6"/><path d="M57.059 144.791c.944 3.943 15.609 8.107 33.163 3.943 17.553-4.22 31.274-8.663 30.385-12.605-.944-3.943-16.109-5.942-33.718-1.722-17.554 4.109-30.72 6.386-29.83 10.384Z" fill="#2F1A31"/><path d="m105.721 140.846-25.72 125.383c-.778 5.33-4.833 9.55-10.054 10.439l-2.278.389c-5.333.944-10.221-3.388-10.11-8.94l4.777-121.107c.111-1.389 4.778-2.777 6.11-3.11 11.11-2.61 37.163-8.163 37.275-3.054Z" fill="#9BBCB6"/><path d="M68.446 76.656s6.166-13.882 24.22-11.883c8.499.944 18.609-.944 21.72 14.437 2.777 13.771 6.555 29.819 6.277 56.861 0 0-29.663-6.552-63.549 8.718-.11-1.555-4.444-40.98.556-63.413 1.444-6.497 8.665-.278 10.776-4.72Z" fill="#E28569"/><path d="m48.505 78.82 17.22 11.939s46.439-1.721 49.05-10.217c4.333-14.049-3.222-21.323-3.222-21.323s-13.887 3.776-25.608 5.164c-2.666.333-7.666 1.222-10.221 1.777-18.22 3.498-27.22 12.66-27.22 12.66Z" fill="#E28569"/><path d="m91.61 211.034-.666-.055 3.11-41.202c1-6.053 4.111-11.383 8.778-15.104l.389.5a23.728 23.728 0 0 0-8.555 14.715l-3.055 41.146Z" fill="#020202"/><path d="M48.504 78.823c-1.11 1.666 0 6.553 5.778 10.051 5.777 3.498 10.165 4.276 11.498 1.888.945-1.832-1.555-8.107-7.055-11.328-5.721-3.387-9.443-1.832-10.22-.61Z" fill="#2F1A31"/><path d="M69.113 143.79s23.553-7.773 47.995-6.219c1.111.056 1.999.944 2.11 2.11l.556 8.94-25.664-2.332-24.997-2.499Z" fill="#9BBCB6"/><path d="M25.84 163.059c-.889.056-1.5.833-1.444 1.722l1.11 13.438c.056.888.834 1.499 1.723 1.443.889-.055 1.5-.833 1.444-1.721l-1.11-13.438c-.112-.833-.834-1.499-1.723-1.444ZM29.895 162.727c-.889.055-1.5.833-1.444 1.721l1.222 14.993c.055.888.833 1.499 1.722 1.444.889-.056 1.5-.833 1.444-1.722l-1.222-14.992c-.111-.833-.889-1.5-1.722-1.444ZM30.34 154.841l-.39.389c-.777.722-.777 1.944-.11 2.721l6.999 7.441c.722.777 1.944.777 2.722.111l.389-.389c.777-.722.777-1.943.11-2.721l-6.998-7.441c-.778-.777-2-.832-2.722-.111Z" fill="#F7B686"/><path d="M33.895 162.448c-.889.055-1.5.833-1.444 1.721l1 12.05c.056.888.833 1.499 1.722 1.443.889-.055 1.5-.833 1.444-1.721l-1-12.05c-.11-.888-.833-1.554-1.722-1.443ZM22.507 155.674s-3.944 8.107-1.11 13.882c1 1.999 12.776.722 13.72-1.61.945-2.332-.555-10.384-.555-10.384l-12.055-1.888Z" fill="#F7B686"/><path d="M21.84 163.392c-.888.055-1.5.833-1.444 1.721l1 11.994c.055.889.833 1.5 1.722 1.444.889-.055 1.5-.833 1.444-1.721l-1-11.994c-.11-.889-.833-1.5-1.722-1.444ZM36.84 158.895c3.332-17.269 24.719-64.468 26.496-66.8 1.389-1.888-1.833-8.774-5.055-11.273-3-2.276-7.221-2.276-9.332-.333-1.611 1.444-2.833 3.276-5.61 8.107-9.555 16.825-16.443 39.036-21.332 68.133l14.832 2.166Z" fill="#F7B686"/><path opacity=".5" d="M36.228 122.801c-.166 0-.333 0-.555-.055a2.467 2.467 0 0 1-1.389-1.111c-.556-.944-.611-2.332-.222-3.665.666-2.276 2.388-3.72 3.944-3.276a2.463 2.463 0 0 1 1.389 1.111c.555.944.61 2.332.222 3.664-.556 1.944-2 3.332-3.389 3.332Zm-1.444-4.609c-.334 1.166-.278 2.277.166 3.054.167.278.445.611.89.778 1.11.277 2.499-1 2.999-2.777.333-1.166.278-2.276-.167-3.054-.166-.277-.444-.611-.889-.777-1.11-.278-2.444.944-3 2.776Z" fill="#E08B65"/><path d="M79 65.44c2.945 3.443 10.11 5.664 14 3.72 3.332-1.665.166-5.941.166-5.941-1.611-.056-2.5-.833-2.611-2.443l-.167-2-.055-.999-.278-3.11-.222-2.831-.945-11.55-3.055 11.772-.5 1.999-1.777 6.885c-.611 2.221-2.333 3.887-4.555 4.498Z" fill="#F7B686"/><path d="M85.278 54.056s1.944 3.389 5 3.722l-.279-3.11c-1.888-.39-4.721-.611-4.721-.611Z" fill="#2F1A31"/><path d="M75.612 40.454s.723 1.832.278 5.83c-.722 5.886 6.11 7.219 7.5 5.33.166-.221-1.556-9.772-1.556-9.772l-2.222-.889-4-.5Z" fill="#436E8E"/><path d="M91.746 55.284c5.943-.922 9.84-7.59 8.706-14.894-1.134-7.304-6.87-12.477-12.813-11.555-5.942.922-9.84 7.59-8.706 14.894 1.135 7.303 6.871 12.477 12.813 11.555Z" fill="#F7B686"/><path d="M92.333 31.235c-.222.445 2.5 6.997-9.832 10.606-12.388 3.61-7.166-12.882 2.11-14.715 13.388-2.61 16.721 6.164 15.943 9.607-.833 3.443-8.221-5.498-8.221-5.498Z" fill="#436E8E"/><path d="M83.5 39.451s-4.332 6.22-1.666 11.495c0 0-3.5-2.777-3.778-3.998-.277-1.222-.166-5.72-.166-5.72l5.61-1.777Z" fill="#436E8E"/><path d="M80.668 45.505c1.389 1 3.11.833 3.833-.333.722-1.166.166-2.887-1.222-3.831-1.389-1-3.111-.833-3.833.333-.722 1.11-.167 2.832 1.222 3.831Z" fill="#F7B686"/><path d="m90.722 42.007.166-.167c.056-.11-.055-.277-.166-.277-.056 0-1.833-.611-3.055 1.222-.056.11-.056.278.055.333.111.056.222.056.333-.056 1-.944 2.445-1 2.556-1 0 0 .055 0 .11-.055ZM89.167 45.005c.056.611.5 1 .889.944.389-.055.722-.555.611-1.166-.111-.611-.5-1-.889-.944-.389.055-.666.555-.61 1.166ZM99.61 41.95a.421.421 0 0 0 .222-.111c.056-.111.056-.278-.055-.333-.056-.056-1.5-1.278-3.278-.056-.11.056-.166.222-.055.333.055.112.222.112.333.056 1.278-.5 2.666 0 2.722.056 0 .055.055.055.111.055ZM97.055 44.118c-.167.555.055 1.111.444 1.222.39.111.89-.278 1.056-.833.166-.556-.056-1.111-.445-1.222-.388-.111-.888.278-1.055.833Z" fill="#060633"/><path d="M94.222 51.447c-.778 0-1.667-.222-2.556-.944-.055-.056-.055-.111 0-.167.056-.056.111-.056.167 0 2.277 1.889 4.888.167 4.888.111.056-.056.111 0 .167.056.055.055 0 .11-.056.166 0 0-1.166.778-2.61.778Z" fill="#020202"/><path d="M91.555 51.002a.12.12 0 0 1-.11-.111c0-.334.166-.722.5-1.111.055-.056.11-.056.166-.056.055.056.055.111.055.167v.055c-.388.445-.444.722-.444.945-.055.055-.111.11-.166.11Z" fill="#020202"/><path d="M77.945 50.39s-8.666 3.221-8.166 9.274c.5 6.108 2.722 7.552-2.166 12.605-4.944 5.053 7.777 6.108 9.221 9.94 1.444 3.83 5.166 11.771 12.443 9.217 7.222-2.554 7.888-10.717 2.555-15.326-5.332-4.609-7.11-6.386-6.499-9.884.611-3.498-4.388-3.61-4.555-6.552-.167-2.943 2.61-7.441 1.111-8.718-1.5-1.277-3.944-.555-3.944-.555ZM109.109 89.317s7.777-2.11 8.388-8.44c.611-6.33-5.222-6.275-6.166-11.384-.945-5.164-.667-10.328-6.166-10.939-5.5-.61-6-4.997-7.722-4.442-1.666.555-5.221 3.165-2.166 6.053 3.055 2.887 4.61 6.052 3.222 10.939-1.389 4.886 4.944 6.885 7.332 8.606 2.389 1.61-.444 9.885 3.278 9.607Z" fill="#436E8E"/><path d="M68.169 196.652c.889.167 1.5 1 1.333 1.888l-2.555 13.771c-.167.889-1 1.499-1.89 1.333-.888-.167-1.499-1-1.332-1.888l2.555-13.771c.167-.944 1-1.499 1.889-1.333ZM64.058 195.875c.889.167 1.5.999 1.333 1.888l-2.833 15.381c-.166.889-1 1.499-1.889 1.333-.888-.167-1.5-1-1.333-1.888l2.833-15.381c.111-.889 1-1.5 1.889-1.333ZM64.391 187.656l.389.444c.722.833.611 2.055-.167 2.776l-7.999 6.941c-.833.722-2.055.611-2.777-.166l-.39-.444c-.721-.833-.61-2.055.167-2.777l8-6.941c.833-.722 2.055-.666 2.777.167Z" fill="#F7B686"/><path d="M59.948 195.098c.889.167 1.5.999 1.333 1.888l-2.277 12.327c-.167.889-1 1.499-1.89 1.333-.888-.167-1.5-1-1.332-1.888l2.277-12.327c.111-.889 1-1.5 1.889-1.333Z" fill="#F7B686"/><path d="M72.39 189.323s3.222 8.773-.333 14.437c-1.222 1.944-13.276-.611-13.998-3.109-.667-2.499 1.666-10.662 1.666-10.662l12.666-.666Z" fill="#F7B686"/><path d="M72.279 197.373c.888.167 1.5 1 1.333 1.888l-2.278 12.328c-.166.888-1 1.499-1.888 1.332-.89-.166-1.5-.999-1.334-1.888l2.278-12.327c.111-.888 1-1.499 1.889-1.333Z" fill="#F7B686"/><path d="M57.281 191.157c-1.666-18.213-5.444-44.2-14.11-64.801-2-4.776-2.832-6.553-4.444-9.163-1.277-2.11 1-6.719 4.556-8.884 3.332-2.055-.5-7.33.666-6.775 4.444 1.944 10.777 5.387 13.11 10.662 8.11 18.38 13.776 47.81 15.72 78.406l-15.498.555Z" fill="#96A7E2"/><path d="M61.336 165.168s.667 22.1-6.388 64.468c-5.11 30.596-11.11 61.414-14.054 76.185-1.055 5.275-5.5 9.162-10.776 9.384l-2.834.111c-5.721.222-10.332-4.664-9.887-10.495l7.166-100.006 1.777-32.928 34.996-6.719Z" fill="#6F4975"/><path d="M-3.212 184.603c.333 2.666 15.553 2.388 34.163 0 18.609-2.332 33.107-6.385 32.774-9.051-.334-2.665-15.332-2.998-33.941-.666-18.61 2.332-33.33 6.996-32.996 9.717Z" fill="#2F1A31"/><path d="M39.949 180.938 4.675 308.153c-1.666 5.331-10.999 9.44-16.443 9.551l-2.388.055c-5.666.111-9.944-5.108-8.944-10.772l21.72-119.941c.333-1.444 1.389-2.554 2.722-2.943 7.5-2.221 39.33-8.44 38.607-3.165Z" fill="#6F4975"/><path d="M3.009 111.084s5.277-14.881 24.109-14.215c18.83.667 33.052 25.432 36.607 78.628 0 0-30.83-6.774-66.993 8.996 0 .055-14.776-50.309 6.277-73.409Z" fill="#96A7E2"/><path d="M-13.155 105.031 3.12 118.746s34.33 3.443 43.44 1.777c9.11-1.665 10.5-8.329 10.5-8.329s-8.667-11.883-25.165-14.826c-1.555-.278-3.11-.333-4.777-.444-2.777-.222-4.666.055-7.444.055-25.608-.222-32.83 8.052-32.83 8.052Z" fill="#96A7E2"/><path d="m40.117 93.704-.111-.444s2.388-.555 3.055-2.166c.333-.832.167-1.776-.5-2.831-.333-.5-.611-1-.889-1.444-1.889-2.999-2.61-4.11-2.055-6.608l.444.111c-.5 2.332.167 3.332 2 6.275.278.444.556.888.889 1.443.722 1.222.944 2.277.5 3.277-.778 1.721-3.222 2.332-3.333 2.387Z" fill="#2F1A31"/><path d="M39.783 80.266s-.833 3.776 1.666 7.718c2.5 3.943-.222 6.83-3.61 5.33-3.389-1.498-4.666 2.777-9 .39-4.332-2.388 10.944-13.438 10.944-13.438Z" fill="#2F1A31"/><path d="M19.729 96.979c1.889-.222 3.5-1.388 4.222-3.11l2.333-5.441.667-1.555 4-9.273-.668 9.606-.388 5.775-.111 1.666c-.112 1.332.833 2.498 2.166 2.776.722 1.166 1.666 3.498-1.222 4.442-3.444 1-9-1.721-10.999-4.886Z" fill="#F7B686"/><path d="M26.34 88.262v.166c.222 3.11 3.555 4.553 3.555 4.553l.389-5.774c-1-.39-2.444-.778-3.278-.334-.444.222-.722.611-.666 1.389Z" fill="#DD9666"/><path d="M31.45 90.261c4.97 0 8.999-4.972 8.999-11.105 0-6.134-4.029-11.106-9-11.106-4.97 0-8.998 4.972-8.998 11.106 0 6.133 4.029 11.105 8.999 11.105Z" fill="#F7B686"/><path d="M23.619 80.824c1 1 2.444 1.056 3.166.222.722-.833.5-2.333-.5-3.333s-2.444-1.056-3.166-.222c-.723.888-.5 2.333.5 3.333Z" fill="#F7B686"/><path d="M36.283 86.319s-3.056.055-6.166-1c0 0-.278 3.055 3.055 3.221 1.944.111 3.11-2.222 3.11-2.222Z" fill="#DB6B49"/><path d="M36.284 86.32s-.722.61-2.5.61c-1.722 0-3.666-1.61-3.666-1.61s3.722 1 6.166 1Z" fill="#fff"/><path d="M31.396 79.158a.12.12 0 0 0 .11-.111c.056-.111 0-.222-.11-.278-.056 0-1.445-.722-2.667.611-.055.111-.055.222 0 .278.056.055.223.055.278 0 .944-.611 2.167-.5 2.222-.5h.167ZM39.562 80.21c.055 0 .11 0 .166-.055.111-.056.111-.222 0-.278-.056-.056-.944-1.278-2.61-.667-.112.056-.167.167-.112.278.056.111.167.111.278.111 1.11-.166 2.166.5 2.166.556.056 0 .056.055.111.055Z" fill="#060633"/><path d="M35.227 70.049s-.166 3.831-4.999 4.498c-4.833.666-8.166 2.72-7.5 6.163.667 3.443 8.389 10.662 2.723 13.438-5.722 2.777-4.5-2.387-10.666-1.221-6.166 1.221-7.277-7.052-3.055-11.828 4.277-4.775 2.555-17.491 18.498-16.936 15.943.555 10.11 13.327 10.11 13.327s-5.11-3.165-5.11-7.441Z" fill="#2F1A31"/><path d="m23.84 94.87-.055-.112c1.166-.5 1.888-1.166 2.11-2.054.667-2.5-2.332-6.386-4.943-9.829a35.102 35.102 0 0 1-1.945-2.61c-1.61-2.276-1.777-4.997-.389-7.107 1.556-2.332 4.5-3.332 7.722-2.555 5.944 1.389 8.388-2.22 8.443-2.22l.112.055c0 .055-2.556 3.665-8.555 2.277-3.166-.722-6.055.222-7.61 2.498-1.39 2.11-1.278 4.665.389 6.941a62.727 62.727 0 0 0 1.944 2.555c2.666 3.442 5.666 7.33 5 9.94-.334.999-1.056 1.72-2.223 2.22Z" fill="#fff"/><path d="M39.005 87.596c-.5 0-.945-.11-1.389-.389-1.944-1.221-2.666-4.83-1.61-8.107.61-1.999 1.832-3.498 3.166-3.998.833-.277 1.61-.222 2.333.222 1.944 1.222 2.666 4.831 1.61 8.108-.61 1.999-1.833 3.498-3.166 3.998a3.081 3.081 0 0 1-.944.166Zm-2.666-8.385c-1 3.11-.334 6.497 1.444 7.663.61.39 1.277.445 2 .167 1.222-.444 2.333-1.832 2.944-3.72 1-3.11.333-6.553-1.445-7.663-.61-.389-1.277-.445-2-.167-1.221.444-2.332 1.832-2.943 3.72Z" fill="#6F4975"/><path opacity=".3" d="M25.562 76.99c-.722 3.165.445 6.552 2.556 7.607 2.166 1.055 4.5-.722 5.221-3.887.722-3.165-.444-6.552-2.555-7.607-2.166-1.055-4.5.666-5.222 3.887ZM43.102 81.45c.118-3.371-1.452-6.162-3.507-6.234-2.054-.072-3.815 2.603-3.932 5.975-.118 3.371 1.452 6.162 3.506 6.234 2.055.072 3.815-2.603 3.933-5.975Z" fill="#fff"/><path d="M29.673 84.985c-.5 0-.945-.11-1.444-.333-2.39-1.11-3.667-4.775-2.89-8.163.445-1.943 1.5-3.498 2.89-4.164.944-.445 2-.445 2.944 0 2.388 1.11 3.666 4.775 2.888 8.162-.444 2-1.5 3.499-2.888 4.165-.5.222-1 .333-1.5.333Zm.055-12.605c-.444 0-.889.111-1.333.334-1.278.61-2.277 2.054-2.666 3.886-.722 3.221.444 6.664 2.666 7.719a2.946 2.946 0 0 0 2.555 0c1.278-.61 2.278-2.055 2.667-3.887.722-3.22-.445-6.663-2.667-7.719-.333-.277-.777-.333-1.222-.333Z" fill="#6F4975"/><path d="M36.339 80.544c-.111 0-.167-.056-.222-.111-.056-.056-1-.778-2.667-.5-.222.055-.389-.111-.444-.278-.056-.222.11-.389.277-.444 2-.445 3.278.61 3.334.61.166.112.166.39.055.5-.111.167-.222.223-.333.223Z" fill="#6F4975"/><path d="M36.617 82.432c-.055 0-.111 0-.167-.056-.055-.055-.055-.222 0-.278a2.145 2.145 0 0 1 2.611-.277c.111.055.111.166.056.277-.056.112-.167.112-.278.056-1.055-.278-2.11.167-2.166.222.055.056 0 .056-.056.056ZM31.672 81.988c.055 0 .111 0 .167-.056.055-.055.055-.222 0-.278-.056-.055-1.111-1.11-2.611-.277-.111.055-.111.166-.056.278.056.11.167.11.278.055 1.055-.278 2.11.167 2.166.222-.055 0 0 0 .056.056Z" fill="#060633"/><path d="m1.843 172.165 4.999-11.05c.667-1.499.111-3.332-1.278-4.109-7.11-4.054-11.22-8.94-12.22-14.493-1.39-7.718 4.943-15.714 8.776-21.489 1.945-2.943.167-6.608-2.888-10.218-1.278-1.499-2.556-2.554-6.61-4.22-2-.833-4.556-2.943-5.667-1.499-1.722 2.221-4.666 5.83-7.054 10.273-5.722 10.55-5.555 21.156-3.889 30.54 2.055 11.495 9.332 20.823 21.775 27.764 1.39.778 3.278.111 4.056-1.499Z" fill="#96A7E2"/><path d="M11.786 181.66s37.163-7.107 49.217-3.775l-5.777 8.551-21.498 1.221-21.942-5.997Z" fill="#6F4975"/><path d="M158.66 76.21s1.667 6.72-6.888 9.718c-8.554 2.999-5.999 7.663-3.833 10.051 2.167 2.388-10.388-1-19.72 10.495-9.332 11.439 8.277 18.491 16.887 15.936 8.61-2.554 40.774-15.103 41.996-17.88 1.222-2.776 2.388-10.05-2.167-10.272-8.221-.445.556-8.108-5.055-10.106-5.61-2.055-21.22-7.941-21.22-7.941Z" fill="#E28569"/><path d="M217.653 98.533c4.611-6.663 6.999-15.493 6.999-26.32 0-8.163-1.333-14.549-1.388-14.826l-14.943 2.887 7.499-1.444-7.499 1.444c1.166 5.497 2.777 21.6-3.833 30.152-3 3.887-7.555 5.941-13.832 6.219l1 15.159c10.721-.5 19.387-4.609 25.053-11.994.333-.389.611-.833.944-1.277ZM220.931 52.39c.833-.167 1.444-1 1.277-1.833l-2.11-11.939c-.167-.833-1-1.443-1.834-1.277-.833.167-1.444 1-1.277 1.833l2.111 11.938c.166.833 1 1.389 1.833 1.277ZM216.986 53.056c.833-.167 1.445-1 1.278-1.833l-2.333-13.327c-.167-.833-1-1.444-1.833-1.277-.834.167-1.445 1-1.278 1.833l2.333 13.327c.111.832.944 1.443 1.833 1.277ZM212.987 53.777c.833-.167 1.444-1 1.278-1.833l-2.611-14.881c-.167-.833-1-1.444-1.833-1.278-.833.167-1.445 1-1.278 1.833l2.611 14.881c.111.834.944 1.444 1.833 1.278Z" fill="#EAA97D"/><path d="m213.265 61.718.389-.444c.722-.778.611-2-.167-2.72l-7.721-6.775c-.778-.722-2-.611-2.722.166l-.389.444c-.722.778-.611 2 .167 2.721l7.721 6.775c.833.666 2 .61 2.722-.167Z" fill="#EAA97D"/><path d="M208.987 54.5c.833-.167 1.444-1 1.278-1.833l-2.111-11.938c-.167-.833-1-1.444-1.833-1.278-.833.167-1.445 1-1.278 1.833l2.111 11.938c.111.833.944 1.389 1.833 1.277Z" fill="#EAA97D"/><path d="M223.264 57.442s-.889-9.717-2.5-11.217c-1.611-1.554-12.887.5-13.554 2.888-.666 2.388 1.056 11.217 1.056 11.217l14.998-2.888Z" fill="#EAA97D"/><path d="M216.21 59.72c-.112 0-.223-.112-.223-.223 0-.11-.277-2.22-2.277-2.665-2.222-.5-4.722-2.11-4.833-2.166-.111-.055-.111-.222-.056-.333.056-.11.223-.11.334-.055 0 0 2.555 1.61 4.666 2.11 2.333.5 2.666 3.054 2.666 3.054-.055.11-.111.222-.277.277Z" fill="#E08B65"/><path d="M196.1 298.102s.889 4.997 4.5 5.885c3.61.889 13.665.667 10.498 4.443-1.833 2.165-11.943 2.554-14.776 2.943-2.833.444-5.277 2.054-7.61.5-2.611-1.722-1.944-12.383-1.944-12.383s2.611.888 4.777.499c3.166-.499 4.555-1.887 4.555-1.887ZM157.049 304.154s.889 4.998 4.499 5.886c3.611.889 13.666.666 10.499 4.442-1.833 2.166-11.943 2.555-14.776 2.943-2.833.445-5.277 2.055-7.61.5-2.611-1.721-1.944-12.383-1.944-12.383s2.61.889 4.777.5c3.166-.5 4.555-1.888 4.555-1.888Z" fill="#2F1A31"/><path d="M202.488 180.827c.611 9.773 1.055 22.434.889 38.037-.334 29.874-1.5 60.082-2.111 74.575-.222 5.164-3.889 9.495-8.888 10.494l-2.666.5c-5.389 1.055-10.499-2.887-10.999-8.496l-7.944-96.175-1.722-17.158c.056-.055 32.441-17.935 33.441-1.777Z" fill="#9BBCB6"/><path d="M140.106 180.549c.945 3.943 15.61 8.107 33.163 3.943 17.554-4.22 31.275-8.663 30.386-12.605-.944-3.943-16.109-5.942-33.719-1.722-17.553 4.165-30.774 6.386-29.83 10.384Z" fill="#2F1A31"/><path d="m188.712 176.661-25.719 125.382c-.778 5.331-4.833 9.551-10.054 10.44l-2.278.388c-5.333.944-10.221-3.387-10.11-8.94l4.777-121.107c.111-1.388 4.777-2.776 6.111-3.109 11.165-2.666 37.218-8.218 37.273-3.054Z" fill="#9BBCB6"/><path d="M151.438 112.416s6.166-13.882 24.22-11.883c8.499.944 18.609-.944 21.72 14.437 2.777 13.771 6.554 29.819 6.277 56.861 0 0-29.664-6.552-63.549 8.718-.111-1.555-4.444-40.98.555-63.413 1.5-6.497 8.722-.278 10.777-4.72Z" fill="#96A7E2"/><path d="m131.496 114.579 17.22 11.939s46.44-1.722 49.051-10.217c4.333-14.049-3.222-21.323-3.222-21.323s-13.888 3.776-25.609 5.164c-2.666.333-7.665 1.222-10.221 1.777-18.164 3.498-27.219 12.66-27.219 12.66Z" fill="#96A7E2"/><path d="m174.658 246.794-.667-.056 3.111-41.202c1-6.053 4.111-11.383 8.777-15.104l.389.5a23.729 23.729 0 0 0-8.555 14.715l-3.055 41.147Z" fill="#020202"/><path d="M131.496 114.582c-1.111 1.665 0 6.552 5.777 10.05 5.777 3.498 10.166 4.276 11.499 1.888.944-1.832-1.556-8.107-7.055-11.328-5.666-3.387-9.443-1.832-10.221-.61Z" fill="#2F1A31"/><path d="M152.161 179.604s23.553-7.774 47.994-6.219c1.111.056 2 .944 2.111 2.11l.556 8.94-25.664-2.332-24.997-2.499Z" fill="#9BBCB6"/><path d="M108.888 198.816c-.889.055-1.5.833-1.445 1.721l1.111 13.438c.056.888.834 1.499 1.722 1.444.889-.056 1.5-.833 1.445-1.722l-1.111-13.438c-.111-.833-.889-1.499-1.722-1.443ZM112.887 198.539c-.889.055-1.5.833-1.444 1.721l1.222 14.993c.055.888.833 1.499 1.722 1.444.889-.056 1.5-.833 1.444-1.722l-1.222-14.992a1.537 1.537 0 0 0-1.722-1.444ZM113.332 190.597l-.389.388c-.778.722-.778 1.944-.111 2.721l6.999 7.441c.722.778 1.944.778 2.722.111l.389-.388c.777-.722.777-1.944.111-2.721l-7-7.441a1.928 1.928 0 0 0-2.721-.111Z" fill="#F7B686"/><path d="M116.943 198.205c-.889.055-1.5.833-1.444 1.721l1 12.05c.055.888.833 1.499 1.722 1.444.888-.056 1.499-.833 1.444-1.722l-1-12.049c-.111-.889-.889-1.555-1.722-1.444Z" fill="#F7B686"/><path d="M105.499 191.43s-3.944 8.107-1.111 13.882c1 1.999 12.776.722 13.721-1.61.944-2.332-.556-10.384-.556-10.384l-12.054-1.888Z" fill="#F7B686"/><path d="M104.888 199.15c-.889.055-1.5.833-1.445 1.721l1 11.994c.056.889.834 1.499 1.722 1.444.889-.056 1.5-.833 1.445-1.721l-1-11.995c-.111-.832-.889-1.499-1.722-1.443ZM119.831 194.651c3.333-17.269 24.719-64.468 26.497-66.8 1.389-1.888-1.833-8.774-5.055-11.273-3-2.276-7.222-2.276-9.332-.333-1.611 1.444-2.833 3.276-5.611 8.107-9.554 16.825-16.443 39.037-21.331 68.133l14.832 2.166Z" fill="#F7B686"/><path opacity=".5" d="M119.275 158.557c-.167 0-.333 0-.555-.055a2.461 2.461 0 0 1-1.389-1.111c-.556-.944-.611-2.332-.222-3.665.666-2.276 2.388-3.72 3.944-3.276a2.467 2.467 0 0 1 1.388 1.111c.556.944.611 2.332.223 3.665-.611 1.943-2 3.331-3.389 3.331Zm1.222-7.44c-1.055 0-2.222 1.166-2.666 2.832-.334 1.166-.278 2.276.166 3.054.167.277.445.61.889.777 1.111.278 2.5-.999 3-2.776.333-1.166.278-2.277-.167-3.054-.166-.278-.444-.611-.889-.778-.111-.055-.222-.055-.333-.055Z" fill="#E08B65"/><path d="M162.049 101.198c2.944 3.443 10.11 5.664 13.998 3.721 3.333-1.666.167-5.942.167-5.942-1.611-.056-2.5-.833-2.611-2.443l-.167-2-.055-.999-.278-3.11-.222-2.831-.945-11.55-3.055 11.772-.5 1.999-1.777 6.885c-.611 2.221-2.333 3.887-4.555 4.498Z" fill="#F7B686"/><path d="M168.325 89.815s1.944 3.389 4.999 3.722l-.277-3.11c-1.889-.39-4.722-.612-4.722-.612Z" fill="#2F1A31"/><path d="M158.66 76.21s.722 1.833.277 5.831c-.722 5.886 6.111 7.22 7.5 5.331.166-.222-1.556-9.773-1.556-9.773l-2.222-.888-3.999-.5Z" fill="#E28569"/><path d="M174.741 91.056c5.942-.922 9.839-7.59 8.705-14.894-1.134-7.304-6.871-12.477-12.813-11.555-5.942.922-9.84 7.59-8.705 14.894 1.134 7.304 6.87 12.477 12.813 11.555Z" fill="#F7B686"/><path d="M175.325 66.993c-.222.444 2.499 6.996-9.833 10.605-12.387 3.61-7.165-12.882 2.111-14.715 13.388-2.61 16.721 6.164 15.943 9.607-.833 3.443-8.221-5.497-8.221-5.497Z" fill="#E28569"/><path d="M166.548 75.21s-4.332 6.22-1.666 11.495c0 0-3.5-2.777-3.777-3.998-.278-1.222-.167-5.72-.167-5.72l5.61-1.777Z" fill="#E28569"/><path d="M163.659 81.264c1.388 1 3.11.833 3.833-.333.722-1.166.166-2.887-1.222-3.831-1.389-1-3.111-.833-3.833.333-.667 1.11-.167 2.832 1.222 3.831Z" fill="#F7B686"/><path d="m173.713 77.764.167-.166c.055-.111-.056-.278-.167-.278-.056 0-1.833-.611-3.055 1.222-.056.111-.056.278.055.333.111.056.223.056.334-.055 1-.945 2.444-1 2.555-1 0 0 .055 0 .111-.056ZM172.213 80.765c.056.61.5 1 .889.944.389-.055.722-.555.611-1.166-.055-.611-.5-1-.889-.945-.388.056-.666.556-.611 1.167ZM182.657 77.71a.418.418 0 0 0 .222-.111c.056-.111.056-.278-.055-.334-.056-.055-1.5-1.277-3.278-.055-.111.056-.166.222-.055.333.055.111.222.111.333.056 1.278-.5 2.666 0 2.722.055 0 .056.056.056.111.056ZM180.101 79.876c-.166.555.056 1.11.445 1.222.389.111.889-.278 1.055-.833.167-.556-.055-1.111-.444-1.222-.445-.111-.889.277-1.056.833Z" fill="#060633"/><path opacity=".3" d="M172.1 85.917c2.327-.144 4.043-3.015 3.833-6.412-.21-3.398-2.267-6.036-4.594-5.892-2.327.144-4.044 3.015-3.834 6.412.211 3.398 2.267 6.036 4.595 5.892ZM178.602 78.43c-.111 3.276 1.445 6.497 3.5 7.218 2.055.722 3.777-1.332 3.944-4.608.111-3.277-1.444-6.497-3.5-7.22-2.055-.72-3.833 1.334-3.944 4.61Z" fill="#fff"/><path d="M167.382 80.485c0 .167.055.334.111.5.333 1.61 1.111 2.999 2.111 3.943.389.388.833.666 1.333.833.444.166.944.277 1.389.222.111 0 .278 0 .389-.056.388-.055.833-.222 1.222-.444.944-.555 1.722-1.555 2.222-2.776.222-.5.333-1.055.444-1.666.111-.611.111-1.222.111-1.833 0-.277-.055-.5-.055-.777-.278-2.277-1.389-4.276-3-5.164a2.06 2.06 0 0 0-.611-.278c-1-.389-2.055-.278-3 .278-1.166.666-2.055 1.999-2.499 3.72-.056.222-.112.5-.167.722 0 .166-.056.278-.056.444-.055.444-.055.889-.055 1.333 0 .333.055.666.111 1Zm7.332 3.776a3.905 3.905 0 0 1-1.055.889 2.437 2.437 0 0 1-1.055.388c-.5.112-1.056.056-1.611-.166-.5-.167-.945-.5-1.389-.889-1-.944-1.667-2.443-1.944-4.109-.056-.277-.056-.5-.056-.777v-.722c0-.389.056-.722.111-1.11.056-.334.111-.667.222-1l.167-.5v-.111c.111-.333.278-.666.444-.944a4.514 4.514 0 0 1 1.556-1.666c.444-.277.944-.388 1.389-.444.388 0 .833.056 1.222.222.166.056.333.111.444.222 1.5.833 2.611 2.777 2.889 4.998.055.278.055.5.055.777 0 .556 0 1.11-.111 1.666-.111.555-.222 1.11-.444 1.61-.111.611-.389 1.222-.834 1.666Z" fill="#2F1A31"/><path d="M177.213 87.206c-.777 0-1.666-.222-2.555-.945-.055-.055-.055-.11 0-.166.056-.056.111-.056.167 0 2.222 1.889 4.777.222 4.888.11.056-.055.111 0 .167.056.055.056 0 .112-.056.167.056 0-1.111.778-2.611.778Z" fill="#020202"/><path d="M174.547 86.76c-.055 0-.111-.055-.111-.11 0-.334.167-.723.5-1.112.056-.055.111-.055.167-.055.055.055.055.111.055.167v.055c-.388.445-.444.722-.444.945 0 .055-.055.11-.167.11Z" fill="#020202"/><path d="M147.383 95.091c-.778-.278-2.222-3.22-2.056-5.886.167-1.944 1.222-4.442 5.333-5.053 7.777-1.222 8.055-7.496 8.055-7.774h.666c0 .055-.277 7.108-8.61 8.44-2.833.445-4.388 1.833-4.722 4.054-.388 2.554 1.056 5.33 1.5 5.553l-.166.666Z" fill="#E28569"/><path d="M178.713 80.32c.055.167.055.334.111.5.055.167.055.333.111.5 0 .111.055.222.111.333v.056c.056.11.056.166.111.277-.222-.833-.389-1.721-.389-2.665 0 0-.055-.056-.166-.056 0 .167 0 .334.055.5 0 .222.056.389.056.555Zm0 0c.055.167.055.334.111.5.055.167.055.333.111.5 0 .111.055.222.111.333v.056c.056.11.056.166.111.277-.222-.833-.389-1.721-.389-2.665 0 0-.055-.056-.166-.056 0 .167 0 .334.055.5 0 .222.056.389.056.555Zm0 0c.055.167.055.334.111.5.055.167.055.333.111.5 0 .111.055.222.111.333v.056c.056.11.056.166.111.277-.222-.833-.389-1.721-.389-2.665 0 0-.055-.056-.166-.056 0 .167 0 .334.055.5 0 .222.056.389.056.555Zm0 0c.055.167.055.334.111.5.055.167.055.333.111.5 0 .111.055.222.111.333v.056c.056.11.056.166.111.277-.222-.833-.389-1.721-.389-2.665 0 0-.055-.056-.166-.056 0 .167 0 .334.055.5 0 .222.056.389.056.555Zm0 0c.055.167.055.334.111.5.055.167.055.333.111.5 0 .111.055.222.111.333v.056c.056.11.056.166.111.277-.222-.833-.389-1.721-.389-2.665 0 0-.055-.056-.166-.056 0 .167 0 .334.055.5 0 .222.056.389.056.555Zm0 0c.055.167.055.334.111.5.055.167.055.333.111.5 0 .111.055.222.111.333v.056c.056.11.056.166.111.277-.222-.833-.389-1.721-.389-2.665 0 0-.055-.056-.166-.056 0 .167 0 .334.055.5 0 .222.056.389.056.555Zm0 0c.055.167.055.334.111.5.055.167.055.333.111.5 0 .111.055.222.111.333v.056c.056.11.056.166.111.277-.222-.833-.389-1.721-.389-2.665 0 0-.055-.056-.166-.056 0 .167 0 .334.055.5 0 .222.056.389.056.555Zm0 0c.055.167.055.334.111.5.055.167.055.333.111.5 0 .111.055.222.111.333v.056c.056.11.056.166.111.277-.222-.833-.389-1.721-.389-2.665 0 0-.055-.056-.166-.056 0 .167 0 .334.055.5 0 .222.056.389.056.555Zm-.222.556c.166 1.166.555 2.276 1.111 3.165.555.888 1.222 1.555 1.999 1.832.056 0 .111.056.167.056.389.11.833.166 1.222.11a2.497 2.497 0 0 0 1-.388c1.278-.777 2.166-2.499 2.444-4.609.444-3.498-1-6.996-3.166-7.83-.056 0-.111-.055-.167-.055a1.98 1.98 0 0 0-.555-.11c-.278-.056-.5 0-.778.055-.333.055-.611.166-.944.333-1.278.777-2.167 2.499-2.445 4.609 0 .11-.055.277-.055.389 0 .277-.056.5-.056.777.111.555.111 1.11.223 1.666Zm.666 1.166c-.222-.833-.389-1.722-.389-2.666 0-.277 0-.555.056-.833 0-.166.055-.333.055-.5a7.86 7.86 0 0 1 .778-2.665c.389-.721.833-1.277 1.389-1.61l.055-.055c.278-.167.556-.278.834-.334.277-.055.5-.055.777 0 .111 0 .278.056.389.111 2 .778 3.333 4.11 2.889 7.386v.055c-.278 2-1.111 3.554-2.222 4.22-.556.334-1.222.445-1.833.223-.056 0-.167-.056-.223-.056-.055 0-.111-.055-.166-.055h-.056c-.444-.223-.889-.611-1.277-1.111-.445-.555-.778-1.277-1.056-2.11 0 .055 0 .055 0 0Zm-.444-1.722c.055.167.055.334.111.5.055.167.055.333.111.5 0 .111.055.222.111.333v.056c.056.11.056.166.111.277-.222-.833-.389-1.721-.389-2.665 0 0-.055-.056-.166-.056 0 .167 0 .334.055.5 0 .222.056.389.056.555Zm0 0c.055.167.055.334.111.5.055.167.055.333.111.5 0 .111.055.222.111.333v.056c.056.11.056.166.111.277-.222-.833-.389-1.721-.389-2.665 0 0-.055-.056-.166-.056 0 .167 0 .334.055.5 0 .222.056.389.056.555Zm0 0c.055.167.055.334.111.5.055.167.055.333.111.5 0 .111.055.222.111.333v.056c.056.11.056.166.111.277-.222-.833-.389-1.721-.389-2.665 0 0-.055-.056-.166-.056 0 .167 0 .334.055.5 0 .222.056.389.056.555Zm0 0c.055.167.055.334.111.5.055.167.055.333.111.5 0 .111.055.222.111.333v.056c.056.11.056.166.111.277-.222-.833-.389-1.721-.389-2.665 0 0-.055-.056-.166-.056 0 .167 0 .334.055.5 0 .222.056.389.056.555Zm0 0c.055.167.055.334.111.5.055.167.055.333.111.5 0 .111.055.222.111.333v.056c.056.11.056.166.111.277-.222-.833-.389-1.721-.389-2.665 0 0-.055-.056-.166-.056 0 .167 0 .334.055.5 0 .222.056.389.056.555Zm0 0c.055.167.055.334.111.5.055.167.055.333.111.5 0 .111.055.222.111.333v.056c.056.11.056.166.111.277-.222-.833-.389-1.721-.389-2.665 0 0-.055-.056-.166-.056 0 .167 0 .334.055.5 0 .222.056.389.056.555Zm0 0c.055.167.055.334.111.5.055.167.055.333.111.5 0 .111.055.222.111.333v.056c.056.11.056.166.111.277-.222-.833-.389-1.721-.389-2.665 0 0-.055-.056-.166-.056 0 .167 0 .334.055.5 0 .222.056.389.056.555Z" fill="#2F1A31"/><path d="M179.047 79.433c.111 0 .222-.11.278-.166.111-.167.055-.445-.167-.5-.056-.056-1.444-.778-3.444 0-.222.055-.278.278-.222.5.055.222.277.278.5.222 1.611-.667 2.777-.056 2.777 0 .111-.056.222-.056.278-.056Z" fill="#2F1A31"/><path d="M298.645 201.761c.889.166 1.5.999 1.333 1.888l-2.555 13.771c-.167.888-1 1.499-1.889 1.332-.889-.166-1.5-.999-1.333-1.888l2.555-13.771c.167-.944 1-1.499 1.889-1.332ZM294.534 200.982c.889.166 1.5.999 1.333 1.888l-2.833 15.381c-.166.888-.999 1.499-1.888 1.333-.889-.167-1.5-1-1.333-1.888l2.833-15.382c.111-.888.999-1.499 1.888-1.332ZM294.866 192.764l.389.445c.722.832.611 2.054-.166 2.776l-8 6.997c-.833.721-2.055.61-2.777-.167l-.389-.444c-.722-.833-.611-2.055.167-2.777l7.999-6.996c.833-.722 2.111-.667 2.777.166Z" fill="#F7B686"/><path d="M290.424 200.206c.888.166 1.499.999 1.333 1.888l-2.278 12.327c-.166.888-1 1.499-1.888 1.333-.889-.167-1.5-1-1.334-1.888l2.278-12.328c.111-.888 1-1.499 1.889-1.332Z" fill="#F7B686"/><path d="M302.922 194.429s3.222 8.773-.333 14.437c-1.222 1.944-13.332-.611-13.999-3.11-.666-2.498 1.667-10.661 1.667-10.661l12.665-.666Z" fill="#F7B686"/><path d="M302.755 202.481c.889.167 1.5 1 1.334 1.888l-2.278 12.327c-.167.889-1 1.499-1.889 1.333-.888-.167-1.499-1-1.333-1.888l2.278-12.327c.166-.889 1-1.5 1.888-1.333ZM287.758 196.263c-1.667-18.213-5.444-44.2-14.11-64.801-2-4.775-2.833-6.552-4.444-9.162-1.278-2.11 1-6.719 4.555-8.885 3.333-2.054 8.555-1.721 9.388-.722 1.389 1.722 2.889 5.054 5.222 10.329 8.11 18.38 12.943 42.09 14.887 72.686l-15.498.555Z" fill="#F7B686"/><path d="M265.26 314.928s.111 5.275 3.722 6.775c3.555 1.499 13.943 2.832 10.054 6.219-2.222 1.943-12.665.666-15.609.666-2.945 0-5.722 1.277-7.944-.666-2.389-2.166 0-12.994 0-12.994s2.555 1.333 4.833 1.277c3.277-.111 4.944-1.277 4.944-1.277ZM224.208 314.928s.111 5.275 3.722 6.775c3.555 1.499 13.943 2.832 10.054 6.219-2.222 1.943-12.665.666-15.609.666-2.944 0-5.722 1.277-7.944-.666-2.388-2.166 0-12.994 0-12.994s2.556 1.333 4.833 1.277c3.278-.111 4.944-1.277 4.944-1.277Z" fill="#2F1A31"/><path d="M291.812 170.221s-.278 24.321-2.222 67.244c-1.556 33.651-1.222 64.857-4.167 79.628-1.055 5.275-40.106 2.61-39.662-3.221l9.221-103.949 1.778-32.928 35.052-6.774Z" fill="#96A7E2"/><path d="M227.263 189.711c.333 2.665 15.554 2.388 34.163 0 18.609-2.332 33.107-6.386 32.774-9.051-.333-2.665-15.332-2.999-33.996-.666-18.554 2.332-33.274 6.996-32.941 9.717Z" fill="#2F1A31"/><path d="m270.426 186.047-34.663 131.046c-1.666 5.331-34.552 4.609-33.496-1.055l26.886-123.939c.333-1.443 1.389-2.554 2.722-2.943 7.443-2.165 39.273-8.384 38.551-3.109Z" fill="#96A7E2"/><path d="M233.485 116.191s5.277-14.881 24.108-14.215c18.832.666 33.052 25.432 36.607 78.628 0 0-30.885-6.775-66.992 8.995 0 .056-2-51.752 6.277-73.408Z" fill="#CFD3A3"/><path d="m217.32 110.14 16.276 13.715s34.33 3.443 43.44 1.777c9.11-1.666 10.555-8.329 10.555-8.329s-8.666-11.883-25.164-14.826c-1.556-.278-3.111-.333-4.778-.445-2.777-.222-4.666.056-7.443.056-25.664-.278-32.886 8.052-32.886 8.052Z" fill="#CFD3A3"/><path d="m250.595 262.174-.667-.167 10.61-45.089c2-6.052 6.055-11.05 11.443-14.104l.334.555c-5.277 2.999-9.221 7.886-11.11 13.716l-10.61 45.089Z" fill="#020202"/><path d="M250.206 102.032c1.888-.222 3.499-1.388 4.221-3.11l2.333-5.442.667-1.554 4-9.274-.667 9.607-.389 5.775-.111 1.665c-.111 1.333.833 2.499 2.166 2.777.723 1.166 1.667 3.498-1.222 4.442-3.444 1.055-8.999-1.666-10.998-4.886Z" fill="#F7B686"/><path d="M256.816 93.37v.166c.222 3.11 3.555 4.553 3.555 4.553l.389-5.775c-1-.389-2.444-.777-3.277-.333-.445.167-.722.61-.667 1.388Z" fill="#2F1A31"/><path d="M261.927 95.313c4.97 0 8.999-4.972 8.999-11.105 0-6.134-4.029-11.106-8.999-11.106-4.97 0-8.999 4.972-8.999 11.106 0 6.133 4.029 11.105 8.999 11.105Z" fill="#F7B686"/><path d="M266.76 91.426s-3.056.056-6.166-1c0 0-.278 3.055 3.055 3.222 1.944.111 3.111-2.222 3.111-2.222Z" fill="#fff"/><path d="M262.76 84.319c.055 0 .111-.056.111-.112.055-.11 0-.222-.111-.277-.056 0-1.444-.722-2.667.61-.055.112-.055.223 0 .278.056.056.223.056.278 0 .945-.61 2.167-.5 2.222-.5h.167ZM261.149 86.596c0 .5.277.889.611.889.333 0 .666-.389.666-.889s-.277-.889-.611-.889c-.333 0-.666.39-.666.89ZM270.093 85.375c.055 0 .111 0 .166-.055.056-.056.056-.222 0-.278-.055-.055-1.055-1.222-2.666-.444-.111.055-.167.166-.111.277.055.112.166.112.277.112 1.111-.223 2.167.333 2.222.388h.112ZM267.704 86.873c-.222.445-.111.945.222 1.056.333.166.722-.111.944-.556.223-.444.112-.944-.222-1.055-.277-.167-.722.11-.944.555Z" fill="#060633"/><path d="M232.708 163.945s5.166-5.553 9.554-5.441c4.444.111 9.999 3.553 7.277 4.053-2.777.555-6.443.222-6.443.222s7.888 1 6.888 2.777c-1.056 1.721-7.888.777-7.888.777s9.276 1.943 7.777 3.276c-1.5 1.333-8.555-.222-8.555-.222s8.61 2.166 6.777 3.665c-1.778 1.499-7.055-1.833-8.11-.056-1.056 1.722-5.722 8.33-10.943 6.053l3.666-15.104Z" fill="#F7B686"/><path opacity=".5" d="m240.04 163.334-.5-.611c1.222-1 3.499-.389 3.611-.333l-.223.722c-.5-.111-2.111-.389-2.888.222ZM238.318 167l-.389-.666c1.889-1.056 4.111-.389 4.222-.334l-.222.722c0-.055-2-.611-3.611.278ZM237.874 169.998l-.556-.555c1.167-1.167 3.778-.5 4.055-.389l-.222.722c-.666-.167-2.555-.5-3.277.222Z" fill="#E08B65"/><path d="M217.32 110.14c-1.388 1.944 1.389 4.609 7.111 8.718 5.666 4.109 8.166 5.553 9.554 3.609 1.389-1.943-.278-5.275-5.944-9.439-4.166-3.11-9.387-4.887-10.721-2.888Z" fill="#2F1A31"/><path d="m232.264 177.272 4.999-11.05c.667-1.499.111-3.331-1.278-4.109-7.11-4.053-11.221-8.94-12.276-14.493-1.389-7.718 2.944-16.547 6.777-22.322 1.944-2.943 2.167-5.775-.944-9.384-1.278-1.499-2.556-2.555-6.611-4.22-1.999-.833-3.944-1.111-5.055.333-1.722 2.221-2.999 4.053-5.388 8.496-5.722 10.55-7.832 21.1-6.166 30.485 2.055 11.494 9.388 20.823 21.775 27.764 1.556.722 3.444.111 4.167-1.5Z" fill="#F7B686"/><path d="M242.262 186.769s37.163-7.108 49.217-3.776l-5.777 8.551-21.498 1.222-21.942-5.997Z" fill="#96A7E2"/><path d="M267.537 96.035c-1.222 0-2.11-.5-2.11-.555-.111-.056-.167-.222-.056-.333.056-.111.222-.167.333-.056.111.056 2.389 1.388 4.5-.666 2.055-2.11.555-4.442.555-4.442-.055-.112-.055-.223.056-.334.111-.055.222-.055.333.056 0 0 1.722 2.665-.611 4.998-1.055 1.054-2.111 1.332-3 1.332Z" fill="#E28569"/><path d="M259.148 76.377c.334 2-.166 3.554 6 5.053 0 0 1 .667 1.055-.444.056-1.11-1.5-2.776-.666-4.053 0 0 4.444 9.217 5.943 7.274 1.5-1.944 3.445-8.274 0-12.105-3.444-3.832-14.165-4.665-15.942-1.555-2.667 4.664 3.333 4.109 3.61 5.83Z" fill="#436E8E"/><path d="M255.372 72.714s2.722.666 2.61 1.888c-.111 1.221 1.778 3.498 0 4.275-1.833.778-2.222 1.222-2.222 2.555 0 .944-1.666 2.998-2.222 4.886-.277.833.223 2.555.223 2.555s-6.889-2.333-5.666-10.162c.777-5.109 5.555-6.719 7.277-5.997Z" fill="#436E8E"/><path d="M253.038 85.874c1 1 2.444 1.055 3.167.222.722-.833.5-2.333-.5-3.333s-2.445-1.055-3.167-.222c-.722.889-.5 2.388.5 3.333Z" fill="#F7B686"/><path d="M253.982 93.7c-.222 0-.444 0-.555-.055-1.611-.277-2.944-1.499-3-2.72-.111-2.277 2.111-4.11 2.222-4.165.111-.056.222-.056.333.055.056.111.056.222-.055.334 0 0-2.167 1.72-2.056 3.775.056 1 1.278 2.055 2.611 2.277 1.556.222 2.833-.61 3.5-2.388.5-1.277.5-2.387.056-3.276-.778-1.5-2.556-1.943-2.611-1.943-.111-.056-.222-.167-.167-.278.056-.111.167-.222.278-.166.055 0 2.055.5 2.888 2.165.556 1 .5 2.277 0 3.665-.944 2.332-2.444 2.72-3.444 2.72Z" fill="#E28569"/><path d="M250.206 72.103a.424.424 0 0 1-.223-.112c-.055-.11 0-.277.112-.333 2.11-1.222 3.833-.055 3.888 0 .111.056.111.222.056.333-.056.112-.223.112-.334.056-.055-.056-1.555-1.055-3.388 0-.056.056-.111.056-.111.056ZM254.372 71.271a.239.239 0 0 1-.222-.222c0-.056 0-1.666.722-2.277.111-.056.222-.056.333.055.056.111.056.222-.055.333-.445.39-.556 1.5-.556 1.889.056.111-.055.222-.222.222Z" fill="#436E8E"/></svg>